<?xml version="1.0" encoding="UTF-8" ?>

<svg
   xmlns:dc="http://purl.org/dc/elements/1.1/"
   xmlns:cc="http://creativecommons.org/ns#"
   xmlns:rdf="http://www.w3.org/1999/02/22-rdf-syntax-ns#"
   xmlns:svg="http://www.w3.org/2000/svg"
   xmlns="http://www.w3.org/2000/svg"
   width="300"
   height="200"
   viewBox="0 0 300 200"
   version="1.1">
  <defs id="defs78209">
    <clipPath>
      <path d="m 2079.21,8321.69 427.074,0 0,249.133 -427.074,0 0,-249.133 z" />
    </clipPath>
  </defs>
  <g id="feature">
    <path
       d="M 0,0 150,100 300,0 300,200 150,100 0,200 0,0"
       style="fill:#00ff00;fill-opacity:1;fill-rule:nonzero;stroke:none" />
    <path
       d="M 150,100 0,0 300,0 150,100 0,200 300,200 150,100"
       style="fill:#ff0000;fill-opacity:1;fill-rule:nonzero;stroke:none" />
    <path
      style="fill:#0000ff;fill-opacity:1;fill-rule:nonzero;stroke:none"
      d="M 368.443,-23.218 346.076,-56.379 150,75.875 -46.077,-56.379 -68.443,-23.218 114.234,100 -68.443,223.217 -46.074,256.379 150,124.125 346.074,256.379 368.443,223.217 185.766,100 z" />
  </g>
</svg>
