<?xml version="1.0" encoding="UTF-8" ?>

<svg
   xmlns:dc="http://purl.org/dc/elements/1.1/"
   xmlns:cc="http://creativecommons.org/ns#"
   xmlns:rdf="http://www.w3.org/1999/02/22-rdf-syntax-ns#"
   xmlns:svg="http://www.w3.org/2000/svg"
   xmlns="http://www.w3.org/2000/svg"
   xmlns:sodipodi="http://sodipodi.sourceforge.net/DTD/sodipodi-0.dtd"
   xmlns:inkscape="http://www.inkscape.org/namespaces/inkscape"
   width="300"
   height="200"
   viewBox="0 0 300 200"
   version="1.1">
  <defs>
    <clipPath>
      <path d="m 528.438,527.441 427.086,0 0,249.184 -427.086,0 0,-249.184 z" />
    </clipPath>
  </defs>
  <g>
    <path
      d="M 0,0 300,0 300,200 0,200 z"
      style="fill:#ff0000;fill-opacity:1;fill-rule:nonzero;stroke:none" />
    <path d="M 0,0 300,0 300,20 0,20 z"
      style="fill:#0000ff;fill-opacity:1;fill-rule:nonzero;stroke:none" />
    <path d="M 0,40 300,40 300,60 0,60 z"
      style="fill:#0000ff;fill-opacity:1;fill-rule:nonzero;stroke:none" />
    <path d="M 0,80 300,80 300,100 0,100 z"
      style="fill:#0000ff;fill-opacity:1;fill-rule:nonzero;stroke:none" />
    <path d="M 0,120 300,120 300,140 0,140 z"
      style="fill:#0000ff;fill-opacity:1;fill-rule:nonzero;stroke:none" />
    <path d="M 0,160 300,160 300,180 0,180 z"
      style="fill:#0000ff;fill-opacity:1;fill-rule:nonzero;stroke:none" />
    <path d="M 0,0 120,0 120,80 0,80 Z"
      style="fill:#00ff00;fill-opacity:1;fill-rule:nonzero;stroke:none" />
    <rect
       style="fill:none"
       id="feature"
       width="110"
       height="70"
       x="5"
       y="5" />
  </g>
</svg>
