<?xml version="1.0" encoding="UTF-8"?>

<svg
   xmlns="http://www.w3.org/2000/svg"
   width="300"
   height="200"
   viewBox="0 0 300 200"
   version="1.1">
  <g>
    <path style="fill:#ff0000;fill-opacity:1;fill-rule:nonzero;stroke:none"
       d="M 0,0 300,0 300,200 0,200 z" />
    <path style="fill:#00ff00;fill-opacity:1;fill-rule:nonzero;stroke:none"
       d="M 0,0 120,0 120,80 0,80 z" />


    <path style="fill:#fff;fill-opacity:1;fill-rule:nonzero;stroke:none"
       d="M -10,0 10,0 120,73.25 120,80 110,80 z" />
    <path style="fill:#fff;fill-opacity:1;fill-rule:nonzero;stroke:none"
       d="M -10,80 10,80 120,6.75 120,0 110,0 z" />
    <path style="fill:#0000ff;fill-opacity:1;fill-rule:nonzero;stroke:none"
       d="M 113.33,0 120,0 60,40 53.66,40 z" />
    <path style="fill:#0000ff;fill-opacity:1;fill-rule:nonzero;stroke:none"
       d="M 0,80 6.66,80 66.66,40 60,40 z" />
    <path style="fill:#0000ff;fill-opacity:1;fill-rule:nonzero;stroke:none"
       d="M -6.66,0 0,0 60,40 53.33,40 z" />
    <path style="fill:#0000ff;fill-opacity:1;fill-rule:nonzero;stroke:none"
       d="M 120,80 120,75.75 66.66,40 60,40 z" />


    <path style="fill:#fff;fill-opacity:1;fill-rule:nonzero;stroke:none"
       d="M 50,30 50,0 70,0 70,30
          120,30 120,50 70,50
          70,80 50,80 50,50
          0,50 0,30 z" />
    <path style="fill:#0000ff;fill-opacity:1;fill-rule:nonzero;stroke:none"
       d="M 54,34 54,0 66,0 66,34
          120,34 120,46 66,46
          66,80 54,80 54,46
          0,46 0,34 z" />
    <rect
       style="fill:none"
       id="feature"
       width="100"
       height="100"
       x="160"
       y="50" />

  </g>
</svg>
