<?xml version="1.0" encoding="UTF-8" standalone="no"?>
<!-- Created with Inkscape (http://www.inkscape.org/) -->

<svg
   xmlns:dc="http://purl.org/dc/elements/1.1/"
   xmlns:cc="http://creativecommons.org/ns#"
   xmlns:rdf="http://www.w3.org/1999/02/22-rdf-syntax-ns#"
   xmlns:svg="http://www.w3.org/2000/svg"
   xmlns="http://www.w3.org/2000/svg"
   xmlns:sodipodi="http://sodipodi.sourceforge.net/DTD/sodipodi-0.dtd"
   xmlns:inkscape="http://www.inkscape.org/namespaces/inkscape"
   width="20.787495mm"
   height="12.129171mm"
   viewBox="0 0 73.656477 42.977379"
   id="svg79843"
   version="1.1"
   inkscape:version="0.91 r13725"
   sodipodi:docname="union-jack-corner.svg">
  <defs
     id="defs79845" />
  <sodipodi:namedview
     id="base"
     pagecolor="#ffffff"
     bordercolor="#666666"
     borderopacity="1.0"
     inkscape:pageopacity="0.0"
     inkscape:pageshadow="2"
     inkscape:zoom="11.2"
     inkscape:cx="42.006808"
     inkscape:cy="17.202978"
     inkscape:document-units="px"
     inkscape:current-layer="layer1"
     showgrid="false"
     fit-margin-top="0"
     fit-margin-left="0"
     fit-margin-right="0"
     fit-margin-bottom="0"
     inkscape:window-width="1920"
     inkscape:window-height="1029"
     inkscape:window-x="0"
     inkscape:window-y="25"
     inkscape:window-maximized="1" />
  <metadata
     id="metadata79848">
    <rdf:RDF>
      <cc:Work
         rdf:about="">
        <dc:format>image/svg+xml</dc:format>
        <dc:type
           rdf:resource="http://purl.org/dc/dcmitype/StillImage" />
        <dc:title></dc:title>
      </cc:Work>
    </rdf:RDF>
  </metadata>
  <g
     inkscape:label="Layer 1"
     inkscape:groupmode="layer"
     id="layer1"
     transform="translate(-83.171763,-513.73066)">
    <path
       inkscape:connector-curvature="0"
       id="feature"
       style="fill:#ff0000;fill-opacity:1;fill-rule:nonzero;stroke:none"
       d="m 83.171763,556.70804 73.656477,0 0,-42.96788 -73.656477,0 0,42.96788 z"
       inkscape:label="#path4070" />
    <path
       inkscape:connector-curvature="0"
       id="path4084"
       style="fill:#0000ff;fill-opacity:1;fill-rule:nonzero;stroke:none"
       d="m 99.319313,513.73066 0,6.46725 -16.14755,0 0,6.46738 16.14755,0 0,6.45 6.460397,0 0,-6.45 16.14755,0 0,-6.46738 -16.14755,0 0,-6.46725 -6.460397,0" />
    <path
       inkscape:connector-curvature="0"
       id="path4086"
       style="fill:#0000ff;fill-opacity:1;fill-rule:nonzero;stroke:none"
       d="m 83.171763,513.73066 0,2.173 34.421537,17.21163 4.33224,0 0,-2.173 -34.419827,-17.21163 -4.33395,0" />
    <path
       inkscape:connector-curvature="0"
       id="path4088"
       style="fill:#0000ff;fill-opacity:1;fill-rule:nonzero;stroke:none"
       d="m 117.5933,513.73066 -34.421537,17.21163 0,2.173 4.33395,0 34.419827,-17.21163 0,-2.173 -4.33224,0" />
    <path
       inkscape:connector-curvature="0"
       id="path4090"
       style="fill:#00ff00;fill-opacity:1;fill-rule:nonzero;stroke:none"
       d="m 100.61105,513.73066 0,7.76075 -17.439287,0 0,3.88038 17.439287,0 0,7.7435 3.87693,0 0,-7.7435 17.43756,0 0,-3.88038 -17.43756,0 0,-7.76075 -3.87693,0" />
    <path
       inkscape:connector-curvature="0"
       id="path4092"
       style="fill:#00ff00;fill-opacity:1;fill-rule:nonzero;stroke:none"
       d="m 119.03853,513.73066 -12.91734,6.46725 2.887,0 12.91735,-6.46725 -2.88701,0 z m -35.866767,0 0,1.44863 10.03035,5.01862 2.888725,0 -12.919075,-6.46725" />
    <path
       inkscape:connector-curvature="0"
       id="path4094"
       style="fill:#00ff00;fill-opacity:1;fill-rule:nonzero;stroke:none"
       d="m 109.00819,526.66529 12.91907,6.45 0,-1.44863 -10.02862,-5.00137 -2.89045,0 z m -12.917352,0 -12.919075,6.45 2.888725,0 12.91735,-6.45 -2.887,0" />
  </g>
</svg>
