<?xml version="1.0" encoding="UTF-8"?>

<svg
   xmlns="http://www.w3.org/2000/svg"
   width="300"
   height="200"
   viewBox="0 0 300 200"
   version="1.1">
  <g id="feature">
    <path
       d="M 0,0 300,0 300,200 0,200 z"
       style="fill:#ff0000;fill-opacity:1;fill-rule:nonzero;stroke:none" />
    <path
       d="M -30,0 30,0 330,200 270,200 z"
       style="fill:#00ff00;fill-opacity:1;fill-rule:nonzero;stroke:none" />
    <path
       d="M -30,200 30,200 330,0 270,0 z"
       style="fill:#00ff00;fill-opacity:1;fill-rule:nonzero;stroke:none" />

    <path
       d="M 0,13.33 0,0 135,90 135,103.33 z"
       style="fill:#0000ff;fill-opacity:1;fill-rule:nonzero;stroke:none" />
    <path
       d="M 165,76.66 165,90 300,0 300,-13.33 z"
       style="fill:#0000ff;fill-opacity:1;fill-rule:nonzero;stroke:none" />
    <path
       d="M 165,96.66 300,186.66 300,200 165,110 z"
       style="fill:#0000ff;fill-opacity:1;fill-rule:nonzero;stroke:none" />
    <path
       d="M 0,200 135,110 135,123.33 0,213.33 z"
       style="fill:#0000ff;fill-opacity:1;fill-rule:nonzero;stroke:none" />

    <path
       d="M 0,75 125,75 125,0 175,0 175,75 300,75 300,125 175,125 175,200 125,200 125,125 0,125 z"
       style="fill:#00ff00;fill-opacity:1;fill-rule:nonzero;stroke:none" />
    <path
       d="M 0,85 135,85 135,0 165,0 165,85 300,85 300,115 165,115 165,200 135,200 135,115 0,115 z"
       style="fill:#0000ff;fill-opacity:1;fill-rule:nonzero;stroke:none" />
  </g>
</svg>
