<?xml version="1.0" encoding="UTF-8" standalone="no"?>
<!-- Created with Inkscape (http://www.inkscape.org/) -->

<svg
   xmlns:dc="http://purl.org/dc/elements/1.1/"
   xmlns:cc="http://creativecommons.org/ns#"
   xmlns:rdf="http://www.w3.org/1999/02/22-rdf-syntax-ns#"
   xmlns:svg="http://www.w3.org/2000/svg"
   xmlns="http://www.w3.org/2000/svg"
   xmlns:sodipodi="http://sodipodi.sourceforge.net/DTD/sodipodi-0.dtd"
   xmlns:inkscape="http://www.inkscape.org/namespaces/inkscape"
   width="20.7873mm"
   height="12.128383mm"
   viewBox="0 0 73.655788 42.974584"
   id="svg79440"
   version="1.1"
   inkscape:version="0.91 r13725"
   sodipodi:docname="union-jack.svg">
  <defs
     id="defs79442">
    <clipPath
       clipPathUnits="userSpaceOnUse"
       id="clipPath47678">
      <path
         d="m 16.0703,527.441 427.086,0 0,249.184 -427.086,0 0,-249.184 z"
         id="path47680"
         inkscape:connector-curvature="0" />
    </clipPath>
  </defs>
  <sodipodi:namedview
     id="base"
     pagecolor="#ffffff"
     bordercolor="#666666"
     borderopacity="1.0"
     inkscape:pageopacity="0.0"
     inkscape:pageshadow="2"
     inkscape:zoom="11.2"
     inkscape:cx="47.542183"
     inkscape:cy="16.487291"
     inkscape:document-units="px"
     inkscape:current-layer="layer1"
     showgrid="false"
     fit-margin-top="0"
     fit-margin-left="0"
     fit-margin-right="0"
     fit-margin-bottom="0"
     inkscape:window-width="1920"
     inkscape:window-height="1029"
     inkscape:window-x="0"
     inkscape:window-y="25"
     inkscape:window-maximized="1" />
  <metadata
     id="metadata79445">
    <rdf:RDF>
      <cc:Work
         rdf:about="">
        <dc:format>image/svg+xml</dc:format>
        <dc:type
           rdf:resource="http://purl.org/dc/dcmitype/StillImage" />
        <dc:title></dc:title>
      </cc:Work>
    </rdf:RDF>
  </metadata>
  <g
     inkscape:label="Layer 1"
     inkscape:groupmode="layer"
     id="layer1"
     transform="translate(-134.60067,-830.87491)">
    <path
       inkscape:connector-curvature="0"
       id="path47682"
       style="fill:#0000ff;fill-opacity:1;fill-rule:nonzero;stroke:none"
       d="m 134.60067,873.8495 73.65579,0 0,-42.97459 -73.65579,0 0,42.97459 z" />
    <path
       inkscape:connector-curvature="0"
       id="path47684"
       style="fill:#ff0000;fill-opacity:1;fill-rule:nonzero;stroke:none"
       d="m 183.91988,846.41195 24.33653,-13.62513 0,-1.91191 -1.68012,0 -27.75005,15.53704 5.09364,0" />
    <path
       inkscape:connector-curvature="0"
       id="path47686"
       style="fill:#ff0000;fill-opacity:1;fill-rule:nonzero;stroke:none"
       d="m 182.76853,859.17477 25.48788,14.26237 0,-2.84958 -20.39423,-11.41279 -5.09365,0" />
    <path
       inkscape:connector-curvature="0"
       id="path47688"
       style="fill:#ff0000;fill-opacity:1;fill-rule:nonzero;stroke:none"
       d="m 134.60067,834.14961 21.80147,12.26234 5.09381,0 -26.89528,-15.11261 0,2.85027" />
    <path
       inkscape:connector-curvature="0"
       id="path47690"
       style="fill:#ff0000;fill-opacity:1;fill-rule:nonzero;stroke:none"
       d="m 160.3446,859.17477 -25.74393,14.42466 0,0.25007 4.6477,0 26.18919,-14.67473 -5.09296,0" />
    <path
       inkscape:connector-curvature="0"
       id="path47692"
       style="fill:#00ff00;fill-opacity:1;fill-rule:nonzero;stroke:none"
       d="m 203.21864,830.87491 -25.78968,0 0,14.44967 25.78968,-14.44967" />
    <path
       inkscape:connector-curvature="0"
       id="path47694"
       style="fill:#00ff00;fill-opacity:1;fill-rule:nonzero;stroke:none"
       d="m 166.03979,830.87491 -25.68591,0 25.68591,14.44967 0,-14.44967" />
    <path
       inkscape:connector-curvature="0"
       id="path47696"
       style="fill:#00ff00;fill-opacity:1;fill-rule:nonzero;stroke:none"
       d="m 208.25641,846.41195 0,-9.84978 -17.49326,9.84978 17.49326,0" />
    <path
       inkscape:connector-curvature="0"
       id="path47698"
       style="fill:#00ff00;fill-opacity:1;fill-rule:nonzero;stroke:none"
       d="m 208.25641,868.92486 0,-9.75009 -17.49326,0 17.49326,9.75009" />
    <path
       inkscape:connector-curvature="0"
       id="path47700"
       style="fill:#00ff00;fill-opacity:1;fill-rule:nonzero;stroke:none"
       d="m 141.81238,873.8495 24.22741,0 0,-13.58754 -24.22741,13.58754" />
    <path
       inkscape:connector-curvature="0"
       id="path47702"
       style="fill:#00ff00;fill-opacity:1;fill-rule:nonzero;stroke:none"
       d="m 177.42896,873.8495 24.30358,0 -24.30358,-13.58754 0,13.58754" />
    <path
       inkscape:connector-curvature="0"
       id="path47704"
       style="fill:#00ff00;fill-opacity:1;fill-rule:nonzero;stroke:none"
       d="m 134.60067,859.17477 0,10.18728 18.10373,-10.18728 -18.10373,0" />
    <path
       inkscape:connector-curvature="0"
       id="path47706"
       style="fill:#00ff00;fill-opacity:1;fill-rule:nonzero;stroke:none"
       d="m 134.60067,846.41195 18.10373,0 -18.10373,-10.19954 0,10.19954" />
    <path
       inkscape:connector-curvature="0"
       id="path47708"
       style="fill:#ff0000;fill-opacity:1;fill-rule:nonzero;stroke:none"
       d="m 168.3168,830.87491 0,18.09964 -33.71613,0 0,7.65038 33.71613,0 0,17.22457 6.83377,0 0,-17.22457 33.10584,0 0,-7.65038 -33.10584,0 0,-18.09964 -6.83377,0" />
  </g>
</svg>
