<?xml version="1.0" encoding="UTF-8" standalone="no"?>
<!-- Created with Inkscape (http://www.inkscape.org/) -->

<svg
   xmlns:dc="http://purl.org/dc/elements/1.1/"
   xmlns:cc="http://creativecommons.org/ns#"
   xmlns:rdf="http://www.w3.org/1999/02/22-rdf-syntax-ns#"
   xmlns:svg="http://www.w3.org/2000/svg"
   xmlns="http://www.w3.org/2000/svg"
   xmlns:sodipodi="http://sodipodi.sourceforge.net/DTD/sodipodi-0.dtd"
   xmlns:inkscape="http://www.inkscape.org/namespaces/inkscape"
   width="16.132603mm"
   height="10.400405mm"
   viewBox="0 0 57.162766 36.851828"
   id="svg80791"
   version="1.1"
   inkscape:version="0.91 r13725"
   sodipodi:docname="dragon.svg">
  <defs
     id="defs80793">
    <clipPath
       clipPathUnits="userSpaceOnUse"
       id="clipPath50848">
      <path
         d="m 1040.79,122.93 427.086,0 0,249.113 -427.086,0 0,-249.113 z"
         id="path50850"
         inkscape:connector-curvature="0" />
    </clipPath>
  </defs>
  <sodipodi:namedview
     id="base"
     pagecolor="#ffffff"
     bordercolor="#666666"
     borderopacity="1.0"
     inkscape:pageopacity="0.0"
     inkscape:pageshadow="2"
     inkscape:zoom="37.221079"
     inkscape:cx="42.227939"
     inkscape:cy="18.196668"
     inkscape:document-units="px"
     inkscape:current-layer="layer1"
     showgrid="false"
     fit-margin-top="0"
     fit-margin-left="0"
     fit-margin-right="0"
     fit-margin-bottom="0"
     inkscape:window-width="1920"
     inkscape:window-height="1029"
     inkscape:window-x="0"
     inkscape:window-y="25"
     inkscape:window-maximized="1" />
  <metadata
     id="metadata80796">
    <rdf:RDF>
      <cc:Work
         rdf:about="">
        <dc:format>image/svg+xml</dc:format>
        <dc:type
           rdf:resource="http://purl.org/dc/dcmitype/StillImage" />
        <dc:title></dc:title>
      </cc:Work>
    </rdf:RDF>
  </metadata>
  <g
     inkscape:label="Layer 1"
     inkscape:groupmode="layer"
     id="layer1"
     transform="translate(-256.79616,-561.85125)">
    <path
       inkscape:connector-curvature="0"
       id="path50856"
       style="fill:#ff0000;fill-opacity:1;fill-rule:nonzero;stroke:none"
       d="m 313.14028,565.47791 c -0.43115,3.01255 -0.003,7.37462 0.74503,8.81225 -0.90887,-0.32474 -1.91777,-1.10013 -2.4179,-2.09989 -0.35527,1.10013 -0.70882,2.19958 -1.06236,3.29971 2.24544,4.55004 -3.59237,8.1381 -8.45061,8.38799 2.96461,1.61217 6.84499,3.6122 6.84499,4.6618 -1.17963,0.45013 -1.88155,-0.81246 -2.82319,-1.21188 1.0089,2.62469 0.38459,4.57488 -0.13624,7.16249 -0.51049,0.59964 0,1.01252 0.2035,1.51248 0.46565,0.18729 0.93474,0.36234 1.40039,0.53756 0.0741,0.0747 0.15176,0.13746 0.22765,0.21213 0,0 0.98647,0.0378 1.25551,1.42557 -0.65535,-0.8004 -1.5487,-0.5505 -1.5487,-0.5505 -0.11382,0.0748 -0.22765,0.15039 -0.34147,0.22506 l -0.7916,-0.47496 c -0.87265,-0.57533 -1.76083,-0.55032 -2.71109,-0.1252 -0.47944,0.28766 -0.97958,0.26265 -1.44523,0.0376 -0.53463,-0.57516 -1.69357,-0.0626 -1.71771,-0.0626 -0.0224,0 -1.24345,0.81246 -1.24345,0.81246 0,0 -0.29318,-0.0747 -0.3156,-0.0747 -0.0224,0 -0.7916,-0.0129 -1.80739,0.63724 0.26731,-1.3871 1.26586,-1.35002 1.26586,-1.35002 -0.0931,-0.29991 0.12073,-0.25007 0.18109,-0.36252 0.32767,-0.37458 1.02269,-0.3125 1.5349,-0.46219 -0.97785,-0.0376 -1.95743,-0.0874 -2.93701,-0.12521 0.0155,-0.0498 0.0293,-0.0997 0.0448,-0.13745 -0.64156,-0.0626 -1.14515,-0.0876 -1.51421,0.51273 -0.0362,-0.99976 0.81229,-1.18775 1.35554,-1.42557 0.24662,-0.37459 0.78298,-0.31198 1.29001,-0.26197 0,0 2.80077,1.03736 2.59727,0.96268 -0.20351,-0.0628 -3.29918,-1.40004 -3.29918,-1.40004 -0.1535,-0.22558 0.0448,-0.36303 0.0448,-0.3751 0,-0.025 -0.83472,-0.53774 -1.42281,0.0376 0.11382,-1.2005 1.53663,-0.87507 1.53663,-0.87507 0.0793,-0.38803 0.46737,-0.3375 0.65708,-0.16228 0.36734,0.36165 0.73641,0.72485 1.10547,1.08719 0.34665,0.2123 0.69157,0.43737 1.03994,0.64949 0.96406,0.42512 1.98848,0.2756 2.84562,-1.09944 -0.29146,-0.71278 -0.15694,-1.02528 0.49841,-1.4504 -0.16901,-0.47495 -0.10865,-0.96198 0.0897,-1.42487 -0.28974,-0.42512 -0.46392,-1.62493 -0.18109,-1.89966 -0.64845,-0.22506 -0.90197,-0.87524 -0.94853,-0.87524 -0.59499,0.12469 -1.11065,-0.0747 -1.35555,-0.32475 -0.92094,0.41236 -1.70564,0.1873 -2.30581,-0.3375 -1.05718,0.36251 -2.02297,0.11192 -2.53,-0.33803 -0.80885,0.20006 -2.08333,-0.37458 -2.30581,-1.03683 -0.46564,0 -0.94164,-0.52549 -1.44522,-0.47565 -0.41391,0.68777 -0.52429,0.6131 -1.15205,1.1748 -0.64155,0.67571 -0.4139,1.80015 0.0897,2.32564 0.78988,0.29974 1.58147,0.59948 2.37307,0.91215 1.8074,0.10037 2.24027,1.1379 2.2144,2.13749 -0.68122,-0.20006 -0.70881,-0.3125 -1.03994,-0.33751 -0.46737,-0.16229 -0.93301,-0.32457 -1.40038,-0.49979 -1.46075,2.36254 -3.52856,4.01248 -6.48627,4.77493 0.56567,0.26283 1.13135,0.16246 1.69529,0.25007 0.20351,0.11244 0.40701,0.23782 0.61052,0.36234 0.87955,0.18798 1.49696,0.46289 1.49179,1.28742 -0.58982,-0.66225 -1.16239,-0.63724 -1.62804,-0.32474 -0.93646,0.40028 -1.47454,-0.46271 -2.2144,-0.69985 -0.62603,-0.45012 -1.23482,-0.25007 -1.78497,0.0248 -0.61742,-0.40011 -1.32623,-0.20006 -2.03332,-0.11245 -0.883,0.0876 -1.88845,0.3125 -2.32823,0.81247 -0.28973,0.23782 -0.40701,-0.11262 -0.43115,-0.0876 -1.0158,-0.32475 -1.46765,0.56256 -1.46765,0.56256 -0.23972,-1.02476 0.28284,-1.25034 0.83644,-1.39986 -0.37597,-0.2123 -0.75193,-0.43805 -1.12962,-0.65018 -0.0224,-0.13745 -0.10865,-0.16229 0.1121,-0.21213 -0.44323,-0.2749 -0.88818,-0.0628 -1.37624,0.38735 0.0448,-0.93785 1.20378,-1.52525 1.69357,-1.21275 0.35182,-0.26266 0.9951,-0.3125 1.46937,0.0876 0.5329,0.40028 1.34175,0.45013 1.87465,0.28767 -0.2311,-0.63794 -0.96578,-1.01252 -1.37796,-1.03736 -0.58292,-0.13814 -1.25897,-0.3375 -1.06237,-0.70002 -0.35872,-0.51273 -0.87265,-0.35027 -1.44695,0.0619 0.20696,-1.16205 1.43488,-1.03736 1.76428,-0.78746 0.11728,-0.36252 0.49669,-0.43719 0.81402,-0.0619 0.49841,0.12452 0.57257,0.47479 0.85886,0.72486 0.5536,0.56239 1.41418,0.8623 2.12299,0.96199 0.66226,-0.37459 1.44523,-0.43719 2.21441,-0.44944 0.14659,-0.63793 0.56912,-0.78745 1.12962,-0.78745 -0.019,-0.57534 0.26731,-0.82523 0.81402,-1.08806 0,0 -0.86576,-0.0747 -0.92612,-0.62448 -1.45213,-0.0128 -2.40929,-0.21282 -2.53173,-1.16274 -1.32106,-0.41235 -2.15404,-1.41263 -1.62631,-2.47516 -0.65708,0.18729 -1.08478,0.2123 -1.65046,0 -0.91749,0.80039 -2.33857,1.77514 -3.2095,1.22482 -0.41218,0.43788 -1.37797,0.93784 -1.40039,0.93784 -0.11554,1.02528 -0.90369,2.2877 -0.90369,2.2877 -0.39149,-0.98751 -1.13652,-2.07557 -1.08478,-3.03756 -1.32278,1.71254 -2.09541,2.2251 -3.14052,3.35023 -0.84851,0.87438 -1.28484,1.89966 -1.5832,3.0248 0.63294,0.36234 1.44695,0.29974 2.16956,0.44995 0.19661,0.26214 0.15005,0.14953 0.22593,0.22506 0.7709,0.0248 1.34002,0.44995 1.33312,1.24966 -0.68639,-0.71209 -1.37796,-0.27491 -1.37796,-0.27491 -0.56395,0.47496 -1.28139,0.26284 -1.96606,0 -0.59499,-0.63724 -1.46247,-0.99975 -2.19198,-0.44995 -0.88128,0.71279 -1.27794,-0.37527 -2.64383,0.38735 -0.97096,0.87507 -2.32133,0.96268 -2.68867,0.42512 0,0 -0.67433,-0.26283 -1.62804,0.74969 0.27249,-1.64977 1.29001,-1.48748 1.29001,-1.48748 -0.0155,-0.18729 -0.0328,-0.34958 -0.0448,-0.5248 -0.12934,-0.0498 -0.25696,-0.0874 -0.38631,-0.13728 -0.68467,-0.29991 -1.53835,-0.22506 -1.92122,0.0874 0.26214,-1.07513 1.26587,-1.0872 2.0109,-0.97475 0.13624,-0.15022 0.27421,-0.30043 0.40873,-0.44995 -0.31043,-0.11262 -0.24144,-0.32544 -0.15866,-0.53774 -0.41563,-0.41287 -0.72261,-0.49979 -1.24345,-0.0626 0.16384,-1.05029 1.16067,-0.98752 1.85224,-0.5248 0.37596,-0.23783 1.1917,0.2123 1.71771,0.5248 1.60561,0.53756 2.60589,0.60034 4.22703,-1.47541 0.0138,-0.98682 0.0742,-1.37486 0.94853,-1.96226 -0.33285,-0.61241 -0.15176,-1.21206 0.6795,-1.49973 -0.29491,-0.27542 -0.069,-0.68777 0.13624,-1.11289 -1.1917,-0.0498 -2.52483,0.0755 -3.45957,0.40011 -0.30698,0.93785 -0.70709,1.92536 -1.37796,2.55001 0.0155,-2.45015 -1.39866,-4.18701 -3.11983,-6.03752 -1.97123,-1.28742 -2.84561,-3.8871 -3.00427,-4.73734 -0.36217,0.94992 -0.61052,1.10013 -0.61052,1.12497 -0.43805,0.47496 -0.13969,1.56232 -1.04684,1.58733 -0.84678,1.02528 -1.86775,0.42495 -1.86775,0.42495 0.96578,-0.13728 1.13135,-0.5248 1.3107,-1.17481 -0.60533,-0.15021 -0.0759,-0.65018 0.22593,-0.83747 0.18626,-0.0376 0.66225,-1.23741 0.97096,-1.19982 0.12934,-1.1748 0.25524,-2.36254 0.38458,-3.55028 -0.7778,-0.3125 -1.2969,-0.82523 -1.24172,-1.68754 -0.28801,-0.3751 -0.48461,-0.91214 -0.0914,-1.1122 -0.17246,-0.43788 -0.37597,-0.93767 -1.01752,-1.10013 1.48661,-0.26266 1.67287,0.63742 2.05746,0.71209 0.43633,0.26283 0.73641,1.76308 1.26414,2.56261 -0.40183,-1.30019 -0.1966,-2.17457 0.20351,-3.29953 0.002,-0.61241 -0.25352,-1.21275 -0.85886,-1.56302 1.27104,-0.0248 1.78497,1.28811 1.83154,1.33795 0.80194,1.03753 -0.27939,1.76239 0.0673,2.23734 0.24834,-0.18729 0.37596,-0.62517 0.74675,-0.57464 0.30699,-0.32543 0.54326,-0.70071 0.51911,-1.46264 0.7778,0.43719 0.5881,1.09944 0.33975,1.73737 0.0448,0.96268 -0.0897,1.22482 -0.72434,1.56233 -0.63465,0.37528 -0.75365,0.68778 -0.67777,1.14997 0.77263,0.82523 0.92612,3.36231 0.92612,3.36231 0.7778,0.23782 1.06063,0.91283 1.01752,1.4504 0.73296,-0.0626 1.40038,0.49996 1.51421,1.02476 0.43288,-0.41235 1.04339,-0.0371 1.46937,0.40011 0.14832,-0.22506 0.46564,-0.33751 0.81229,-0.20005 0,-0.3996 0.2242,-0.65018 0.58809,-0.97493 -0.87782,-0.67501 -1.11927,-2.36254 -0.13452,-3.27469 -0.19833,-1.23758 0.17592,-2.40032 0.8123,-2.53777 -0.20696,-1.35003 0.60361,-1.77514 0.92784,-2.09989 -0.21385,-0.61223 0.47254,-1.75013 0.85713,-1.7629 -0.38631,-0.63724 0.3294,-1.81222 0.9037,-1.89983 0,-0.0128 -0.38459,-0.90007 -0.38459,-0.90007 0,0 -1.84016,0.2749 -2.16784,1.96243 -0.22937,-0.34958 -0.45357,-0.87507 -0.45357,-0.87507 0,0 -0.73296,1.96313 -0.75538,1.92536 -0.63638,-0.38735 -0.35182,-1.33795 -0.35182,-1.33795 -0.46047,-0.4998 -0.37597,-1.14997 -0.56395,-1.72462 -1.72461,-0.0747 -3.45095,-0.13727 -5.17556,-0.22489 0,0 0.58809,1.0872 0.58809,1.06237 -0.61224,0.0128 -3.60272,-2.53777 -4.18046,-4.71234 1.53318,1.19982 3.16639,1.51232 4.90307,1.87483 -0.45874,0.22489 -0.91922,0.44995 -1.37796,0.67501 4.76338,0.40011 9.69577,-0.47495 9.67162,-0.49996 -0.5329,-1.11289 -2.28338,-1.10013 -2.28338,-1.10013 l 0,0.73779 c -0.15694,-0.11262 -0.31561,-0.22506 -0.47427,-0.33751 -0.007,0.18729 -0.0138,0.37459 -0.0224,0.5624 -0.119,-0.0754 -0.23972,-0.16229 -0.36045,-0.2499 -0.0379,0.16246 -0.0759,0.32475 -0.1121,0.47496 -0.12244,-0.0754 -0.24144,-0.16229 -0.36389,-0.2499 -0.0517,0.14953 -0.1052,0.28698 -0.15694,0.43719 -0.13624,-0.11244 -0.27076,-0.21212 -0.40701,-0.32474 0,0 -0.33802,0 -0.36217,-0.0376 -0.22075,-1.12514 -1.28656,-1.14997 -1.28656,-1.14997 -1.25379,-0.16246 -2.23165,0.0997 -3.34574,0.15021 1.63838,-2.05004 3.88555,-1.86275 6.03441,-2.07557 0.15522,-0.91232 0.95889,-1.17498 1.8988,-1.31243 0,0 4.40639,0.22506 4.42881,0.22506 0.5674,-0.74986 2.3265,-1.06236 2.3265,-1.06236 0.61741,-0.31267 1.30381,-0.17522 1.85396,-0.92508 -0.14314,1.02477 -0.15177,1.23758 -0.22765,1.84999 0.18798,0.0248 0.37769,0.0498 0.5674,0.0748 -0.51394,0.32526 -1.19516,0.80022 -1.70909,1.12497 -0.56913,0.86299 -0.45875,0.87506 -0.21213,1.33795 0.17246,0.29974 0.34492,0.59948 0.51911,0.90008 0.87782,0.27473 1.51938,0.65 1.71771,1.22464 -0.95198,-0.12469 -1.64355,0.0626 -1.62803,0.47496 0.019,0.29974 0.73986,0.43788 1.03476,0.61241 0.54498,0.51256 0.72434,0.96268 0.75021,1.59992 -0.70019,-0.0371 -1.61424,-1.08736 -2.10058,-0.11244 -0.23282,0.47565 0.0242,1.11289 0.63294,1.33795 1.11582,0.29974 1.2193,1.82499 1.19688,1.82499 -0.0207,0 -2.45068,-1.62493 -2.32995,-0.11262 -0.0397,0.67501 0.27248,0.82471 0.52255,1.01252 0.72606,0.2749 1.34865,0.58758 1.26587,1.36227 -1.04684,-0.37458 -1.54353,-0.0876 -1.67288,0.51256 0.13625,0.40028 0.27249,0.78763 0.40701,1.17498 1.41591,-0.28767 2.83182,-0.56257 4.24772,-0.85024 0.61914,-0.57464 0.89853,-1.51231 0.83644,-2.51207 0.0724,-1.50024 -0.46392,-2.82543 1.44695,-4.5002 3.98386,-3.31247 8.03497,-5.92491 12.5638,-8.42491 -0.91922,1.52508 -1.57974,4.38759 0.82437,4.56281 0.7709,0.0121 9.23185,-3.55029 9.23185,-3.55029 -2.94219,2.14973 -6.32588,5.15021 -2.39549,6.43764 -3.60616,1.12496 -6.59664,4.77493 -3.97696,7.71229 -1.8712,-0.53773 -4.32705,0.67501 -4.76855,2.0378 2.12817,-0.025 4.05284,-0.13814 6.07754,0.56257 0,0 5.64983,1.12497 6.03441,-1.36296 -3.01634,0.65018 -5.25316,0.35044 -5.35664,-2.37462 0.0276,-2.32495 3.53545,-3.6379 6.52076,-1.88776 0.3087,-0.63724 0.60706,-1.27518 0.91577,-1.89966 -1.09168,0.13745 -2.07816,0.31181 -3.20951,0.0498 2.29891,-2.17525 4.45985,-4.32498 6.41901,-6.73737 l 0,0" />
    <path
       inkscape:connector-curvature="0"
       id="path50858"
       style="fill:#0e0f0e;fill-opacity:1;fill-rule:nonzero;stroke:none"
       d="m 298.26895,597.31512 c -0.0931,0 -0.86921,0.0378 -1.15204,1.12496 0.88472,-0.51255 1.55387,-0.54963 1.68494,-0.54963 0.019,0 0.0414,0 0.3432,0.0748 1.18136,-0.81247 1.19516,-0.81247 1.2262,-0.81247 0.81919,-0.31267 1.4366,-0.2749 1.7729,0.0874 0.42253,0.20023 0.91922,0.20023 1.3521,-0.0626 1.0865,-0.46272 1.95226,-0.41236 2.79215,0.13745 l 0.78814,0.47496 0.0897,-0.11245 0.16902,-0.11261 c 0.0655,-0.0248 0.81919,-0.21213 1.45384,0.35026 -0.31732,-1.03735 -1.0865,-1.08788 -1.12099,-1.08788 l -0.27249,-0.22437 -1.37969,-0.52549 c -0.0897,-0.16229 -0.15694,-0.27491 -0.22075,-0.38735 -0.21213,-0.37528 -0.43288,-0.74986 -0.0121,-1.24965 0.0448,-0.2756 0.10865,-0.57534 0.17074,-0.863 0.46565,-2.20026 0.83299,-3.92487 -0.0483,-6.22482 -0.009,-0.0248 -0.003,-0.0626 0.019,-0.0754 0.0207,-0.0243 0.0535,-0.0371 0.0811,-0.0243 0.3225,0.14952 0.61741,0.38735 0.9037,0.61241 0.58464,0.4622 1.16583,0.87438 1.8643,0.61241 -0.0483,-0.85023 -3.41301,-2.67522 -6.1172,-4.13769 l -0.73813,-0.40028 c -0.0293,-0.0121 -0.0448,-0.0371 -0.0379,-0.0747 0.009,-0.0378 0.0362,-0.0628 0.069,-0.0628 2.97323,-0.14953 6.77083,-1.64977 8.27469,-4.19961 0.76573,-1.31243 0.8054,-2.67522 0.11383,-4.08785 l 1.05891,-3.34954 c 0.009,-0.0257 0.0345,-0.0505 0.0655,-0.0505 0.0276,0 0.0569,0.0128 0.0707,0.0378 0.41908,0.8373 1.27104,1.61268 2.20406,2.00003 -0.70709,-1.59992 -1.04857,-5.65 -0.70537,-8.4249 -1.94536,2.37462 -4.10285,4.49951 -6.15687,6.4497 0.82264,0.16246 1.72634,0.0876 2.65591,-0.0378 l 0.39148,-0.0498 c 0.0276,0 0.0517,0.0129 0.069,0.025 0.0173,0.0248 0.019,0.0505 0.007,0.0754 l -0.9175,1.89984 c -0.009,0.025 -0.0241,0.0378 -0.0448,0.0378 -0.019,0.0121 -0.0397,0.0121 -0.0604,0 -0.88645,-0.52549 -1.87465,-0.8004 -2.85251,-0.8004 -2.00917,0 -3.53545,1.1379 -3.5527,2.63745 0.088,2.32547 1.71944,3.06257 5.26524,2.29995 0.0241,-0.0121 0.0483,0 0.0673,0.0128 0.0172,0.0128 0.0259,0.0378 0.0224,0.0628 -0.17073,1.09995 -1.36244,1.67459 -3.4475,1.67459 -1.37279,0 -2.66107,-0.24989 -2.67487,-0.24989 -1.39866,-0.48772 -2.72489,-0.58741 -4.28566,-0.58741 -0.35182,0 -0.70882,0.0121 -1.06926,0.0121 l -0.70882,0.0129 0,0 c -0.0224,0 -0.0448,-0.0129 -0.0586,-0.0378 -0.0155,-0.0122 -0.019,-0.0371 -0.0121,-0.0621 0.44323,-1.36279 2.84734,-2.51276 4.63231,-2.13749 -0.79505,-0.98768 -1.04684,-2.11265 -0.72606,-3.27538 0.50359,-1.81223 2.36962,-3.52477 4.67715,-4.31222 -0.96751,-0.35027 -1.50731,-0.863 -1.60562,-1.48748 -0.22592,-1.43764 1.86776,-3.26262 3.69412,-4.63766 -1.92466,0.79971 -8.00047,3.31247 -8.68859,3.31247 -0.73469,-0.0498 -1.24,-0.35027 -1.51421,-0.87507 -0.49324,-0.94992 -0.10693,-2.46223 0.48979,-3.57512 -4.91342,2.73782 -8.72137,5.30042 -12.31891,8.30021 -1.50041,1.31243 -1.4642,2.39963 -1.42626,3.55029 0.0103,0.28697 0.0207,0.58757 0.005,0.88731 0.0655,1.06236 -0.24835,2.00021 -0.86058,2.5626 l -4.28222,0.87507 c -0.0379,0.0122 -0.0741,-0.0128 -0.0862,-0.0504 l -0.40528,-1.17498 c 0.14487,-0.74986 0.73468,-0.96267 1.6746,-0.63724 0.019,-0.61241 -0.43978,-0.90008 -1.22448,-1.18774 l -0.10002,-0.0749 c -0.238,-0.17505 -0.50876,-0.3751 -0.4691,-1.01252 -0.0207,-0.23782 0.0259,-0.43788 0.1397,-0.55032 0.30525,-0.33751 1.05546,-0.14953 2.18335,0.52549 -0.0414,-0.36252 -0.28111,-1.3878 -1.13652,-1.62493 -0.32422,-0.11245 -0.57602,-0.35027 -0.69674,-0.65018 -0.10692,-0.26266 -0.10348,-0.55033 0.0155,-0.78746 0.29836,-0.5874 0.8899,-0.44995 1.45213,-0.17522 0.21557,0.10037 0.43632,0.2123 0.6381,0.23782 -0.0414,-0.60016 -0.24317,-1.00044 -0.72261,-1.4504 -0.0828,-0.0498 -0.2173,-0.0997 -0.36044,-0.16228 -0.33458,-0.12538 -0.68295,-0.26283 -0.69847,-0.51273 -0.005,-0.11244 0.0362,-0.21213 0.11727,-0.29974 0.2242,-0.23782 0.76401,-0.3375 1.46765,-0.26283 -0.21041,-0.44995 -0.74331,-0.79953 -1.62286,-1.06236 l -0.62431,-1.05029 c -0.21903,-0.39942 -0.24835,-0.49979 0.27938,-1.29949 0.27249,-0.18799 0.5674,-0.38804 0.86231,-0.58741 0.238,-0.15021 0.47599,-0.31267 0.69157,-0.44995 l -0.35872,-0.0505 c -0.0207,0 -0.0397,-0.0122 -0.05,-0.025 -0.0138,-0.0121 -0.019,-0.0371 -0.0155,-0.0498 l 0.0586,-0.5248 c 0.0293,-0.2749 0.0621,-0.56257 0.13107,-1.07512 -0.34147,0.35027 -0.72088,0.44995 -1.08995,0.53756 -0.2173,0.0626 -0.42081,0.11245 -0.61914,0.21213 -0.0379,0 -1.7591,0.31267 -2.30236,1.03753 -0.0811,0.0255 -3.45784,-0.14953 -4.49089,-0.20006 -0.85023,0.12521 -1.66942,0.35027 -1.82291,1.25034 -0.003,0.0376 -0.031,0.0626 -0.0655,0.0626 -0.33112,0.0378 -0.66397,0.0498 -1.00027,0.0748 -1.81257,0.13728 -3.52683,0.26265 -4.87548,1.83774 0.31043,-0.0128 0.61224,-0.0498 0.91404,-0.0876 0.70364,-0.0748 1.43143,-0.16228 2.27477,-0.0498 l 0,0 c 0.0138,0 1.12272,0.0371 1.35037,1.21189 0.007,-0.0248 0.16384,-0.0248 0.28973,-0.0248 l 0.37252,0.27542 0.12245,-0.33802 c 0.009,-0.0122 0.0259,-0.0371 0.0466,-0.0371 0.0224,-0.0129 0.0483,-0.0129 0.0655,0 l 0.27249,0.18729 0.0879,-0.36251 c 0.005,-0.0248 0.0207,-0.0498 0.0466,-0.0498 0.0224,-0.0128 0.0483,-0.0128 0.0673,0 l 0.25006,0.17522 0.0172,-0.42512 c 0,-0.025 0.019,-0.0628 0.0431,-0.0755 0.0259,0 0.0535,0 0.0742,0.0128 l 0.357,0.25006 0,-0.58757 c 0,-0.0498 0.0345,-0.0874 0.0742,-0.0874 0.0742,0 1.80567,0.0128 2.35064,1.16273 -0.0448,0.17505 -3.57684,0.69985 -7.07781,0.69985 -0.93474,0 -1.83153,-0.0248 -2.66797,-0.10037 -0.0328,-0.0121 -0.0604,-0.0248 -0.0673,-0.0619 -0.005,-0.0378 0.0104,-0.0626 0.0414,-0.0754 l 1.18136,-0.58757 c -1.63148,-0.33751 -3.125,-0.66226 -4.53746,-1.71237 0.65708,1.9752 3.1112,4.13769 3.89418,4.42535 -0.0793,-0.13745 -0.22593,-0.41304 -0.50359,-0.92508 -0.0121,-0.0248 -0.0121,-0.0505 0.002,-0.0754 0.0155,-0.025 0.0276,-0.0371 0.0673,-0.0371 l 5.17556,0.23713 c 0.13107,0.23782 0.16384,0.43788 0.19833,0.65018 0.0655,0.38735 0.1259,0.76262 0.41908,1.0872 0.0121,0.0755 -0.22592,0.90007 0.26904,1.27535 0.11382,-0.26283 0.48117,-1.22551 0.71054,-1.83775 0.0138,-0.0371 0.0569,-0.0498 0.0707,-0.0498 0.031,0 0.0586,0.0128 0.0707,0.0498 0,0 0.16384,0.38804 0.35182,0.71261 0.42425,-1.56215 2.17129,-1.83775 2.18853,-1.84982 0.0379,0 0.0655,0.0121 0.0793,0.0498 0.39149,0.88783 0.39149,0.91215 0.39149,0.92491 0,0.0378 -0.0276,0.0748 -0.0638,0.0748 -0.26731,0.0378 -0.60016,0.36303 -0.79505,0.77538 -0.18625,0.39943 -0.20695,0.76263 -0.0586,1.01252 0.0155,0.025 0.0155,0.0498 0.003,0.0748 -0.0138,0.0248 -0.038,0.0376 -0.0638,0.0376 -0.1121,0 -0.28801,0.1497 -0.44668,0.38735 -0.26042,0.36251 -0.4622,0.92508 -0.3432,1.27535 -0.0673,0.12469 -0.12589,0.18729 -0.19143,0.23713 -0.35872,0.30043 -0.90025,0.77539 -0.73123,1.88759 0.005,0.0378 -0.0207,0.0748 -0.0586,0.0748 -0.58982,0.12521 -0.94336,1.27518 -0.75538,2.45016 -0.44495,0.46219 -0.66225,1.02528 -0.63293,1.6627 0.0276,0.63724 0.31215,1.2374 0.74158,1.56215 0.0172,0.025 0.0276,0.0378 0.0276,0.0626 0,0.025 -0.009,0.0378 -0.0241,0.0628 -0.38287,0.33751 -0.56395,0.54963 -0.56395,0.91215 0,0.0248 -0.0121,0.0505 -0.031,0.0626 -0.0207,0.0128 -0.0466,0.0128 -0.069,0 -0.29146,-0.0997 -0.58637,-0.025 -0.72433,0.17522 -0.0138,0.0248 -0.0328,0.0369 -0.0569,0.0369 -0.0207,0 -0.0448,-0.0121 -0.0586,-0.0248 -0.52429,-0.5248 -1.04339,-0.70002 -1.3659,-0.39942 -0.019,0.0121 -0.0466,0.0248 -0.0742,0.0121 -0.0241,-0.0121 -0.0431,-0.025 -0.05,-0.0498 -0.1052,-0.48772 -0.72261,-1.03752 -1.43488,-0.96268 -0.0207,0 -0.0414,0 -0.0586,-0.025 -0.0155,-0.0121 -0.0224,-0.0378 -0.0207,-0.0498 0.0414,-0.52549 -0.23972,-1.14998 -0.96406,-1.37486 -0.0552,-0.0876 -0.21557,-2.58761 -0.95888,-3.38801 -0.11038,-0.57464 0.0776,-0.90007 0.69329,-1.26241 0.61569,-0.32475 0.73124,-0.58758 0.6864,-1.49973 0.24834,-0.65 0.40011,-1.19981 -0.18798,-1.59992 -0.007,0.66225 -0.22248,1.02459 -0.54153,1.37504 -0.0138,0.0248 -0.0949,0.0248 -0.11555,0.0248 -0.17246,0 -0.28456,0.14952 -0.40356,0.29974 -0.0724,0.0876 -0.14659,0.18729 -0.23627,0.25007 -0.0155,0.0128 -0.0362,0.0255 -0.0552,0.0128 -0.0207,0 -0.0379,-0.0128 -0.05,-0.025 -0.16212,-0.21282 -0.0621,-0.47496 0.0466,-0.74969 0.16211,-0.42511 0.3432,-0.888 -0.11382,-1.48817 -0.41391,-0.78763 -0.91232,-1.21205 -1.51076,-1.28742 0.43805,0.35027 0.67432,0.863 0.67432,1.47541 -0.37252,1.0496 -0.61741,1.9495 -0.20696,3.27469 0.0103,0.0378 -0.005,0.0754 -0.0397,0.0876 -0.0345,0.0248 -0.0742,0.0121 -0.0949,-0.025 -0.23973,-0.36234 -0.42943,-0.8623 -0.61397,-1.33795 -0.2104,-0.54963 -0.40701,-1.06236 -0.62776,-1.18688 -0.11037,-0.025 -0.2173,-0.12538 -0.33974,-0.25007 -0.25525,-0.24989 -0.57603,-0.56239 -1.3728,-0.49979 0.47082,0.23713 0.63984,0.67432 0.78125,1.03753 0.0138,0.0369 -0.002,0.0747 -0.0362,0.0867 -0.0931,0.0505 -0.14832,0.12537 -0.16902,0.22506 -0.0448,0.18798 0.0673,0.50065 0.28629,0.77538 -0.031,0.79971 0.34837,1.31243 1.2124,1.67477 0.0293,0.0128 0.0483,0.0378 0.0448,0.0755 l -0.38459,3.5496 c -0.002,0.0128 -0.0121,0.0376 -0.0276,0.0498 -0.0155,0.0128 -0.0362,0.0128 -0.0552,0.0128 l 0,0 c -0.14314,0 -0.38804,0.41236 -0.55015,0.68709 -0.18971,0.32543 -0.29318,0.48789 -0.39838,0.51273 -0.21903,0.13745 -0.46392,0.40011 -0.4415,0.53756 0.0138,0.0876 0.12589,0.12538 0.21902,0.15021 0.019,0 0.0362,0.0122 0.0466,0.0371 0.0103,0.0128 0.0121,0.0378 0.009,0.0505 -0.17074,0.61241 -0.33975,1.01252 -1.12445,1.18705 0.11727,0.0378 0.27077,0.0754 0.44495,0.0754 0.42081,0 0.7916,-0.20006 1.10548,-0.57516 0.56222,-0.0371 0.64845,-0.41236 0.74675,-0.85023 0.0621,-0.26215 0.12418,-0.54981 0.30354,-0.7371 0.20523,-0.22489 0.39838,-0.58741 0.59671,-1.1129 0.0121,-0.0248 0.0379,-0.0371 0.0759,-0.0371 0.0328,0 0.0604,0.025 0.0655,0.0498 0.15177,0.81246 1.0227,3.42508 2.97323,4.70025 1.69875,1.81223 3.09913,3.51201 3.15087,5.92508 0.60189,-0.63793 0.96061,-1.56301 1.23482,-2.40031 0.93129,-0.36252 2.26442,-0.49997 3.53373,-0.44995 0.0259,0 0.0466,0.0128 0.0604,0.0376 0.0138,0.025 0.0138,0.0498 0.003,0.0621 l -0.0397,0.0874 c -0.18798,0.38752 -0.35182,0.72502 -0.11383,0.9506 0.019,0.0121 0.0276,0.0498 0.0207,0.0748 -0.003,0.0248 -0.0224,0.0371 -0.0483,0.0498 -0.38114,0.12521 -0.63638,0.33751 -0.73641,0.60017 -0.0897,0.23713 -0.0552,0.49996 0.10003,0.78763 0.0172,0.0371 0.009,0.0747 -0.0224,0.0997 -0.85541,0.57533 -0.9037,0.93767 -0.9175,1.89966 -1.02442,1.33796 -1.82291,1.86276 -2.7749,1.86276 -0.51048,0 -1.04511,-0.15022 -1.55042,-0.32475 -0.58292,-0.33751 -1.35555,-0.71261 -1.65218,-0.52532 -0.37424,-0.20022 -0.70709,-0.31198 -0.9951,-0.31198 -0.28629,0 -0.63639,0.11176 -0.78125,0.5874 0.43632,-0.28766 0.73123,-0.24989 1.17791,0.20006 -0.0293,0.19954 -0.0707,0.31198 -0.0345,0.38735 0.0242,0.0621 0.0776,0.0998 0.16902,0.13745 0.0224,0 0.0397,0.025 0.0448,0.0498 0.005,0.025 0,0.0498 -0.0172,0.0628 l -0.40701,0.46202 c -0.24489,-0.0121 -0.43633,-0.0248 -0.62948,-0.0248 -0.68122,0 -1.11065,0.24989 -1.30726,0.76262 0.4553,-0.23713 1.24,-0.23713 1.82119,0.0248 l 0.37769,0.12538 0.0949,0.58741 c 0.002,0.025 -0.007,0.0498 -0.0224,0.0626 -0.0172,0.0122 -0.0397,0.025 -0.0638,0.0122 -0.25007,0.0248 -0.89335,0.0874 -1.15377,1.19982 0.83299,-0.78763 1.50386,-0.61241 1.53318,-0.58758 0.16384,0.21299 0.45185,0.32544 0.82264,0.32544 0.60534,0 1.27449,-0.27491 1.78842,-0.74987 0.62604,-0.35026 1.19344,-0.31249 1.61597,-0.21281 0.37424,0.0876 0.68984,0.11244 1.03131,-0.17522 0.66915,-0.4998 1.5832,-0.2875 2.29374,0.46288 0.57774,0.20006 1.38141,0.40011 1.86258,0 0.0172,-0.0128 0.24145,-0.15021 0.56395,-0.15021 0.27939,0 0.5398,0.0997 0.77952,0.29974 -0.0724,-0.61241 -0.53635,-0.98683 -1.25034,-0.99976 -0.11727,-0.0498 -0.14832,-0.0747 -0.28456,-0.2499 -0.19488,-0.0248 -0.44323,-0.0498 -0.69157,-0.0747 -0.50359,-0.0505 -1.0227,-0.11262 -1.45557,-0.36252 -0.0293,-0.0128 -0.0431,-0.0505 -0.0362,-0.0754 0.35527,-1.3502 0.84851,-2.28718 1.60044,-3.06257 0.35527,-0.38735 0.67777,-0.68726 1.00372,-0.99976 0.61914,-0.60033 1.2607,-1.21257 2.13335,-2.34978 0.0207,-0.0257 0.0535,-0.0378 0.0845,-0.0257 0.031,0.0129 0.0483,0.0378 0.0483,0.0755 -0.0345,0.67501 0.32423,1.39987 0.6726,2.11265 0.12418,0.26197 0.2449,0.51204 0.3501,0.74986 0.19833,-0.3375 0.72606,-1.31312 0.81919,-2.12558 0.003,-0.0371 0.0345,-0.0619 0.0724,-0.0619 0.0517,-0.025 0.96234,-0.51272 1.34693,-0.91283 0.0241,-0.025 0.0655,-0.025 0.0931,-0.0121 0.15521,0.0997 0.33802,0.14953 0.54497,0.14953 0.87956,0 1.99021,-0.86231 2.57485,-1.37504 0.69502,0.17522 0.98475,0.20006 1.67805,-0.0121 0.031,-0.0128 0.0586,0 0.0793,0.0248 0.019,0.0122 0.0224,0.0498 0.0104,0.0748 -0.18799,0.38735 -0.20523,0.76263 -0.0466,1.1379 0.23283,0.53688 0.82609,0.98683 1.62804,1.24966 0.16728,0.94991 1.07788,1.13772 2.50931,1.14997 0.0379,0 0.069,0.0248 0.0724,0.0626 0.0552,0.48772 0.85196,0.56257 0.85886,0.56257 0.0345,0 0.0621,0.0376 0.069,0.0626 0.005,0.0371 -0.0121,0.0748 -0.0431,0.0869 -0.51394,0.23782 -0.78987,0.46288 -0.7709,1.01321 0,0.0121 -0.007,0.0371 -0.0207,0.0498 -0.0138,0.0121 -0.0328,0.025 -0.0517,0.025 -0.53463,0 -0.92094,0.12452 -1.05891,0.73762 -0.009,0.0248 -0.0362,0.0498 -0.0724,0.0498 -0.70192,0.0121 -1.50731,0.0626 -2.17819,0.44995 -0.47082,-0.0626 -1.52801,-0.28766 -2.2144,-0.98751 -0.0949,-0.0876 -0.17246,-0.17522 -0.2449,-0.2749 -0.13796,-0.17522 -0.27076,-0.35027 -0.57947,-0.42512 -0.32767,-0.35027 -0.62086,-0.30043 -0.72433,0.0121 -0.007,0.0257 -0.0259,0.0378 -0.0483,0.0505 -0.0224,0 -0.0466,0 -0.0673,-0.0128 -0.0983,-0.0747 -0.31733,-0.15021 -0.58637,-0.15021 -0.24662,0 -0.81057,0.0755 -1.01235,0.71278 0.63293,-0.42512 1.07444,-0.38735 1.38832,0.0626 -0.0224,0.12469 -0.0276,0.17522 -0.009,0.2123 0.10003,0.22489 0.77263,0.40011 1.02787,0.44995 0.43805,0.0378 1.18998,0.42512 1.43143,1.08806 0.007,0.0248 0.005,0.0498 -0.003,0.0619 -0.0104,0.0128 -0.0259,0.0378 -0.0448,0.0378 -0.60706,0.1873 -1.45902,0.0626 -1.94364,-0.29991 -0.39148,-0.3375 -1.02269,-0.36303 -1.37796,-0.10037 -0.16039,-0.0369 -0.25525,-0.0626 -0.36907,-0.0626 -0.45012,0 -1.1279,0.41304 -1.26932,1.03822 0.52429,-0.43788 0.93302,-0.50066 1.31588,-0.26284 0.0259,0.025 0.0397,0.0499 0.0345,0.0749 -0.005,0.0378 -0.0276,0.0626 -0.0552,0.0626 -0.0828,0.025 -0.10003,0.0378 -0.1052,0.0378 0.031,0.0121 0.0397,0.0498 0.0466,0.0876 l 0.21903,0.0869 0.8761,0.51255 c 0.0259,0.0128 0.0397,0.0498 0.0362,0.0748 -0.005,0.0255 -0.0259,0.0505 -0.0552,0.0626 -0.52428,0.13745 -0.95026,0.32544 -0.81747,1.1379 0.15349,-0.20005 0.47427,-0.52549 0.99683,-0.52549 0.14832,0 0.30181,0.0255 0.45702,0.0754 0.0242,0 0.0535,0.0371 0.0673,0.0628 0.0673,0.0869 0.15522,0.14953 0.29319,0.0371 0.46909,-0.5248 1.54525,-0.7371 2.36789,-0.82471 0.11727,-0.0128 0.23627,-0.0255 0.35354,-0.0505 0.65536,-0.0874 1.27794,-0.11244 1.72807,0.17522 0.34837,-0.24989 1.18136,-0.44995 1.7867,-0.025 0.23454,0.0748 0.46737,0.22506 0.69329,0.37527 0.45357,0.29974 0.90715,0.54981 1.44867,0.32475 0.48634,-0.33751 1.06581,-0.28767 1.57113,0.18729 -0.0862,-0.61241 -0.61224,-0.84955 -1.42281,-1.01252 l -0.63121,-0.37459 c -0.15866,-0.0128 -0.34492,-0.025 -0.52945,-0.025 -0.37942,-0.0248 -0.76918,-0.0376 -1.16067,-0.22489 -0.0276,-0.0128 -0.0448,-0.0378 -0.0414,-0.0755 0.002,-0.0248 0.0259,-0.0498 0.0552,-0.0619 2.80767,-0.72555 4.91514,-2.27511 6.44143,-4.73803 0.019,-0.0248 0.0552,-0.0371 0.0879,-0.0248 l 1.39866,0.4998 c 0.17419,0 0.27594,0.0505 0.42771,0.11244 0.11555,0.0505 0.26386,0.11262 0.51566,0.18798 -0.005,-1.22533 -0.72607,-1.88759 -2.1437,-1.96243 l -2.39548,-0.91284 c -0.53119,-0.54963 -0.80885,-1.73738 -0.11728,-2.45016 0.19316,-0.17436 0.33458,-0.28766 0.45357,-0.37441 0.26904,-0.21299 0.40529,-0.32544 0.68813,-0.78763 0.0121,-0.0248 0.10175,-0.0378 0.12762,-0.0378 0.26386,0 0.51221,0.12469 0.75193,0.25007 0.22075,0.11244 0.42943,0.22489 0.62948,0.22489 0.28284,0.66294 1.53318,1.22482 2.28856,1.03752 0.65708,0.5248 1.61596,0.66295 2.52483,0.35027 0.76573,0.58741 1.49179,0.70002 2.29719,0.33751 0.3087,0.22506 0.81057,0.42443 1.37279,0.31267 0.002,0 0.002,0 0.003,0 0.0638,0 0.0845,0.0371 0.13969,0.12452 0.11038,0.17522 0.36907,0.58757 0.84506,0.76262 0.0242,0 0.0431,0.025 0.0483,0.0498 0.003,0.025 -0.003,0.0499 -0.0224,0.0755 -0.25007,0.23714 -0.0879,1.38711 0.19143,1.79929 -0.20178,0.5505 -0.23282,1.01252 -0.0828,1.43764 0.0121,0.0378 0,0.0748 -0.0276,0.0876 -0.64501,0.41304 -0.74158,0.68777 -0.4691,1.35002 -0.78814,1.35003 -1.80394,1.71254 -2.94736,1.21275 l -1.05029,-0.66294 -1.11755,-1.09944 c -0.14486,-0.12538 -0.4484,-0.26283 -0.53118,0.12452 -0.003,0.0129 -0.0155,0.0378 -0.031,0.0498 -0.0172,0.0129 -0.0379,0.0129 -0.0586,0 0,0 -0.16383,-0.0248 -0.38114,-0.0248 -0.40528,0 -0.89162,0.11245 -1.03131,0.66295 0.16728,-0.11262 0.35872,-0.17523 0.57257,-0.17523 0.35182,0 0.81919,0.20006 0.81919,0.31268 -0.0914,0.13728 -0.14314,0.21212 -0.0586,0.3375 l 0,0 c 0.0293,0 2.4386,1.03736 3.10603,1.31226 0.22592,0.0876 0.22592,0.0876 0.21557,0.15021 -0.007,0.025 -0.0379,0.0619 -0.0741,0.0619 -0.0104,-0.0121 -0.0207,-0.0121 -0.0328,-0.0121 l -0.002,0 c -0.002,0 -0.005,0 -0.0121,-0.0128 -0.0431,-0.0121 -0.0914,-0.025 -0.15004,-0.0498 -0.57774,-0.22506 -2.4386,-0.91214 -2.4386,-0.91214 -0.61914,-0.0505 -1.0227,-0.025 -1.19861,0.24989 l -0.24834,0.11245 c -0.47427,0.17522 -1.00373,0.38734 -1.08651,1.02476 0.42943,-0.48703 0.91232,-0.40028 1.43661,-0.34975 0.0224,0 0.0431,0.0122 0.0552,0.025 0.0138,0.0248 0.0155,0.0498 0.009,0.0748 l -0.0138,0.0376 2.83871,0.12469 c 0.0362,0.0128 0.0655,0.0378 0.0707,0.0754 0.003,0.0371 -0.019,0.0621 -0.0517,0.0748 -0.17591,0.0498 -0.36907,0.0748 -0.56567,0.11245 -0.37769,0.0498 -0.73641,0.0999 -0.93819,0.32543 -0.019,0.0371 -0.0707,0.0619 -0.1121,0.0869 -0.0655,0.0378 -0.0966,0.0626 -0.0517,0.20006 0.007,0.025 0.002,0.0378 -0.0121,0.0626 -0.0155,0.025 -0.0293,0.05 -0.0604,0.025 l 0,0 z m -36.42727,1.3878 c -0.009,0 -0.0224,0 -0.031,-0.0128 -0.0293,-0.0122 -0.0466,-0.0498 -0.0414,-0.0748 0.238,-1.45039 1.04856,-1.56232 1.29001,-1.56232 l -0.0483,-0.43788 -0.33458,-0.0626 c -0.62258,-0.27491 -1.48489,-0.22507 -1.84878,0.0755 -0.0259,0.0248 -0.0604,0.0248 -0.0862,0 -0.0276,-0.0129 -0.0414,-0.0505 -0.0345,-0.0755 0.17418,-0.7121 0.68122,-1.07444 1.51076,-1.07444 0.20005,0 0.40011,0.0121 0.58464,0.0498 l 0.27939,-0.35044 c -0.0776,-0.0498 -0.13107,-0.11244 -0.16039,-0.17505 -0.0586,-0.13745 -0.0104,-0.2749 0.0483,-0.42442 -0.41391,-0.30043 -0.66398,-0.36252 -1.12445,0.0121 -0.0259,0.025 -0.0586,0.025 -0.0845,0.0128 -0.0276,-0.0248 -0.0414,-0.0498 -0.0379,-0.0754 0.0914,-0.57465 0.44495,-0.91215 0.97269,-0.91215 0.3156,0 0.67949,0.12469 0.9951,0.3375 0.002,-0.0498 0.10347,-0.0755 0.22592,-0.0755 0.41736,0 0.98648,0.3006 1.48834,0.58826 0.47772,0.16229 0.99855,0.31181 1.48834,0.31181 0.90025,0 1.66425,-0.51204 2.64211,-1.76238 -0.002,-0.96199 0.0742,-1.3621 0.91059,-1.93743 -0.15004,-0.29974 -0.17763,-0.59965 -0.0776,-0.85023 0.10865,-0.28698 0.35872,-0.4998 0.72433,-0.64932 -0.19833,-0.28767 -0.0259,-0.65018 0.14832,-1.01252 -1.2193,-0.0505 -2.48344,0.0997 -3.31815,0.38735 -0.25007,0.8623 -0.65018,1.88759 -1.3521,2.53708 -0.0207,0.0255 -0.0517,0.0255 -0.0811,0.0128 -0.0259,-0.0128 -0.0431,-0.0371 -0.0431,-0.0626 0.0155,-2.45015 -1.39349,-4.16269 -3.09913,-5.98768 -1.81947,-1.18705 -2.71799,-3.52476 -2.97151,-4.53728 -0.17418,0.41235 -0.34837,0.71278 -0.51566,0.90007 -0.17073,0.1873 -0.22937,0.44996 -0.28628,0.70002 -0.10003,0.42495 -0.21041,0.91284 -0.83472,0.92491 -0.28456,0.40011 -0.69674,0.61241 -1.16411,0.61241 -0.42253,0 -0.72951,-0.17453 -0.74331,-0.18729 -0.0259,-0.0129 -0.0397,-0.0498 -0.0345,-0.0749 0.007,-0.0378 0.0328,-0.0626 0.0638,-0.0626 0.89335,-0.12538 1.06236,-0.46289 1.22965,-1.05029 -0.15349,-0.0498 -0.238,-0.13745 -0.25697,-0.2499 -0.0448,-0.26214 0.33113,-0.57464 0.53463,-0.70002 0.0776,-0.0378 0.21903,-0.2749 0.32423,-0.44995 0.24145,-0.41235 0.43115,-0.70002 0.61914,-0.74986 l 0.37079,-3.43767 c -0.88128,-0.37458 -1.28656,-0.94992 -1.23655,-1.74962 -0.17763,-0.18798 -0.36217,-0.56326 -0.29836,-0.85023 0.0242,-0.11245 0.0914,-0.21282 0.18971,-0.27473 -0.15694,-0.41305 -0.35182,-0.85024 -0.94336,-1.0127 -0.0345,0 -0.0569,-0.0376 -0.0552,-0.0754 0,-0.0371 0.0276,-0.0626 0.0621,-0.0626 1.0865,-0.19954 1.50558,0.22557 1.79359,0.51255 0.1121,0.10037 0.19833,0.18798 0.28974,0.21299 0.28628,0.16229 0.48461,0.67501 0.71399,1.27449 0.10347,0.26283 0.20695,0.53773 0.32077,0.78763 -0.20177,-1.06236 0.0293,-1.86206 0.3501,-2.76214 -0.003,-0.62517 -0.29663,-1.16273 -0.82609,-1.47541 -0.0293,-0.0121 -0.0431,-0.0498 -0.0362,-0.0874 0.009,-0.025 0.031,-0.0876 0.0724,-0.0498 0.56395,0 1.30208,0.22489 1.86258,1.31226 0.53463,0.71278 0.31905,1.26242 0.16039,1.67546 -0.0845,0.21213 -0.15349,0.39942 -0.10348,0.53757 0.0483,-0.0505 0.0949,-0.10038 0.14142,-0.16298 0.12935,-0.17453 0.27594,-0.36251 0.52256,-0.36251 0.33112,-0.32475 0.52773,-0.68709 0.50531,-1.38711 0,-0.0255 0.0138,-0.0505 0.0362,-0.0626 0.0241,-0.0128 0.0552,-0.0128 0.0759,0 0.82091,0.46219 0.63466,1.16204 0.37252,1.82498 0.0517,0.93767 -0.0914,1.24966 -0.75711,1.59992 -0.62603,0.37528 -0.70882,0.66226 -0.63983,1.0753 0.76228,0.79953 0.92094,3.27469 0.92612,3.37438 0.71399,0.16297 1.03131,0.81315 1.02269,1.37503 0.67605,0 1.30036,0.47548 1.47455,0.96268 0.4415,-0.29991 1.10547,0.12521 1.4228,0.42512 0.17074,-0.1873 0.4622,-0.26283 0.74848,-0.1873 0.0345,-0.36251 0.25525,-0.61241 0.54498,-0.87524 -0.42425,-0.36234 -0.70192,-0.97475 -0.72951,-1.62475 -0.0328,-0.67519 0.20178,-1.28743 0.65708,-1.71255 -0.2173,-1.16273 0.14659,-2.32495 0.78125,-2.525 -0.15177,-1.14997 0.4139,-1.62562 0.79159,-1.95019 0.0621,-0.0498 0.119,-0.0999 0.16384,-0.15022 -0.16039,-0.33767 0.0724,-0.94991 0.34492,-1.33726 0.15349,-0.22506 0.31561,-0.37528 0.45703,-0.42512 -0.12418,-0.28766 -0.0914,-0.66225 0.0966,-1.06236 0.20178,-0.42512 0.52256,-0.74986 0.82092,-0.83747 -0.0673,-0.16229 -0.26387,-0.61241 -0.33113,-0.76262 -0.30698,0.0628 -1.76945,0.43719 -2.05228,1.89983 -0.005,0.0248 -0.0276,0.0505 -0.0569,0.0505 -0.0293,0.0121 -0.0604,0 -0.0776,-0.0257 -0.15177,-0.23713 -0.30009,-0.53687 -0.38459,-0.72485 -0.67433,1.80015 -0.69847,1.80015 -0.76056,1.80015 -0.71744,-0.42512 -0.43805,-1.39987 -0.42425,-1.43764 -0.30526,-0.2749 -0.37252,-0.68726 -0.43978,-1.08737 -0.031,-0.20005 -0.0638,-0.40011 -0.12417,-0.5874 l -2.51966,-0.0626 -2.45757,-0.0997 c 0.20868,0.37441 0.48979,0.88714 0.51738,0.93698 0.0241,0.0128 0.0276,0.0378 0.0155,0.0755 -0.0103,0.0248 -0.0414,0.0376 -0.0724,0.0376 -0.71054,0 -3.67342,-2.58761 -4.25289,-4.77562 -0.009,-0.025 0.003,-0.0619 0.031,-0.0869 0.0276,-0.0128 0.0604,-0.0128 0.0862,0.0121 1.50041,1.17498 3.1043,1.50041 4.80477,1.84999 0.031,0 0.0897,0.0378 0.0931,0.0626 0.003,0.0378 0.0207,0.0748 -0.007,0.0876 l -1.1348,0.56257 c 0.75366,0.0498 1.55561,0.0747 2.38514,0.0747 3.40439,0 6.3621,-0.47496 6.90018,-0.57464 -0.48289,-0.85006 -1.7729,-0.96268 -2.09713,-0.97544 l 0,0.66294 c 0,0.0248 -0.0155,0.0498 -0.0397,0.0626 -0.0259,0.0121 -0.0552,0.0121 -0.0776,0 l -0.36217,-0.26266 -0.019,0.42495 c 0,0.0371 -0.0172,0.0628 -0.0397,0.0748 -0.0241,0 -0.0552,0 -0.0759,-0.0121 l -0.27249,-0.18798 -0.088,0.37528 c -0.005,0.0248 -0.0224,0.0376 -0.0448,0.0498 -0.0241,0 -0.0517,0 -0.069,-0.0123 l -0.28284,-0.18781 -0.12417,0.33751 c -0.009,0.0248 -0.0276,0.0376 -0.0517,0.0498 -0.0207,0 -0.0448,0 -0.0655,-0.025 l -0.40701,-0.3125 c -0.33975,0.0128 -0.36562,-0.0371 -0.38114,-0.0748 -0.21385,-1.06237 -1.18308,-1.10013 -1.22275,-1.10013 -0.85024,-0.11245 -1.55215,-0.0248 -2.24717,0.0498 -0.35872,0.0378 -0.71916,0.0876 -1.09341,0.10037 -0.0362,0 -0.0569,-0.0128 -0.069,-0.0376 -0.0155,-0.025 -0.0104,-0.0628 0.007,-0.0749 1.40556,-1.76238 3.27676,-1.90052 5.09105,-2.0378 0.31216,-0.0122 0.62604,-0.0371 0.93819,-0.0748 0.19488,-0.93715 1.09341,-1.18774 1.95227,-1.31225 l 0,0 c 0.0241,0 4.37706,0.22489 4.43915,0.22489 0.51738,-0.73762 2.24027,-1.05029 2.31443,-1.06237 0.19143,-0.10037 0.4139,-0.15021 0.62776,-0.20005 0.42598,-0.11244 0.82609,-0.21282 1.17791,-0.68778 0.0207,-0.0371 0.0586,-0.0371 0.0879,-0.0371 0.031,0.0248 0.0517,0.0498 0.0466,0.0876 -0.0966,0.68708 -0.13107,1.01183 -0.16729,1.33726 l -0.0517,0.43719 0.49324,0.0626 c 0.031,0 0.0552,0.0248 0.0621,0.0626 0.009,0.025 -0.005,0.0498 -0.031,0.0748 -0.25869,0.16229 -0.56222,0.36235 -0.86403,0.56257 -0.29318,0.20006 -0.58982,0.40011 -0.84333,0.5624 -0.47255,0.72485 -0.43978,0.78763 -0.2518,1.12514 l 0.5812,1.01252 c 0.95888,0.2749 1.53663,0.68777 1.72289,1.23758 0.009,0.0248 0.005,0.0498 -0.0121,0.0626 -0.0155,0.0248 -0.0431,0.0371 -0.0673,0.0371 -0.70364,-0.0876 -1.26759,0 -1.46592,0.20006 -0.0552,0.0626 -0.0811,0.1252 -0.0776,0.20005 0.0103,0.15021 0.33974,0.2749 0.60361,0.37528 0.15177,0.0626 0.29836,0.11244 0.39666,0.17504 0.5398,0.51204 0.75711,0.96217 0.78642,1.66201 0,0.0128 -0.009,0.0378 -0.0224,0.0505 -0.0155,0.0121 -0.0362,0.025 -0.0569,0.025 -0.24834,-0.0129 -0.51738,-0.15021 -0.7778,-0.27559 -0.50359,-0.23714 -0.99165,-0.39942 -1.25379,0.11313 -0.0983,0.2123 -0.10003,0.45013 -0.0104,0.67433 0.1052,0.26283 0.32595,0.46288 0.60189,0.56326 1.11582,0.29973 1.26932,1.76238 1.24862,1.89983 -0.005,0.0369 -0.0379,0.0747 -0.0759,0.0747 -0.0138,0 -0.0862,-0.0378 -0.0966,-0.0498 -0.96061,-0.57533 -1.47282,-0.69984 -1.73151,-0.69984 -0.14659,0 -0.25525,0.0376 -0.32423,0.11244 -0.0845,0.0876 -0.119,0.23713 -0.10175,0.44995 -0.0328,0.56257 0.18108,0.72486 0.41046,0.90008 l 0.0828,0.0619 c 0.69329,0.25076 1.38314,0.57533 1.29346,1.4128 -0.002,0.0248 -0.0173,0.0505 -0.0362,0.0626 -0.019,0.0128 -0.0431,0.0128 -0.0621,0 -0.89335,-0.3125 -1.44177,-0.16229 -1.57629,0.46288 l 0.38286,1.07444 4.18564,-0.8373 c 0.54152,-0.51273 0.83816,-1.39987 0.77607,-2.4374 0.0138,-0.29974 0.005,-0.60034 -0.005,-0.88731 -0.0397,-1.18757 -0.0776,-2.31271 1.47799,-3.66273 3.66308,-3.06257 7.54001,-5.66294 12.57588,-8.43784 0.0293,-0.0248 0.0655,-0.0121 0.0897,0.0129 0.0241,0.0248 0.0276,0.0626 0.0121,0.0874 -0.6726,1.11237 -1.09858,2.72506 -0.61914,3.64997 0.24662,0.4872 0.71399,0.74986 1.38314,0.7997 0.61741,0 6.28449,-2.31201 9.19736,-3.53752 0.0345,-0.0121 0.0759,0 0.0931,0.025 0.0207,0.0378 0.0103,0.0754 -0.0207,0.10038 -2.95426,2.16249 -4.30463,3.74965 -4.12872,4.86254 0.0949,0.62517 0.6726,1.10013 1.71254,1.44988 0.031,0.0128 0.0517,0.0376 0.0517,0.0747 0,0.0257 -0.0207,0.0505 -0.0517,0.0626 -2.35754,0.73779 -4.28221,2.45016 -4.78752,4.28808 -0.32768,1.1748 -0.0362,2.31201 0.84333,3.29953 0.0224,0.025 0.0242,0.0628 0.007,0.0876 -0.019,0.025 -0.0552,0.0378 -0.0845,0.0378 -0.29318,-0.0876 -0.61223,-0.12538 -0.94681,-0.12538 -1.57112,0 -3.25952,0.92508 -3.69239,2.01228 l 0.60016,-0.0121 c 0.36217,0 0.71744,-0.0128 1.07099,-0.0128 1.57629,0 2.91632,0.10037 4.3236,0.5874 0.003,0 1.27966,0.2499 2.63693,0.2499 1.35555,0 3.00428,-0.2499 3.27849,-1.43695 -0.86231,0.1873 -1.59354,0.26214 -2.23165,0.26214 -2.01952,0 -3.03359,-0.88731 -3.10258,-2.72506 0.0172,-1.58716 1.60907,-2.78697 3.70102,-2.78697 0.97958,0 1.96606,0.2749 2.85941,0.7747 l 0.82092,-1.69961 -0.25352,0.0371 c -0.99338,0.12521 -1.96089,0.21282 -2.84561,0 -0.0259,0 -0.0466,-0.025 -0.0535,-0.05 -0.009,-0.0248 0,-0.0626 0.019,-0.0747 2.14024,-2.02504 4.39948,-4.25031 6.4121,-6.73806 0.0207,-0.025 0.0569,-0.0371 0.0862,-0.025 0.0328,0.0128 0.05,0.0505 0.0466,0.0876 -0.44668,3.11241 0.031,7.41239 0.73468,8.76241 0.0155,0.025 0.0121,0.0628 -0.009,0.0876 -0.019,0.0128 -0.05,0.025 -0.0811,0.0128 -0.9744,-0.35027 -1.88845,-1.1129 -2.37651,-1.9752 l -1.00718,3.12517 c 0.7002,1.37503 0.65881,2.83768 -0.12244,4.17477 -1.48662,2.525 -5.16522,4.03749 -8.13672,4.26238 l 0.51048,0.27559 c 2.88355,1.54939 6.14824,3.32454 6.14824,4.32429 -0.22247,0.13815 -0.39666,0.17522 -0.56567,0.17522 -0.57429,0 -1.04166,-0.37458 -1.49179,-0.7371 -0.22765,-0.17504 -0.46219,-0.36303 -0.70709,-0.50048 0.81229,2.2501 0.42943,4.05008 -0.0104,6.12514 -0.0621,0.30042 -0.12589,0.60016 -0.18626,0.8999 -0.36906,0.45012 -0.19315,0.76262 0.0104,1.11306 0.0673,0.11245 0.13797,0.23714 0.18799,0.36234 l 1.35899,0.49997 0.24834,0.21213 c -0.005,-0.0121 1.00718,0.0754 1.28139,1.46247 0.005,0.0378 -0.0104,0.0755 -0.0414,0.0876 -0.031,0.0128 -0.0673,0 -0.0897,-0.0248 -0.60189,-0.72485 -1.46937,-0.51272 -1.47282,-0.51272 l -0.31905,0.21281 -0.86921,-0.47478 c -0.80194,-0.52549 -1.62631,-0.57533 -2.64383,-0.12538 -0.45874,0.2749 -0.9951,0.29974 -1.50903,0.0378 -0.3294,-0.33751 -0.8899,-0.33751 -1.62286,-0.0755 -0.0914,0.0505 -0.80022,0.51273 -1.26242,0.82523 -0.0621,0 -0.32423,-0.0498 -0.36389,-0.0626 -0.0845,0 -0.81919,0.025 -1.76256,0.62518 -0.0241,0.0128 -0.0569,0.0128 -0.0828,0 -0.0241,-0.0121 -0.0362,-0.0498 -0.031,-0.0747 0.22765,-1.17567 0.98303,-1.37503 1.24517,-1.4128 -0.0241,-0.16229 0.0569,-0.22506 0.14314,-0.27491 0.003,0 0.0707,-0.0626 0.0759,-0.0626 0.21558,-0.2499 0.56913,-0.3125 0.92267,-0.36234 l -2.27131,-0.11262 c -0.0242,0 -0.0448,-0.0128 -0.0586,-0.0248 -0.0121,-0.025 -0.0155,-0.0498 -0.009,-0.0628 l 0.0138,-0.0498 c -0.50703,-0.0498 -0.97958,-0.11244 -1.34864,0.4872 -0.019,0.0255 -0.05,0.0504 -0.0828,0.0376 -0.031,-0.0121 -0.0535,-0.0376 -0.0552,-0.0747 -0.0345,-0.93785 0.67432,-1.19982 1.19171,-1.40005 l 0.20867,-0.0874 c 0.16557,-0.2756 0.52774,-0.31268 0.78298,-0.31268 0.14487,0 0.29491,0.0128 0.44667,0.025 -0.37769,-0.16246 -0.64155,-0.2749 -0.64155,-0.2749 -0.17936,-0.2499 -0.0569,-0.41236 -0.005,-0.47496 -0.0414,0.025 -0.3363,-0.13745 -0.66397,-0.13745 -0.2449,0 -0.4553,0.0876 -0.62604,0.24989 -0.0241,0.025 -0.0586,0.0371 -0.0862,0.025 -0.0293,-0.025 -0.0448,-0.0498 -0.0414,-0.0748 0.0811,-0.86299 0.79505,-0.98751 1.2124,-0.98751 0.14832,0 0.27249,0.0121 0.34493,0.0248 0.1052,-0.3125 0.52083,-0.35026 0.75883,-0.1252 l 1.10892,1.08788 1.02787,0.63742 c 1.03994,0.46202 2.004,0.11244 2.74386,-1.0753 -0.29836,-0.65 -0.18798,-0.99975 0.47082,-1.43763 -0.1397,-0.44995 -0.1052,-0.92491 0.1121,-1.42471 -0.26387,-0.3375 -0.45357,-1.42487 -0.2311,-1.83791 -0.46392,-0.19937 -0.71571,-0.61224 -0.82781,-0.78746 -0.11555,-0.025 -0.24317,-0.0121 -0.3708,-0.0121 -0.41045,0 -0.80884,-0.15021 -1.03994,-0.37527 -0.24489,0.15021 -0.56912,0.22506 -0.88127,0.22506 -0.51221,0 -0.99166,-0.18729 -1.42281,-0.56257 -0.26731,0.12521 -0.61741,0.18799 -0.96061,0.18799 -0.61741,0 -1.18826,-0.18799 -1.56767,-0.52549 -0.0466,0.0378 -0.17246,0.0498 -0.30353,0.0498 -0.84506,0 -1.82809,-0.54981 -2.0247,-1.12445 -0.16384,0.0498 -0.40183,-0.0754 -0.62948,-0.18798 -0.2242,-0.12452 -0.45357,-0.23714 -0.68122,-0.23714 -0.29836,0.45013 -0.4484,0.57482 -0.72262,0.78763 -0.11727,0.0876 -0.25696,0.20006 -0.44495,0.36234 -0.62431,0.66226 -0.36734,1.73755 0.0949,2.22527 L 294.183,589.99 c 1.91087,0.0997 2.28856,1.26259 2.26269,2.21234 0,0.025 -0.0104,0.05 -0.031,0.0628 -0.019,0.0121 -0.0431,0.0121 -0.0655,0.0121 -0.31732,-0.0997 -0.49496,-0.17453 -0.62603,-0.22437 -0.14832,-0.0626 -0.22937,-0.10037 -0.39666,-0.11244 l -1.36417,-0.47496 c -1.50559,2.39962 -3.56132,3.93694 -6.27931,4.6875 0.29318,0.0997 0.58809,0.11244 0.89507,0.12451 0.18971,0 0.38114,0.0129 0.57257,0.0378 l 0.63638,0.37459 c 0.91405,0.17522 1.53663,0.48772 1.52973,1.35002 0,0.025 -0.019,0.0498 -0.0483,0.0626 -0.031,0.0129 -0.0621,0 -0.0811,-0.0128 -0.49669,-0.54964 -1.02442,-0.64932 -1.52973,-0.31181 -0.65018,0.27473 -1.1417,-0.0129 -1.60389,-0.32544 -0.21558,-0.13745 -0.43978,-0.28766 -0.67605,-0.36251 -0.60361,-0.42512 -1.27794,-0.21213 -1.72806,0.0129 -0.5467,-0.27559 -1.08306,-0.23782 -1.69875,-0.15038 -0.12072,0.0122 -0.23972,0.0378 -0.36044,0.0498 -1.12445,0.11261 -1.93329,0.38803 -2.28166,0.78763 -0.26387,0.21281 -0.45185,0.0248 -0.51394,-0.0626 -0.13624,-0.0498 -0.27248,-0.0748 -0.40528,-0.0748 -0.65535,0 -0.95544,0.57533 -0.96751,0.60016 -0.0138,0.025 -0.0448,0.05 -0.0759,0.0371 -0.031,0 -0.0569,-0.0248 -0.0638,-0.0498 -0.22937,-0.98751 0.2173,-1.28742 0.71916,-1.44971 l -0.97785,-0.56257 c -0.0138,-0.0128 -0.05,-0.10037 -0.0535,-0.11244 -0.0155,-0.0378 -0.031,-0.0876 -0.005,-0.13746 0.007,-0.0128 0.0155,-0.0248 0.0276,-0.0248 -0.32077,-0.12538 -0.66915,0.0121 -1.14686,0.44995 -0.0207,0.0121 -0.0535,0.0248 -0.0811,0.0121 -0.0276,-0.0121 -0.0448,-0.0498 -0.0431,-0.0747 0.05,-1.05029 1.31933,-1.58785 1.81085,-1.27535 0.10003,-0.13745 0.35872,-0.21213 0.62086,-0.21213 0.31215,0 0.61568,0.0997 0.85368,0.29974 0.42253,0.32543 1.16756,0.43788 1.72634,0.29974 -0.24317,-0.54964 -0.89852,-0.88715 -1.28139,-0.91215 -0.5329,-0.12521 -1.02787,-0.27491 -1.14169,-0.53756 -0.0379,-0.0876 -0.0328,-0.1873 0.019,-0.27491 -0.28456,-0.24989 -0.69157,-0.3125 -1.33658,0.16246 -0.0259,0.0248 -0.0586,0.0248 -0.0828,0.0128 -0.0259,-0.0257 -0.0414,-0.0505 -0.0345,-0.0876 0.1121,-0.63724 0.56395,-1.01252 1.20378,-1.01252 0.22247,0 0.44495,0.0498 0.59672,0.12469 0.17073,-0.3375 0.60533,-0.36251 0.90714,0 0.31906,0.0754 0.47255,0.26266 0.62086,0.46272 0.0724,0.0876 0.13797,0.17522 0.22765,0.24989 0.6588,0.67502 1.67977,0.88732 2.08851,0.94992 0.63293,-0.37459 1.43487,-0.43719 2.14369,-0.44995 0.17419,-0.65018 0.65018,-0.7747 1.1141,-0.78763 0.005,-0.48703 0.24145,-0.74969 0.6519,-0.97475 -0.26386,-0.0626 -0.67087,-0.22507 -0.75365,-0.58741 -1.4366,-0.025 -2.41446,-0.23782 -2.54208,-1.22551 -0.7916,-0.19936 -1.41936,-0.68708 -1.66943,-1.27449 -0.15176,-0.35044 -0.15694,-0.73778 -0.0155,-1.10013 -0.62776,0.16229 -1.01235,0.15022 -1.54353,-0.0498 -0.52428,0.51256 -1.67115,1.39987 -2.59899,1.39987 -0.21385,0 -0.40356,-0.0498 -0.57257,-0.13745 -0.35699,0.34958 -1.10547,0.7747 -1.34347,0.88731 -0.13107,1.02528 -0.87783,2.2251 -0.9106,2.27494 -0.0138,0.025 -0.0328,0.025 -0.069,0.0378 -0.0276,-0.0128 -0.0517,-0.025 -0.0621,-0.0498 -0.11382,-0.28767 -0.25696,-0.58758 -0.40356,-0.87524 -0.31905,-0.66277 -0.64845,-1.3371 -0.68639,-1.9752 -0.81057,1.03752 -1.42281,1.62493 -2.01435,2.1875 -0.32423,0.3125 -0.645,0.62517 -0.99855,1.00044 -0.72434,0.74969 -1.20378,1.64977 -1.5487,2.93719 0.39838,0.21213 0.88127,0.26266 1.34692,0.3125 0.25352,0.025 0.50704,0.05 0.75021,0.0999 0.16383,0.18781 0.18281,0.20005 0.19143,0.20005 0.009,0 0.0655,0.0498 0.0724,0.0498 0.003,0 0.007,0 0.0121,0 0.81575,0 1.35038,0.51256 1.34175,1.30019 0,0.0248 -0.0172,0.0626 -0.0466,0.0754 -0.0276,0 -0.0604,0 -0.0793,-0.0255 -0.24835,-0.2499 -0.52084,-0.37459 -0.81057,-0.37459 -0.27766,0 -0.47255,0.11245 -0.47599,0.11245 -0.51221,0.42511 -1.3659,0.26214 -2.0316,0.0122 -0.70019,-0.7371 -1.51593,-0.91214 -2.123,-0.46219 -0.37251,0.29973 -0.75365,0.28697 -1.15549,0.20005 -0.4208,-0.10037 -0.92956,-0.12521 -1.49524,0.18729 -0.526,0.47496 -1.23137,0.7747 -1.87465,0.7747 -0.41218,0 -0.74158,-0.12452 -0.90542,-0.36234 -0.005,0.0128 -0.0707,-0.0122 -0.17074,-0.0122 -0.23799,0 -0.73123,0.0999 -1.34692,0.76263 -0.0155,0.0122 -0.0328,0.025 -0.0552,0.025 l 0,0" />
    <path
       inkscape:connector-curvature="0"
       id="path50860"
       style="fill:none;fill-opacity:1;fill-rule:nonzero;stroke:none"
       d="m 307.58358,576.20276 c 0.0293,0.97475 -2.87493,1.22482 -3.05774,0.13745 -0.0914,-0.54981 1.45213,-1.51249 3.05774,-0.13745 l 0,0" />
    <path
       inkscape:connector-curvature="0"
       id="path50862"
       style="fill:#0e0f0e;fill-opacity:1;fill-rule:nonzero;stroke:none"
       d="m 305.87276,575.55258 c -0.57602,0 -0.9882,0.25007 -1.16756,0.4622 -0.0931,0.11313 -0.13624,0.22506 -0.12072,0.31267 0.0828,0.48772 0.77435,0.66277 1.34347,0.66277 0.60879,0 1.19343,-0.17505 1.4504,-0.44996 0.10003,-0.10037 0.14832,-0.21281 0.14487,-0.3375 -0.64673,-0.5248 -1.25724,-0.65018 -1.65046,-0.65018 l 0,0 z m 0.0552,1.55025 c -0.645,0 -1.36762,-0.18729 -1.46074,-0.75055 -0.0224,-0.13745 0.031,-0.2749 0.14831,-0.41218 0.19316,-0.23713 0.63983,-0.49997 1.25724,-0.49997 0.41564,0 1.05374,0.12469 1.74876,0.72486 0.0259,0.18729 -0.0345,0.33751 -0.15694,0.46289 -0.28456,0.28766 -0.88645,0.47495 -1.53663,0.47495 l 0,0" />
    <path
       inkscape:connector-curvature="0"
       id="path50864"
       style="fill:#0e0f0e;fill-opacity:1;fill-rule:nonzero;stroke:none"
       d="m 311.46568,572.2772 c -0.0104,0 -0.0207,0 -0.031,0 -0.0276,-0.0241 -0.0379,-0.0619 -0.019,-0.0869 0.26042,-0.43787 0.44495,-2.65021 0.4484,-2.67504 0,-0.0378 0.031,-0.0498 0.0638,-0.0498 0.0328,0 0.0569,0.0248 0.0535,0.0619 -0.007,0.0876 -0.18971,2.26286 -0.46392,2.72575 -0.0121,0.0121 -0.031,0.0241 -0.0517,0.0241 l 0,0" />
    <path
       inkscape:connector-curvature="0"
       id="path50866"
       style="fill:#0e0f0e;fill-opacity:1;fill-rule:nonzero;stroke:none"
       d="m 309.93768,572.25305 c -0.009,0 -0.0172,0 -0.0259,-0.0129 -0.0397,-0.0128 -0.0586,-0.0498 -0.0448,-0.0874 0.25351,-0.68726 0.91749,-2.4624 0.93474,-2.52501 0.002,-0.0876 0.14831,-0.0626 0.14831,0.0121 0,0.0257 0,0.0257 -0.94164,2.56277 -0.0121,0.0248 -0.0414,0.0505 -0.0707,0.0505 l 0,0" />
    <path
       inkscape:connector-curvature="0"
       id="path50868"
       style="fill:#0e0f0e;fill-opacity:1;fill-rule:nonzero;stroke:none"
       d="m 310.36193,575.52774 c -0.40011,-0.73761 -0.97613,-1.13789 -1.25379,-1.31225 -0.0517,-0.0378 -0.0931,-0.0755 -0.12245,-0.0876 l 0.0724,-0.10038 c 0.0276,0.0248 0.069,0.0505 0.119,0.0876 0.28456,0.18713 0.8761,0.58741 1.29001,1.36279 l -0.1052,0.0498 0,0" />
    <path
       inkscape:connector-curvature="0"
       id="path50870"
       style="fill:#0e0f0e;fill-opacity:1;fill-rule:nonzero;stroke:none"
       d="m 307.88711,578.40233 -0.069,-0.0997 c 0.58119,-0.43719 -0.26559,-2.05005 -0.27422,-2.06281 l 0.10521,-0.0621 c 0.0379,0.0749 0.90197,1.72461 0.23799,2.22458 l 0,0" />
    <path
       inkscape:connector-curvature="0"
       id="path50872"
       style="fill:#0e0f0e;fill-opacity:1;fill-rule:nonzero;stroke:none"
       d="m 301.91305,583.96558 c -0.35009,-0.21299 -0.80367,-0.70071 -1.32622,-1.27535 -0.90198,-0.97475 -2.02642,-2.20026 -2.85251,-2.09989 l -0.0138,-0.11244 c 0.89852,-0.10037 1.98675,1.08737 2.95254,2.13697 0.49669,0.53756 0.96578,1.05029 1.30208,1.25034 l -0.0621,0.10037 0,0" />
    <path
       inkscape:connector-curvature="0"
       id="path50874"
       style="fill:#0e0f0e;fill-opacity:1;fill-rule:nonzero;stroke:none"
       d="m 307.29384,597.6904 c -0.31732,-0.56257 0.27077,-1.01252 0.27594,-1.01252 l 0.0707,0.0997 c -0.0207,0.0128 -0.50876,0.37527 -0.24144,0.86299 l -0.10521,0.0498 0,0" />
    <path
       inkscape:connector-curvature="0"
       id="path50876"
       style="fill:#0e0f0e;fill-opacity:1;fill-rule:nonzero;stroke:none"
       d="m 298.93292,597.9653 -0.11727,-0.0129 c 0.0655,-0.49979 -0.52428,-0.66225 -0.55015,-0.67501 l 0.031,-0.11244 c 0.009,0 0.71572,0.20005 0.63638,0.80039 l 0,0" />
    <path
       inkscape:connector-curvature="0"
       id="path50878"
       style="fill:#0e0f0e;fill-opacity:1;fill-rule:nonzero;stroke:none"
       d="m 297.14622,596.24 -0.0966,-0.0621 c 0.28628,-0.37528 -0.15177,-0.85006 -0.15522,-0.85006 l 0.0862,-0.0876 c 0.005,0.0121 0.51221,0.54963 0.16556,0.99976 l 0,0" />
    <path
       inkscape:connector-curvature="0"
       id="path50880"
       style="fill:#0e0f0e;fill-opacity:1;fill-rule:nonzero;stroke:none"
       d="m 297.61359,594.22772 -0.069,-0.0997 c 0.23972,-0.16315 0.36044,-0.32544 0.34837,-0.46289 -0.0121,-0.17522 -0.21385,-0.2749 -0.2173,-0.2749 l 0.0535,-0.11245 c 0.009,0.0121 0.26559,0.13745 0.28284,0.37528 0.0155,0.18729 -0.119,0.37441 -0.39839,0.57464 l 0,0" />
    <path
       inkscape:connector-curvature="0"
       id="path50882"
       style="fill:#0e0f0e;fill-opacity:1;fill-rule:nonzero;stroke:none"
       d="m 289.45445,597.74024 c -0.43805,-0.57533 0.14832,-1.0753 0.15522,-1.08737 l 0.0776,0.0997 c -0.0207,0.0128 -0.50704,0.43788 -0.1397,0.91284 l -0.0931,0.0748 0,0" />
    <path
       inkscape:connector-curvature="0"
       id="path50884"
       style="fill:#0e0f0e;fill-opacity:1;fill-rule:nonzero;stroke:none"
       d="m 280.8952,597.67763 -0.10692,-0.05 c 0.0862,-0.18712 0.0931,-0.33751 0.0241,-0.44995 -0.15349,-0.2499 -0.62259,-0.27491 -0.62603,-0.27491 l 0.005,-0.1252 c 0.0224,0 0.53808,0.0378 0.72261,0.3375 0.0914,0.15022 0.0862,0.33751 -0.019,0.56257 l 0,0" />
    <path
       inkscape:connector-curvature="0"
       id="path50886"
       style="fill:#0e0f0e;fill-opacity:1;fill-rule:nonzero;stroke:none"
       d="m 279.1361,595.98993 -0.031,-0.11245 c 0.16902,-0.0498 0.27939,-0.12469 0.32768,-0.23713 0.0914,-0.21282 -0.0483,-0.47496 -0.0483,-0.47496 l 0.10348,-0.0626 c 0.007,0.0121 0.16729,0.32474 0.0552,0.5874 -0.0638,0.15021 -0.20178,0.2499 -0.40701,0.29974 l 0,0" />
    <path
       inkscape:connector-curvature="0"
       id="path50888"
       style="fill:#0e0f0e;fill-opacity:1;fill-rule:nonzero;stroke:none"
       d="m 280.40714,593.8652 -0.0173,-0.1252 c 0.15522,-0.0122 0.25697,-0.0748 0.30698,-0.16246 0.10348,-0.20006 -0.0414,-0.49979 -0.0431,-0.49979 l 0.10692,-0.0498 c 0.009,0.0121 0.17419,0.34957 0.0414,0.59947 -0.0673,0.12538 -0.20178,0.21299 -0.39493,0.23782 l 0,0" />
    <path
       inkscape:connector-curvature="0"
       id="path50890"
       style="fill:#0e0f0e;fill-opacity:1;fill-rule:nonzero;stroke:none"
       d="m 280.01737,596.74048 -0.0776,-0.10037 c 0.0431,-0.025 1.02269,-0.86231 1.51076,-0.38735 0.35354,0.3375 1.80049,-0.16246 2.32995,-0.38735 l 0.0448,0.0997 c -0.0811,0.0378 -1.98158,0.8373 -2.45757,0.37528 -0.41391,-0.40028 -1.34003,0.38735 -1.35038,0.40011 l 0,0" />
    <path
       inkscape:connector-curvature="0"
       id="path50892"
       style="fill:#0e0f0e;fill-opacity:1;fill-rule:nonzero;stroke:none"
       d="m 282.89403,595.56498 -0.0569,-0.11261 1.60388,-0.8373 0.0552,0.10037 -1.60216,0.84954 0,0" />
    <path
       inkscape:connector-curvature="0"
       id="path50894"
       style="fill:#0e0f0e;fill-opacity:1;fill-rule:nonzero;stroke:none"
       d="m 287.73674,594.76528 c -0.57085,0 -1.03304,-0.48772 -1.05374,-0.51273 l 0.0862,-0.0876 c 0.005,0.0129 0.51394,0.5505 1.07099,0.47496 0.3363,-0.0371 0.63293,-0.28698 0.88127,-0.72485 l 0.10348,0.0498 c -0.26732,0.47565 -0.59327,0.75055 -0.96923,0.78763 -0.0414,0.0128 -0.0793,0.0128 -0.119,0.0128 l 0,0" />
    <path
       inkscape:connector-curvature="0"
       id="path50896"
       style="fill:#0e0f0e;fill-opacity:1;fill-rule:nonzero;stroke:none"
       d="m 288.66975,594.01542 c -0.2104,0 -0.35182,-0.11245 -0.54842,-0.30043 -0.0811,-0.0748 -0.17074,-0.16229 -0.28629,-0.26214 l 0.0742,-0.0874 c 0.119,0.0874 0.21213,0.18729 0.29491,0.26197 0.4484,0.42512 0.51738,0.48772 2.62486,-0.93698 l 0.0655,0.0997 c -1.3245,0.8999 -1.8712,1.22534 -2.22475,1.22534 l 0,0" />
    <path
       inkscape:connector-curvature="0"
       id="path50898"
       style="fill:#0e0f0e;fill-opacity:1;fill-rule:nonzero;stroke:none"
       d="m 289.14402,592.32788 c 0.75193,0.0869 1.50904,0.20006 1.72979,0.31268 l 0.0742,-0.0755 c 0.28973,-0.26214 0.97268,-0.91215 0.82264,-1.35003 -0.088,-0.24989 -0.45358,-0.41235 -1.08651,-0.47496 -0.20868,1.02529 -0.97785,1.4504 -1.54008,1.58785 l 0,0 z m 1.72634,0.48704 -0.0379,-0.0626 c -0.088,-0.0748 -0.9951,-0.22437 -2.16267,-0.34958 l -0.0655,-0.0122 -0.19143,-0.13797 0.23972,0.0626 0.019,-0.025 0,0.025 0.003,-0.0378 0,0 c 0.0241,0 1.57457,-0.0371 1.95743,-1.59923 0.75711,0.0121 1.14515,0.19937 1.25207,0.49979 0.17419,0.51204 -0.5467,1.18705 -0.85368,1.48748 l -0.16039,0.14953 0,0" />
    <path
       inkscape:connector-curvature="0"
       id="path50900"
       style="fill:#0e0f0e;fill-opacity:1;fill-rule:nonzero;stroke:none"
       d="m 263.48869,597.92753 -0.0966,-0.0749 c 0.12245,-0.16228 0.16211,-0.29974 0.11555,-0.41218 -0.0673,-0.16315 -0.31388,-0.22506 -0.40356,-0.23783 l 0.0172,-0.12468 c 0.0173,0 0.38977,0.0619 0.49669,0.31249 0.0621,0.1497 0.019,0.32475 -0.12934,0.53705 l 0,0" />
    <path
       inkscape:connector-curvature="0"
       id="path50902"
       style="fill:#0e0f0e;fill-opacity:1;fill-rule:nonzero;stroke:none"
       d="m 262.72468,596.52766 -0.0707,-0.0876 c 0.19489,-0.14952 0.29319,-0.28697 0.28802,-0.43719 -0.007,-0.18729 -0.20696,-0.31267 -0.20696,-0.31267 l 0.0638,-0.0997 c 0.0104,0 0.25352,0.16228 0.26214,0.41235 0.007,0.18729 -0.10692,0.36234 -0.3363,0.5248 l 0,0" />
    <path
       inkscape:connector-curvature="0"
       id="path50904"
       style="fill:#0e0f0e;fill-opacity:1;fill-rule:nonzero;stroke:none"
       d="m 263.19895,594.70268 c -0.0552,0 -0.11037,0 -0.16901,-0.0122 l 0.0121,-0.11244 c 0.27594,0.0248 0.4622,-0.0128 0.54843,-0.13745 0.11555,-0.15022 0.0259,-0.37528 0.0259,-0.38804 l 0.11037,-0.0371 c 0.005,0.0121 0.11555,0.29974 -0.0397,0.49996 -0.0949,0.12452 -0.25869,0.1873 -0.48807,0.1873 l 0,0" />
    <path
       inkscape:connector-curvature="0"
       id="path50906"
       style="fill:#0e0f0e;fill-opacity:1;fill-rule:nonzero;stroke:none"
       d="m 263.13169,596.66494 -0.0759,-0.0874 c 0.0466,-0.0498 1.14859,-0.93715 1.75566,-0.34975 0.51393,0.17522 0.81746,0.13745 0.81919,0.13745 l 0.0155,0.11262 c -0.0155,0.0121 -0.33113,0.0498 -0.89508,-0.15039 -0.55532,-0.5248 -1.60906,0.32544 -1.61941,0.33751 l 0,0" />
    <path
       inkscape:connector-curvature="0"
       id="path50908"
       style="fill:#0e0f0e;fill-opacity:1;fill-rule:nonzero;stroke:none"
       d="m 272.87748,597.57778 c -0.28456,-0.33751 0.005,-0.96268 0.0172,-0.98752 l 0.0862,-0.0876 0.0431,0.10038 c -0.0293,0.0371 -0.28973,0.61241 -0.0552,0.89938 l -0.0914,0.0754 0,0" />
    <path
       inkscape:connector-curvature="0"
       id="path50910"
       style="fill:#0e0f0e;fill-opacity:1;fill-rule:nonzero;stroke:none"
       d="m 264.73731,595.46513 c -0.3294,0.0129 -0.56223,-0.0626 -0.7709,-0.13728 -0.21386,-0.0755 -0.41736,-0.15039 -0.77263,-0.13745 l -0.007,-0.11262 c 0.37597,-0.0248 0.60361,0.0628 0.82092,0.13745 0.20695,0.0748 0.42253,0.13745 0.72606,0.13745 0.51221,0 1.02097,-0.15021 1.60561,-0.3375 0.21213,-0.0626 0.4346,-0.12469 0.67088,-0.1873 l 0.0328,0.11245 c -0.23627,0.0621 -0.45874,0.12469 -0.66915,0.20023 -0.59326,0.17435 -1.11237,0.32457 -1.63665,0.32457 l 0,0" />
    <path
       inkscape:connector-curvature="0"
       id="path50912"
       style="fill:#0e0f0e;fill-opacity:1;fill-rule:nonzero;stroke:none"
       d="m 258.66322,574.36501 c -0.12072,0 -0.20005,-0.025 -0.20178,-0.025 l 0.0517,-0.11244 c 0.0173,0.0128 0.40356,0.17522 0.7916,-0.42512 l 0.10003,0.0626 c -0.27077,0.42511 -0.55705,0.49996 -0.74159,0.49996 l 0,0" />
    <path
       inkscape:connector-curvature="0"
       id="path50914"
       style="fill:#0e0f0e;fill-opacity:1;fill-rule:nonzero;stroke:none"
       d="m 258.87362,583.37749 -0.11727,-0.025 c 0.10348,-0.48703 -0.54843,-0.68708 -0.5536,-0.68708 l 0.0328,-0.11262 c 0.26559,0.0748 0.73813,0.34975 0.6381,0.82471 l 0,0" />
    <path
       inkscape:connector-curvature="0"
       id="path50916"
       style="fill:#0e0f0e;fill-opacity:1;fill-rule:nonzero;stroke:none"
       d="m 261.13287,573.27764 c -0.0431,0 -0.0811,0 -0.11383,-0.0248 -0.0828,-0.0378 -0.1052,-0.12538 -0.1052,-0.16246 l 0.119,0 c 0,0 0.003,0.0371 0.0414,0.0621 0.0517,0.0255 0.22765,0.0376 0.75021,-0.34976 l 0.0707,0.0997 c -0.3432,0.25007 -0.595,0.37527 -0.76228,0.37527 l 0,0" />
    <path
       inkscape:connector-curvature="0"
       id="path50918"
       style="fill:#0e0f0e;fill-opacity:1;fill-rule:nonzero;stroke:none"
       d="m 262.04519,577.37774 c -0.84679,-0.43737 -0.19144,-2.22527 -0.16384,-2.31288 l 0.1121,0.0498 c -0.007,0.0129 -0.64673,1.76307 0.10692,2.15042 l -0.0552,0.11262 0,0" />
    <path
       inkscape:connector-curvature="0"
       id="path50920"
       style="fill:#0e0f0e;fill-opacity:1;fill-rule:nonzero;stroke:none"
       d="m 263.28001,575.10263 c -0.0276,0 -0.0569,0 -0.0845,-0.0128 -0.30698,-0.0619 -0.49496,-0.4622 -0.50186,-0.47496 l 0.10693,-0.0498 c 0.002,0 0.17073,0.36234 0.4208,0.41235 0.10175,0.0255 0.20696,-0.0122 0.31388,-0.11262 l 0.0793,0.10038 c -0.10865,0.0876 -0.22075,0.13745 -0.33457,0.13745 l 0,0" />
    <path
       inkscape:connector-curvature="0"
       id="path50922"
       style="fill:#0e0f0e;fill-opacity:1;fill-rule:nonzero;stroke:none"
       d="m 261.96585,569.8655 -0.60016,-0.97544 0.57085,-0.20006 0.0397,0.11245 -0.42943,0.15021 0.51911,0.85023 -0.10003,0.0626 0,0" />
    <path
       inkscape:connector-curvature="0"
       id="path50924"
       style="fill:#0e0f0e;fill-opacity:1;fill-rule:nonzero;stroke:none"
       d="m 267.77262,567.0023 -0.0673,-0.0997 c 0.003,0 0.39494,-0.2749 0.3777,-0.61241 -0.0172,-0.36234 -0.54153,-1.02528 -0.54498,-1.02528 l 0.0931,-0.0747 c 0.0224,0.0248 0.55187,0.68709 0.57084,1.0872 0.0207,0.41236 -0.41045,0.71278 -0.42943,0.72486 l 0,0" />
    <path
       inkscape:connector-curvature="0"
       id="path50926"
       style="fill:#0e0f0e;fill-opacity:1;fill-rule:nonzero;stroke:none"
       d="m 266.45157,567.22736 -0.0448,-0.11245 c 0.27766,-0.11261 0.57775,-0.29991 0.57775,-0.38735 0.0397,-0.28766 0.15694,-0.70002 0.15694,-0.70002 l 0.11382,0.0378 c 0,0 -0.11382,0.40011 -0.15176,0.67502 0.002,0.20005 -0.49842,0.42511 -0.65191,0.48703 l 0,0" />
    <path
       inkscape:connector-curvature="0"
       id="path50928"
       style="fill:#0e0f0e;fill-opacity:1;fill-rule:nonzero;stroke:none"
       d="m 274.25889,564.94018 -0.088,-0.0874 c 0.26386,-0.2749 0.35527,-0.73779 0.35354,-0.80039 l 0.0983,-0.0498 c 0.0707,0.0754 -0.0931,0.65001 -0.3639,0.93768 l 0,0" />
    <path
       inkscape:connector-curvature="0"
       id="path50930"
       style="fill:#0e0f0e;fill-opacity:1;fill-rule:nonzero;stroke:none"
       d="m 272.25662,565.80248 c -0.0328,0 -1.06409,-0.24989 -1.61252,-0.28766 -0.1897,-0.1873 -0.91059,-0.0747 -1.32967,0.0378 l -0.0293,-0.11245 c 0.119,-0.0378 1.15894,-0.29991 1.40901,-0.025 0.51738,0.0122 1.52628,0.26284 1.56767,0.27491 -0.0104,-0.0121 0.97096,-0.13745 1.28139,-0.36252 l 0.0707,0.0999 c -0.3363,0.23765 -1.31588,0.3751 -1.35727,0.3751 l 0,0" />
    <path
       inkscape:connector-curvature="0"
       id="path50932"
       style="fill:#0e0f0e;fill-opacity:1;fill-rule:nonzero;stroke:none"
       d="m 270.78207,566.39006 c -0.13452,0 -0.25179,-0.0378 -0.34147,-0.0748 -0.41218,-0.18729 -0.67777,-0.67501 -0.60016,-0.93784 l 0.11382,0.0378 c -0.0569,0.1873 0.16556,0.62518 0.53463,0.78763 0.4277,0.1873 0.8692,-0.0498 1.24517,-0.66294 l 0.10348,0.0626 c -0.38114,0.62517 -0.76228,0.78763 -1.05547,0.78763 l 0,0" />
    <path
       inkscape:connector-curvature="0"
       id="path50934"
       style="fill:#0e0f0e;fill-opacity:1;fill-rule:nonzero;stroke:none"
       d="m 270.24399,565.35253 1.04167,0.20006 c 0,0 -0.73124,0.97475 -1.04167,-0.20006 l 0,0" />
    <path
       inkscape:connector-curvature="0"
       id="path50936"
       style="fill:#0e0f0e;fill-opacity:1;fill-rule:nonzero;stroke:none"
       d="m 270.3285,565.42738 c 0.0914,0.30043 0.21903,0.44995 0.37942,0.44995 0.17073,0 0.35871,-0.17453 0.46737,-0.28697 l -0.84679,-0.16298 0,0 z m 0.37942,0.56309 c -0.23628,0 -0.41219,-0.20006 -0.52256,-0.6131 -0.003,-0.0248 0.002,-0.0498 0.0155,-0.0626 0.0138,-0.0121 0.0345,-0.0248 0.0535,-0.0121 l 1.04167,0.18729 c 0.0207,0 0.0379,0.0128 0.0448,0.0378 0.009,0.0248 0.003,0.0369 -0.007,0.0626 -0.0121,0.0121 -0.30871,0.40011 -0.62603,0.40011 l 0,0" />
    <path
       inkscape:connector-curvature="0"
       id="path50938"
       style="fill:#0e0f0e;fill-opacity:1;fill-rule:nonzero;stroke:none"
       d="m 273.02062,570.96494 c -0.0293,0 -0.0552,-0.0121 -0.0673,-0.0371 l -1.36934,-2.62538 c -0.0172,-0.0376 -0.003,-0.0874 0.0328,-0.0997 0.0362,-0.0248 0.0811,-0.0128 0.10002,0.025 l 1.31243,2.51208 0.58292,-0.87438 c 0.0155,-0.0257 0.0345,-0.0378 0.0655,-0.0378 0.0276,0 0.0517,0.025 0.0638,0.0378 l 0.28456,0.56188 0.48979,-0.87456 c 0.0104,-0.0128 0.0276,-0.0255 0.0483,-0.0255 0.019,0 0.0397,0 0.0569,0.0128 l 0.79332,0.49997 -0.30698,-0.99976 c -0.007,-0.025 -0.003,-0.0498 0.0104,-0.0628 0.0121,-0.0248 0.031,-0.0376 0.0552,-0.0376 l 0.70019,-0.0498 c -0.0914,-0.1497 -0.33113,-0.47496 -0.84161,-0.54981 -0.0293,0 -0.0535,-0.0248 -0.0604,-0.0498 -0.007,-0.0378 0.002,-0.0626 0.0259,-0.0876 0.15349,-0.11245 0.61396,-0.42512 0.79677,-0.55033 -0.12762,-0.11244 -0.44495,-0.36251 -0.86921,-0.37458 -0.0276,0 -0.0552,-0.0128 -0.0655,-0.0378 -0.0121,-0.0376 -0.005,-0.0626 0.0121,-0.0876 0.14314,-0.15021 0.32423,-0.47479 0.39839,-0.62517 -0.019,0 -0.0431,0 -0.069,-0.0121 -0.26042,-0.0498 -0.43115,-0.10037 -0.45012,-0.10037 -0.0379,-0.0121 -0.0604,-0.0626 -0.0483,-0.0997 0.0104,-0.0378 0.05,-0.0626 0.0897,-0.0498 0,0 0.21902,0.0498 0.39148,0.0869 0.47255,0.0876 1.29864,0.15021 1.98158,-0.2499 0.0345,-0.025 0.0811,-0.0122 0.10176,0.0255 0.0207,0.0371 0.009,0.0869 -0.0259,0.0997 -0.62949,0.36251 -1.34865,0.37528 -1.85569,0.31267 -0.0414,0.17505 -0.20178,0.43719 -0.3156,0.59948 0.54325,0.0755 0.883,0.46288 0.89852,0.47565 0.0121,0.025 0.019,0.0498 0.0172,0.0619 -0.005,0.0257 -0.0155,0.0378 -0.0328,0.0498 0,0 -0.46737,0.31267 -0.73296,0.50065 0.63466,0.17505 0.82954,0.68709 0.83816,0.7121 0.009,0.0128 0.005,0.0376 -0.007,0.0626 -0.0138,0.025 -0.0345,0.025 -0.0569,0.0378 l -0.71744,0.0498 0.33803,1.10013 c 0.0104,0.0248 0,0.0626 -0.0259,0.0876 -0.0242,0.0121 -0.0569,0.0121 -0.0845,0 l -0.8968,-0.57533 -0.52083,0.91284 c -0.0121,0.0248 -0.0466,0.0626 -0.0655,0.0369 -0.0276,0 -0.0517,-0.0121 -0.0655,-0.0369 l -0.28973,-0.56257 -0.58292,0.87507 c -0.0155,0.025 -0.0379,0.0371 -0.0621,0.0371 l 0,0" />
    <path
       inkscape:connector-curvature="0"
       id="path50940"
       style="fill:#0e0f0e;fill-opacity:1;fill-rule:nonzero;stroke:none"
       d="m 267.17936,570.15247 -0.002,-0.12469 2.10231,-0.0248 c 0.23282,-0.0128 0.52945,-0.13745 0.87265,-0.27559 0.60017,-0.2499 1.3452,-0.56257 2.14542,-0.37459 l -0.0259,0.11262 c -0.76745,-0.17522 -1.49007,0.12451 -2.07299,0.37441 -0.35354,0.15039 -0.66052,0.27559 -0.91749,0.27559 l -2.1023,0.0371 0,0" />
    <path
       inkscape:connector-curvature="0"
       id="path50942"
       style="fill:#0e0f0e;fill-opacity:1;fill-rule:nonzero;stroke:none"
       d="m 268.52801,570.10263 -0.17074,-0.31267 -0.3294,0.2749 -0.238,0 -0.14142,-0.28697 c -0.0414,0.11244 -0.0949,0.24989 -0.10175,0.2749 l -0.119,-0.0128 c 0,-0.0122 0,-0.0371 0.16039,-0.42512 0.009,-0.025 0.031,-0.0371 0.0535,-0.0371 l 0,0 c 0.0242,0 0.0466,0.0121 0.0552,0.0371 l 0.15349,0.36234 0.14487,-0.0121 0.34147,-0.3125 c 0.0121,-0.0129 0.0328,-0.025 0.0517,-0.0129 0.0172,0 0.0345,0.0129 0.0397,0.0257 l 0.15521,0.34958 0.119,-0.0378 0.17764,-0.42443 c 0.0103,-0.0255 0.0328,-0.0505 0.0552,-0.0376 0.0224,0 0.0431,0.0121 0.0517,0.0376 l 0.16729,0.36252 0.36389,-0.62517 c 0.0104,-0.0128 0.0276,-0.025 0.0483,-0.025 0.0207,0 0.0379,0.0122 0.05,0.025 l 0.34664,0.42511 0.1259,-0.51272 c 0.007,-0.0248 0.0224,-0.0378 0.0431,-0.0498 0.019,0 0.0414,0 0.0586,0.0121 l 0.33803,0.3375 0.16038,-0.44995 c 0.005,-0.0121 0.0224,-0.0248 0.0414,-0.0371 0.0172,0 0.0379,0 0.0535,0.0122 l 0.3432,0.30043 0.16039,-0.38804 c 0.009,-0.025 0.0362,-0.025 0.0552,-0.0371 0.0224,0 0.0431,0.0121 0.0535,0.0248 l 0.21212,0.42512 -0.1052,0.0628 -0.15521,-0.31268 -0.14315,0.33751 c -0.007,0.025 -0.0224,0.0371 -0.0414,0.0371 -0.0207,0.0128 -0.0379,0 -0.0517,-0.0121 l -0.33974,-0.28767 -0.16212,0.46203 c -0.007,0.0129 -0.0241,0.0257 -0.0431,0.0378 -0.0207,0 -0.0397,0 -0.0552,-0.0248 l -0.33113,-0.32474 -0.12934,0.53756 c -0.005,0.0121 -0.0224,0.0371 -0.0431,0.0371 -0.0224,0 -0.0466,0 -0.0604,-0.0122 l -0.36907,-0.46271 -0.38114,0.63724 c -0.0103,0.025 -0.0328,0.0378 -0.0535,0.0378 -0.0224,0 -0.0431,-0.0128 -0.0517,-0.0378 l -0.16039,-0.34958 -0.17591,0.34958 -0.22764,0.0378 0,0" />
    <path
       inkscape:connector-curvature="0"
       id="path50944"
       style="fill:#0e0f0e;fill-opacity:1;fill-rule:nonzero;stroke:none"
       d="m 276.25599,565.90285 c -0.0328,0 -0.77952,-0.0376 -1.00027,-0.31249 -0.0552,-0.0626 -0.0742,-0.13746 -0.0586,-0.22507 0.0811,-0.51255 1.13307,-0.86299 1.17619,-0.87507 0,0 1.38486,-0.90007 1.58837,-1.18774 l 0.10002,0.0628 c -0.2173,0.3125 -1.57974,1.19981 -1.63665,1.23741 -0.30009,0.0997 -1.05202,0.41235 -1.11238,0.78763 -0.009,0.0498 0.005,0.0876 0.0362,0.12452 0.15521,0.20022 0.70881,0.26283 0.91059,0.26283 l -0.003,0.1252 0,0" />
    <path
       inkscape:connector-curvature="0"
       id="path50946"
       style="fill:#0e0f0e;fill-opacity:1;fill-rule:nonzero;stroke:none"
       d="m 276.5509,564.05235 -0.0845,-0.0869 c 0.0138,-0.0128 0.37769,-0.37528 0.98475,-0.18799 l -0.0362,0.11245 c -0.53463,-0.16229 -0.85196,0.15038 -0.86403,0.16246 l 0,0" />
    <path
       inkscape:connector-curvature="0"
       id="path50948"
       style="fill:#0e0f0e;fill-opacity:1;fill-rule:nonzero;stroke:none"
       d="m 270.38541,588.53977 c -0.58981,-0.19936 -2.01607,-1.39986 -1.74186,-2.93718 -0.93819,-1.31226 -0.81401,-2.00021 -0.80884,-2.02504 l 0.11727,0.0248 c 0,0 -0.11382,0.67501 0.7985,1.9752 -0.25007,1.50041 1.11065,2.66246 1.67287,2.85044 l -0.0379,0.11175 0,0" />
    <path
       inkscape:connector-curvature="0"
       id="path50950"
       style="fill:#0e0f0e;fill-opacity:1;fill-rule:nonzero;stroke:none"
       d="m 268.69874,585.6902 c -3.78035,-0.27491 -5.65673,-2.46241 -5.94991,-3.78743 -0.11383,-0.49996 -0.007,-0.90007 0.29146,-1.06236 l 0.0586,0.0997 c -0.25006,0.15021 -0.33629,0.48772 -0.23454,0.93767 0.28801,1.28742 2.12817,3.42508 5.84298,3.69981 l -0.009,0.11262 0,0" />
    <path
       inkscape:connector-curvature="0"
       id="path50952"
       style="fill:#0e0f0e;fill-opacity:1;fill-rule:nonzero;stroke:none"
       d="m 267.21385,585.42737 -0.1052,-0.0498 c 0.27421,-0.49979 -0.0638,-1.57508 -0.0655,-1.58716 l 0.1121,-0.0378 c 0.0155,0.0498 0.35527,1.1379 0.0586,1.67478 l 0,0" />
    <path
       inkscape:connector-curvature="0"
       id="path50954"
       style="fill:#0e0f0e;fill-opacity:1;fill-rule:nonzero;stroke:none"
       d="m 265.19433,584.59007 -0.11555,-0.0371 c 0.0966,-0.38804 0.50186,-1.1755 0.52083,-1.20051 l 0.1052,0.0498 c -0.003,0 -0.41735,0.81315 -0.51048,1.18774 l 0,0" />
    <path
       inkscape:connector-curvature="0"
       id="path50956"
       style="fill:#0e0f0e;fill-opacity:1;fill-rule:nonzero;stroke:none"
       d="m 263.46799,583.27764 -0.0552,-0.11245 c 0.3639,-0.17522 0.66915,-0.82523 0.6726,-0.82523 l 0.10865,0.0505 c -0.0138,0.0248 -0.32595,0.68708 -0.72606,0.88714 l 0,0" />
    <path
       inkscape:connector-curvature="0"
       id="path50958"
       style="fill:#0e0f0e;fill-opacity:1;fill-rule:nonzero;stroke:none"
       d="m 281.98171,577.3905 0,-0.12538 c 0.0138,0 1.32967,-0.0747 2.6421,-3.63721 0.9106,-3.43767 6.012,-7.0628 9.38879,-9.46312 1.46937,-1.03735 2.63176,-1.86206 2.69385,-2.17456 l 0.11727,0.0248 c -0.0724,0.35044 -1.13479,1.11238 -2.74213,2.2501 -3.36127,2.38756 -8.4437,5.99976 -9.34395,9.39983 -1.34865,3.66273 -2.6973,3.71275 -2.75593,3.72551 l 0,0" />
    <path
       inkscape:connector-curvature="0"
       id="path50960"
       style="fill:#0e0f0e;fill-opacity:1;fill-rule:nonzero;stroke:none"
       d="m 285.82242,571.47766 c -0.0207,0 -0.0414,-0.0122 -0.0517,-0.0378 -0.0155,-0.025 -0.005,-0.0621 0.0241,-0.0748 1.40383,-0.7747 4.87548,-2.12473 8.2333,-3.43767 1.38658,-0.53705 2.75593,-1.07461 3.94763,-1.54957 0.031,-0.0128 0.0655,0 0.0776,0.0371 0.0121,0.025 -0.002,0.0626 -0.0328,0.0755 -1.19343,0.47496 -2.56105,1.01252 -3.94936,1.54939 -3.35265,1.30019 -6.82084,2.65021 -8.2195,3.4256 -0.009,0.0122 -0.019,0.0122 -0.0293,0.0122 l 0,0" />
    <path
       inkscape:connector-curvature="0"
       id="path50962"
       style="fill:#0e0f0e;fill-opacity:1;fill-rule:nonzero;stroke:none"
       d="m 280.46405,586.54026 c -0.0172,0 -0.0328,-0.0128 -0.0448,-0.0248 -0.0724,-0.0876 -0.0897,-0.27559 -0.069,-0.52549 -0.17763,-2.0002 0.038,-5.2749 0.4829,-6.19981 -0.98648,0.58741 -2.91115,2.96272 -3.66653,4.43743 -0.0914,0.17522 -0.15694,0.32544 -0.20006,0.43788 -0.0276,0.18729 -0.0448,0.36252 -0.0621,0.53705 -0.002,0.0248 -0.0224,0.0505 -0.0483,0.0626 -0.0241,0 -0.0535,-0.0121 -0.0655,-0.0378 -0.0604,-0.12469 -0.0414,-0.31181 0.0586,-0.5874 0.14314,-0.92491 0.52083,-2.01228 2.17819,-5.2123 -2.19716,0.2123 -6.70702,2.99996 -7.50897,4.05025 -0.0172,0.0248 -0.05,0.0248 -0.0759,0.0248 -0.0259,-0.0248 -0.0379,-0.0498 -0.0293,-0.0747 0.64846,-1.91259 4.64266,-5.03776 6.31898,-5.25006 l 0.0155,0.11244 c -1.56077,0.19954 -5.16004,2.9622 -6.08788,4.84996 1.25724,-1.23759 5.39459,-3.71275 7.46757,-3.8502 0.007,0 0.0397,0.0122 0.0535,0.0378 0.0121,0.0121 0.0121,0.0371 0.002,0.0498 -1.40383,2.7123 -1.90397,3.92487 -2.11437,4.78718 0.76227,-1.48748 2.90942,-4.18753 3.91142,-4.57488 0.0724,-0.0628 0.14142,-0.0628 0.18453,-0.0498 0.0276,0.0128 0.0448,0.0376 0.0414,0.0626 -0.002,0.0248 -0.0224,0.0498 -0.05,0.0498 -0.0121,0 -0.0242,0.0128 -0.0379,0.0128 -0.49842,0.43718 -0.80367,3.53683 -0.68812,5.77486 0.15176,-0.78763 0.46737,-1.80015 0.70364,-2.51293 0.55532,-1.67477 1.48144,-4.04939 1.77117,-4.12493 0.2587,0.22506 2.00745,5.3375 2.21613,6.55025 0.003,-0.0123 0.007,-0.025 0.0104,-0.0378 0.26387,-1.16204 -0.70192,-6.68684 -1.17101,-7.33702 -0.0121,-0.025 0.0104,-0.0626 0.0207,-0.0755 0.0121,-0.0248 0.0673,-0.0369 0.0811,-0.0369 0.63466,0.0369 4.94964,4.71233 5.90507,5.97474 -0.31905,-1.35002 -2.93356,-5.44994 -4.8703,-6.61285 -0.0155,-0.0121 -0.0259,-0.0248 -0.0276,-0.0498 -0.003,-0.0121 0.002,-0.0376 0.0155,-0.0498 0.38458,-0.37511 8.47991,2.9872 10.23729,4.21254 -0.98475,-1.14998 -7.26924,-5.28767 -9.17321,-5.74986 -0.0276,0 -0.0466,-0.0255 -0.0466,-0.0505 0,-0.0248 0.0207,-0.0498 0.0483,-0.0619 2.53518,-0.55049 10.73398,0.61241 13.96936,1.31226 -1.73669,-1.30018 -9.69233,-2.66228 -13.68308,-2.52483 -0.0224,0.0121 -0.0431,-0.0129 -0.0552,-0.0378 -0.0103,-0.0121 -0.007,-0.0498 0.009,-0.0626 0.58637,-0.68726 9.66473,-2.93736 17.2375,-4.69957 -2.68867,0.29973 -13.41921,2.11265 -16.2493,2.97495 -0.0224,0 -0.0483,-0.0129 -0.0638,-0.025 -0.0155,-0.0248 -0.0172,-0.0498 -0.003,-0.0626 0.27249,-0.47496 17.10471,-8.35023 19.0242,-9.23754 l 0.05,0.0997 c -4.78752,2.23803 -16.69769,7.85044 -18.69307,9.00041 3.62858,-0.97475 16.22515,-3.11241 16.59767,-2.88734 0.0207,0.0121 0.0345,0.0371 0.0293,0.0619 -0.003,0.0257 -0.0207,0.0378 -0.0448,0.0505 l -0.48979,0.11244 c -10.08898,2.34979 -16.12858,3.96196 -17.16852,4.58713 4.2184,-0.0997 12.47412,1.37503 13.76413,2.72506 0.0172,0.0128 0.0207,0.0378 0.009,0.0626 -0.0138,0.025 -0.0397,0.0378 -0.0655,0.025 -2.96288,-0.66225 -11.06511,-1.83792 -13.90382,-1.40004 2.24372,0.74986 9.15251,5.25006 9.15251,6.01269 0,0.0248 -0.0138,0.0378 -0.0362,0.0498 -0.0242,0.0128 -0.0483,0.0128 -0.0655,-0.0121 -1.1003,-1.05029 -9.00592,-4.23824 -10.17176,-4.38776 2.01779,1.32519 4.82201,5.70001 4.82201,6.84999 0,0.0378 -0.0172,0.0498 -0.0431,0.0626 -0.0259,0 -0.0535,0 -0.0673,-0.0248 -0.6933,-1.10013 -5.5774,-6.20068 -5.96199,-6.12514 0.50187,0.61241 1.47627,6.14997 1.20033,7.36254 -0.031,0.13746 -0.0759,0.2123 -0.13624,0.25007 -0.019,0 -0.0414,0 -0.0604,0 -0.0172,-0.0129 -0.0293,-0.0378 -0.0293,-0.0505 0,-0.7997 -1.99883,-6.44988 -2.14714,-6.63717 -0.18971,0.12469 -1.51594,3.37455 -2.14542,5.77487 -0.16729,0.62517 -0.238,1.03735 -0.26214,1.31225 0.0155,0.16298 0.0345,0.32544 0.0569,0.47565 0.005,0.0241 -0.0104,0.0619 -0.0362,0.0619 -0.007,0.0128 -0.0138,0.0128 -0.0241,0.0128 l 0,0" />
    <path
       inkscape:connector-curvature="0"
       id="path50964"
       style="fill:#0e0f0e;fill-opacity:1;fill-rule:nonzero;stroke:none"
       d="m 272.62396,570.203 -1.12272,-0.0255 0.002,-0.11262 1.12272,0.0128 -0.002,0.12538 0,0" />
    <path
       inkscape:connector-curvature="0"
       id="path50966"
       style="fill:#0e0f0e;fill-opacity:1;fill-rule:nonzero;stroke:none"
       d="m 267.29491,568.1652 c -0.16039,0 -0.24317,-0.0378 -0.25352,-0.0378 l 0.0414,-0.11261 c 0.009,0 0.75366,0.25006 2.26442,-0.93699 l 0.0742,0.0876 c -1.07788,0.84938 -1.7798,0.99976 -2.12644,0.99976 l 0,0" />
    <path
       inkscape:connector-curvature="0"
       id="path50968"
       style="fill:#0e0f0e;fill-opacity:1;fill-rule:nonzero;stroke:none"
       d="m 272.06001,582.3648 c -0.52428,-0.68709 0.38114,-9.59988 1.99538,-11.84981 l 0.10865,0.0498 c -0.50359,3.63772 0.92612,7.48792 1.62286,8.25037 0.0897,0.0999 0.13279,0.11262 0.14142,0.11262 l 0.002,0 0.005,0.11244 c -0.0466,0 -0.1466,-0.0378 -0.238,-0.13745 -0.68985,-0.76262 -2.09368,-4.50003 -1.68322,-8.10016 -1.60217,2.65021 -2.18854,11.05028 -1.85913,11.48747 l -0.0949,0.0747 0,0" />
    <path
       inkscape:connector-curvature="0"
       id="path50970"
       style="fill:#0e0f0e;fill-opacity:1;fill-rule:nonzero;stroke:none"
       d="m 273.31036,571.76533 c -0.81575,0 -1.47627,-0.71278 -1.50904,-0.75055 l 0.0897,-0.0748 c 0.007,0.0129 0.77952,0.83747 1.62458,0.68795 l 0.0207,0.12452 c -0.0759,0.0129 -0.15177,0.0129 -0.22592,0.0129 l 0,0" />
    <path
       inkscape:connector-curvature="0"
       id="path50972"
       style="fill:#0e0f0e;fill-opacity:1;fill-rule:nonzero;stroke:none"
       d="m 272.84988,573.77761 c -1.50731,-0.11262 -1.91432,-0.77487 -1.92984,-0.81247 l 0.10175,-0.0628 c 0.003,0.0129 0.40011,0.65018 1.83672,0.76262 l -0.009,0.11262 0,0" />
    <path
       inkscape:connector-curvature="0"
       id="path50974"
       style="fill:#0e0f0e;fill-opacity:1;fill-rule:nonzero;stroke:none"
       d="m 272.20315,575.84024 c -1.23482,0 -2.13162,-1.08719 -2.14196,-1.09995 l 0.0931,-0.0748 c 0.009,0.0121 1.002,1.19981 2.31961,1.03753 l 0.0155,0.11244 c -0.0966,0.0121 -0.19143,0.0248 -0.28629,0.0248 l 0,0" />
    <path
       inkscape:connector-curvature="0"
       id="path50976"
       style="fill:#0e0f0e;fill-opacity:1;fill-rule:nonzero;stroke:none"
       d="m 272.16349,577.85252 c -2.69902,-0.0626 -3.00945,-0.97475 -3.02325,-1.01252 l 0.11383,-0.0376 c 0.003,0.0128 0.31733,0.87506 2.91114,0.92491 l -0.002,0.1252 0,0" />
    <path
       inkscape:connector-curvature="0"
       id="path50978"
       style="fill:#0e0f0e;fill-opacity:1;fill-rule:nonzero;stroke:none"
       d="m 271.127,580.28992 c -1.7798,0 -2.74041,-0.8373 -2.75249,-0.84955 l 0.0793,-0.0874 c 0.0121,0 1.25896,1.08719 3.5527,0.74968 l 0.0172,0.11262 c -0.31905,0.0498 -0.61913,0.0747 -0.89679,0.0747 l 0,0" />
    <path
       inkscape:connector-curvature="0"
       id="path50980"
       style="fill:#0e0f0e;fill-opacity:1;fill-rule:nonzero;stroke:none"
       d="m 269.9991,582.98997 c -0.8899,0 -1.47282,-0.3125 -1.48317,-0.3125 l 0.0586,-0.11244 c 0.0155,0.0128 1.59872,0.86299 3.52166,-0.31199 l 0.0604,0.0997 c -0.80367,0.49996 -1.55043,0.63724 -2.15749,0.63724 l 0,0" />
    <path
       inkscape:connector-curvature="0"
       id="path50982"
       style="fill:#0e0f0e;fill-opacity:1;fill-rule:nonzero;stroke:none"
       d="m 280.47267,586.57734 c -0.6726,-0.94992 -1.49869,-1.09944 -2.06953,-1.07444 -0.65708,0.0498 -1.22103,0.36234 -1.33658,0.57464 l -0.0224,0.0505 -0.10175,0.0371 c -0.14142,-0.0371 -0.18798,-0.78763 -0.14142,-2.23734 -0.30353,0.14953 -1.32967,0.70003 -2.07298,1.58717 l -0.11038,0.12538 0.005,-0.16246 c 0.0138,-0.52549 0.007,-1.28794 0.003,-1.79998 l -0.003,-0.37528 c -1.00373,0.20006 -1.96089,0.22506 -3.16984,0.20006 l 0.003,-0.12521 c 1.2262,0.0248 2.19543,0.0128 3.21467,-0.19954 l 0.0707,-0.0128 0.003,0.51273 c 0.003,0.46202 0.0104,1.12496 0,1.637 0.88818,-0.98768 2.08161,-1.52456 2.09541,-1.53732 l 0.0862,-0.0378 -0.003,0.0876 c -0.0345,1.01252 -0.019,2.12541 0.0655,2.2251 0.10003,-0.26266 0.6726,-0.62517 1.40729,-0.66225 0.57429,-0.0248 1.37624,0.0998 2.05574,0.96216 0.0155,-0.5248 0.33112,-0.97493 0.89162,-1.27466 0.91577,-0.4998 2.48862,-0.55033 3.76828,0.51272 0.37941,-0.13814 0.60361,-0.35044 0.83989,-0.57533 0.52255,-0.49996 1.11754,-1.07529 4.18046,-0.85023 0.088,-1.0496 1.89535,-2.63745 5.30318,-2.63745 0.0224,0 0.0431,0 0.0638,0 -0.95371,-1.49955 0.13624,-2.45016 0.14832,-2.46223 l 0.0776,0.0874 c -0.0431,0.05 -1.06581,0.93715 -0.0638,2.41256 l 0.0655,0.0876 -0.11555,0 c -3.31815,-0.0498 -5.27214,1.46247 -5.42391,2.58743 -3.07326,-0.16297 -3.64755,0.37459 -4.15459,0.86231 -0.24662,0.23782 -0.47944,0.4622 -0.94336,0.59965 -1.23655,-0.99976 -2.77663,-1.01183 -3.68895,-0.5248 -0.58464,0.31267 -0.88472,0.81246 -0.82091,1.35003 l -0.10693,0.0498 0,0" />
    <path
       inkscape:connector-curvature="0"
       id="path50984"
       style="fill:#0e0f0e;fill-opacity:1;fill-rule:nonzero;stroke:none"
       d="m 273.43453,587.15267 c -1.53491,-0.41218 -1.73669,-1.41263 -1.63493,-2.18733 0.0949,-0.72503 0.52945,-1.57509 0.62948,-1.57509 l 0.0448,0.0997 c -0.009,0.0128 -0.84506,1.30018 -0.49152,2.3753 0.18799,0.56257 0.68812,0.96199 1.48317,1.17498 l -0.031,0.11245 0,0" />
    <path
       inkscape:connector-curvature="0"
       id="path50986"
       style="fill:#0e0f0e;fill-opacity:1;fill-rule:nonzero;stroke:none"
       d="m 276.39741,586.75256 c -0.37596,0 -0.55532,-0.32475 -0.60361,-0.61241 -0.0604,-0.36234 0.0552,-0.7747 0.38631,-0.85024 0.1328,0.025 0.4484,-0.0997 0.62086,-0.18729 l 0.0517,0.11262 c -0.05,0.0248 -0.49496,0.22506 -0.6726,0.18729 -0.23282,0.0626 -0.31905,0.41287 -0.26904,0.71278 0.0448,0.27473 0.21903,0.5624 0.53808,0.5248 0.20006,-0.25007 0.45875,-0.63741 0.45875,-0.63741 l 0.10002,0.0628 c 0,0 -0.26386,0.40011 -0.50876,0.67502 -0.0345,0.0121 -0.069,0.0121 -0.10175,0.0121 l 0,0" />
    <path
       inkscape:connector-curvature="0"
       id="path50988"
       style="fill:#0e0f0e;fill-opacity:1;fill-rule:nonzero;stroke:none"
       d="m 275.58167,587.33996 c -0.39321,0 -0.60706,-0.20005 -0.65535,-0.56257 -0.0552,-0.38735 0.12245,-0.88714 0.28628,-0.94974 l 0.0466,-0.0122 0.0897,0.0749 c 0.0828,0.0747 0.17246,0.11245 0.25524,0.11245 0.10348,-0.0128 0.16729,-0.10038 0.16729,-0.10038 l 0.0966,0.0755 c -0.003,0 -0.0949,0.12452 -0.25352,0.13745 -0.12072,0.0128 -0.238,-0.0378 -0.35872,-0.15038 l 0,0 c -0.0724,0 -0.25524,0.38752 -0.21385,0.77556 0.0224,0.22488 0.13452,0.49979 0.53808,0.52479 0.13969,-0.47495 0.72433,-0.6124 0.74848,-0.6124 l 0.0276,0.11244 c -0.005,0 -0.55015,0.12469 -0.72261,0.57464 -0.0173,0 -0.0345,0 -0.0517,0 l 0,0" />
    <path
       inkscape:connector-curvature="0"
       id="path50990"
       style="fill:#0e0f0e;fill-opacity:1;fill-rule:nonzero;stroke:none"
       d="m 274.46585,587.60279 c -0.0897,0 -0.15349,-0.025 -0.19833,-0.0498 -0.12073,-0.10054 -0.14315,-0.27559 -0.0621,-0.48789 0.1121,-0.29974 0.41736,-0.58741 0.76055,-0.5624 l -0.009,0.11245 c -0.29491,-0.025 -0.54325,0.22506 -0.64156,0.48772 -0.0586,0.16245 -0.05,0.29973 0.0241,0.34958 0.05,0.0378 0.26386,0.12537 0.90542,-0.32458 l 0.0673,0.0874 c -0.41046,0.29991 -0.67605,0.38752 -0.84678,0.38752 l 0,0" />
    <path
       inkscape:connector-curvature="0"
       id="path50992"
       style="fill:#0e0f0e;fill-opacity:1;fill-rule:nonzero;stroke:none"
       d="m 274.25199,588.65291 c -0.019,0 -0.0379,0 -0.0535,0 -0.24317,-0.0505 -0.4415,-0.45064 -0.47082,-0.77539 -0.005,0.0129 -0.30008,-0.16228 -0.28111,-0.78746 -0.0104,-0.2749 0.0586,-0.46219 0.20523,-0.53756 0.28801,-0.14952 0.74848,0.20006 0.76745,0.21282 l -0.0724,0.0997 c -0.11555,-0.0876 -0.45702,-0.3125 -0.63983,-0.21212 -0.10176,0.0498 -0.15004,0.20005 -0.14142,0.43718 -0.0155,0.57534 0.23799,0.71279 0.25007,0.72486 0.0535,0.31267 0.22592,0.68777 0.40701,0.72485 0.11037,0.0128 0.20178,-0.0997 0.25869,-0.19936 0.11382,-0.49997 -0.0845,-0.73762 -0.0862,-0.73762 l 0.0879,-0.0749 c 0.0121,0.0121 0.2449,0.26214 0.10865,0.84955 -0.119,0.22489 -0.24317,0.27542 -0.33975,0.27542 l 0,0" />
    <path
       inkscape:connector-curvature="0"
       id="path50994"
       style="fill:#0e0f0e;fill-opacity:1;fill-rule:nonzero;stroke:none"
       d="m 270.03532,593.79036 c -0.0604,0 -0.119,-0.0128 -0.17246,-0.0376 -0.26904,-0.15021 -0.34665,-0.62517 -0.33113,-0.67501 l 0.0569,0.0128 0.002,0.0498 0,-0.0498 0.0586,0 c -0.002,0.0619 0.0776,0.47496 0.29664,0.56257 0.19488,0.0869 0.43632,-0.12538 0.60878,-0.31268 0.17764,-0.37527 0.49669,-1.00044 0.85714,-1.71254 0.7778,-1.52507 1.74703,-3.42559 2.04021,-4.25013 l 0.1121,0.0371 c -0.29491,0.83799 -1.26586,2.73782 -2.04711,4.27514 -0.35872,0.70054 -0.67605,1.32502 -0.86576,1.7253 -0.23454,0.2499 -0.43805,0.37511 -0.61568,0.37511 l 0,0" />
    <path
       inkscape:connector-curvature="0"
       id="path50996"
       style="fill:#0e0f0e;fill-opacity:1;fill-rule:nonzero;stroke:none"
       d="m 272.774,588.95282 c -0.24834,0 -0.83126,-0.0628 -1.43143,-0.53756 -0.18798,-0.56257 -0.17418,-1.0127 0.0241,-1.37504 0.27076,-0.51272 0.79504,-0.66225 0.81746,-0.67501 l 0.0328,0.12452 c -0.005,0 -0.49841,0.13814 -0.74676,0.60033 -0.17936,0.33751 -0.19143,0.76263 -0.0328,1.26242 0.71571,0.56257 1.44177,0.47496 1.44695,0.47496 l 0.0155,0.11244 c -0.009,0.0129 -0.0517,0.0129 -0.1259,0.0129 l 0,0" />
    <path
       inkscape:connector-curvature="0"
       id="path50998"
       style="fill:#0e0f0e;fill-opacity:1;fill-rule:nonzero;stroke:none"
       d="m 272.23937,589.92757 c -0.37769,0 -0.95543,-0.23713 -1.03132,-0.2749 l 0.0483,-0.11245 c 0.24145,0.11245 0.9175,0.36251 1.1417,0.2499 l 0.0535,0.10037 c -0.0552,0.0243 -0.12935,0.0371 -0.21213,0.0371 l 0,0" />
    <path
       inkscape:connector-curvature="0"
       id="path51000"
       style="fill:#0e0f0e;fill-opacity:1;fill-rule:nonzero;stroke:none"
       d="m 271.27704,591.70271 c -0.4622,0 -0.77435,-0.53756 -0.7778,-0.53756 l 0.10347,-0.0626 c 0.0155,0.0248 0.37597,0.65 0.88473,0.43788 l 0.0466,0.0997 c -0.0897,0.0498 -0.17591,0.0626 -0.25696,0.0626 l 0,0" />
    <path
       inkscape:connector-curvature="0"
       id="path51002"
       style="fill:#0e0f0e;fill-opacity:1;fill-rule:nonzero;stroke:none"
       d="m 277.29766,590.253 c -0.0293,-0.0628 -0.70192,-1.43763 -0.12417,-2.12541 0.53808,-0.65018 0.4346,-2.50017 0.43288,-2.525 l 0.12072,0 c 0.003,0.0754 0.1052,1.91259 -0.4622,2.59968 -0.52945,0.62517 0.1328,1.98796 0.1397,2.0002 l -0.10693,0.0505 0,0" />
    <path
       inkscape:connector-curvature="0"
       id="path51004"
       style="fill:#0e0f0e;fill-opacity:1;fill-rule:nonzero;stroke:none"
       d="m 278.73771,589.39001 -0.0897,-0.0748 c 0.70882,-0.80022 0.42081,-3.61289 0.37942,-3.78742 l 0.11037,-0.0376 c 0.0104,0.0128 0.37769,3.0248 -0.40011,3.89987 l 0,0" />
    <path
       inkscape:connector-curvature="0"
       id="path51006"
       style="fill:#0e0f0e;fill-opacity:1;fill-rule:nonzero;stroke:none"
       d="m 281.97308,588.11535 -0.0828,-0.0876 c 1.05719,-1.00028 0.005,-3.0624 -0.003,-3.08741 l 0.1052,-0.0498 c 0.0448,0.0869 1.10203,2.1625 -0.019,3.22486 l 0,0" />
    <path
       inkscape:connector-curvature="0"
       id="path51008"
       style="fill:#0e0f0e;fill-opacity:1;fill-rule:nonzero;stroke:none"
       d="m 283.57697,588.12759 -0.069,-0.0876 c 0.8692,-0.61241 1.50214,-2.47516 1.50904,-2.48724 l 0.1121,0.0378 c -0.0259,0.0747 -0.65191,1.91243 -1.55216,2.53708 l 0,0" />
    <path
       inkscape:connector-curvature="0"
       id="path51010"
       style="fill:#0e0f0e;fill-opacity:1;fill-rule:nonzero;stroke:none"
       d="m 290.68755,590.74003 c -1.56595,0 -2.59727,-0.41235 -3.06808,-1.23758 -0.86059,-1.49955 0.45874,-3.80018 0.51738,-3.8871 l 0.10175,0.0626 c -0.0138,0.0122 -1.34347,2.32495 -0.51566,3.76259 0.4484,0.78677 1.44523,1.1748 2.96461,1.1748 l 0,0.12469" />
    <path
       inkscape:connector-curvature="0"
       id="path51012"
       style="fill:#0e0f0e;fill-opacity:1;fill-rule:nonzero;stroke:none"
       d="m 287.34353,588.01497 c -0.17419,-0.46202 -2.95081,-0.54963 -3.15604,-0.5248 l -0.0707,-0.0498 0.0517,-0.0626 c 0.0293,-0.0128 3.06291,-0.0128 3.28711,0.60016 l -0.1121,0.0371 0,0" />
    <path
       inkscape:connector-curvature="0"
       id="path51014"
       style="fill:#0e0f0e;fill-opacity:1;fill-rule:nonzero;stroke:none"
       d="m 285.19121,590.61534 -0.069,-0.0874 c 0.0207,-0.025 0.0345,-0.025 0.22592,-0.0628 0.49841,-0.0747 2.0109,-0.32474 2.3196,-0.93767 l 0.10693,0.0626 c -0.33802,0.65018 -1.84016,0.90008 -2.40583,1.00045 -0.0949,0.0121 -0.15867,0.0248 -0.17764,0.0248 l 0,0" />
    <path
       inkscape:connector-curvature="0"
       id="path51016"
       style="fill:#0e0f0e;fill-opacity:1;fill-rule:nonzero;stroke:none"
       d="m 287.72294,591.76532 -0.0224,-0.11245 c 0.0655,-0.025 0.85541,-0.51273 1.01235,-0.96268 0.0379,-0.0997 0.0362,-0.18729 -0.002,-0.26283 l 0.10692,-0.0498 c 0.0759,0.15039 0.05,0.32475 -0.0759,0.5248 -0.26732,0.42512 -0.96578,0.863 -1.01925,0.863 l 0,0" />
    <path
       inkscape:connector-curvature="0"
       id="path51018"
       style="fill:#0e0f0e;fill-opacity:1;fill-rule:nonzero;stroke:none"
       d="m 284.62899,587.17767 c -0.088,0 -0.16729,-0.0128 -0.24145,-0.025 l 0.0259,-0.11245 c 0.50704,0.0997 1.51594,-0.20005 2.26097,-0.8623 0.43805,-0.38804 0.94509,-1.05029 0.8761,-1.96244 l 0.119,-0.0128 c 0.0724,0.97475 -0.45702,1.64976 -0.91405,2.06281 -0.68122,0.59947 -1.55215,0.91214 -2.12644,0.91214 l 0,0" />
    <path
       inkscape:connector-curvature="0"
       id="path51020"
       style="fill:#0e0f0e;fill-opacity:1;fill-rule:nonzero;stroke:none"
       d="m 288.64044,585.6902 c -0.71054,0 -1.23483,-0.2499 -1.24345,-0.2499 l 0.0517,-0.11262 c 0.0155,0.0128 1.6608,0.78763 3.04911,-0.49979 l 0.0811,0.0997 c -0.6519,0.60017 -1.35554,0.76263 -1.93846,0.76263 l 0,0" />
    <path
       inkscape:connector-curvature="0"
       id="path51022"
       style="fill:#0e0f0e;fill-opacity:1;fill-rule:nonzero;stroke:none"
       d="m 292.87264,585.65243 c -0.0121,-0.025 -0.3639,-0.56257 -1.31243,-0.28698 -0.8054,0.0748 -1.44006,-1.03821 -1.46593,-1.08806 l 0.10521,-0.0619 c 0.003,0.0121 0.60878,1.1122 1.34002,1.03753 1.02787,-0.31268 1.43315,0.3375 1.4366,0.3375 l -0.10347,0.0619 0,0" />
    <path
       inkscape:connector-curvature="0"
       id="path51024"
       style="fill:#0e0f0e;fill-opacity:1;fill-rule:nonzero;stroke:none"
       d="m 303.88946,594.09027 c -0.17591,0 -0.36907,-0.0628 -0.57947,-0.1873 l 0.0604,-0.10037 c 0.30871,0.18729 0.56223,0.22489 0.77263,0.11245 0.66052,-0.33751 0.81229,-2.05005 0.92267,-3.29971 -0.21213,-4.02524 -1.57285,-4.32498 -4.55471,-4.97498 -0.6588,-0.15022 -1.40556,-0.31268 -2.22992,-0.53774 -3.98903,-0.57516 -3.96143,-3.43767 -3.96143,-3.47475 l 0.12072,0 c -0.002,0.0371 -0.0224,2.79974 3.86485,3.36231 0.82782,0.22506 1.57285,0.38734 2.23165,0.53756 2.95082,0.63741 4.43226,0.97492 4.64611,5.0876 -0.13969,1.61217 -0.32078,3.06257 -0.98648,3.40008 -0.0949,0.0498 -0.1966,0.0749 -0.30698,0.0749 l 0,0" />
    <path
       inkscape:connector-curvature="0"
       id="path51026"
       style="fill:#0e0f0e;fill-opacity:1;fill-rule:nonzero;stroke:none"
       d="m 304.36545,592.67746 c -0.30698,0 -0.5536,-0.21212 -0.56739,-0.21212 l 0.0776,-0.10038 c 0.003,0 0.28111,0.22507 0.57602,0.18799 0.17074,-0.025 0.31906,-0.15022 0.4415,-0.35044 l 0.10176,0.0628 c -0.14142,0.23714 -0.31733,0.36234 -0.52429,0.40011 -0.0362,0.0121 -0.0707,0.0121 -0.1052,0.0121 l 0,0" />
    <path
       inkscape:connector-curvature="0"
       id="path51028"
       style="fill:#0e0f0e;fill-opacity:1;fill-rule:nonzero;stroke:none"
       d="m 304.07227,591.01494 c -0.0949,0 -0.15522,-0.0122 -0.15694,-0.0122 l 0.019,-0.11244 c 0.0328,0 0.77435,0.12469 1.12445,-0.60017 l 0.10692,0.0505 c -0.28628,0.59948 -0.82781,0.67433 -1.0934,0.67433 l 0,0" />
    <path
       inkscape:connector-curvature="0"
       id="path51030"
       style="fill:#0e0f0e;fill-opacity:1;fill-rule:nonzero;stroke:none"
       d="m 304.07227,589.15287 c -0.20868,0 -0.37424,-0.0378 -0.38976,-0.0498 l 0.0293,-0.11313 c 0.009,0 0.83644,0.20005 1.09168,-0.32475 l 0.10693,0.0498 c -0.17246,0.35027 -0.5467,0.43788 -0.83816,0.43788 l 0,0" />
    <path
       inkscape:connector-curvature="0"
       id="path51032"
       style="fill:#0e0f0e;fill-opacity:1;fill-rule:nonzero;stroke:none"
       d="m 302.84262,588.21503 -0.0569,-0.0997 c 0.16729,-0.0876 0.62258,-0.90008 0.88645,-1.41263 l 0.10692,0.0498 c -0.069,0.13745 -0.68467,1.32502 -0.93646,1.46247 l 0,0" />
    <path
       inkscape:connector-curvature="0"
       id="path51034"
       style="fill:#0e0f0e;fill-opacity:1;fill-rule:nonzero;stroke:none"
       d="m 301.47155,587.89046 -0.0811,-0.0876 c 0.57084,-0.53757 0.5398,-1.90053 0.5398,-1.9126 l 0.119,0 c 0.002,0.0498 0.031,1.42488 -0.57775,2.00021 l 0,0" />
    <path
       inkscape:connector-curvature="0"
       id="path51036"
       style="fill:#0e0f0e;fill-opacity:1;fill-rule:nonzero;stroke:none"
       d="m 299.17609,587.55295 -0.0776,-0.0876 c 0.91921,-0.77539 0.94853,-1.90052 0.94853,-1.9126 l 0.12073,0 c -0.002,0.0498 -0.031,1.18775 -0.99166,2.00021 l 0,0" />
    <path
       inkscape:connector-curvature="0"
       id="path51038"
       style="fill:#0e0f0e;fill-opacity:1;fill-rule:nonzero;stroke:none"
       d="m 296.64264,587.19044 -0.0845,-0.0755 c 0.23627,-0.2499 1.45385,-1.69961 1.13307,-2.11196 l 0.0931,-0.0626 c 0.43115,0.54981 -1.12617,2.23734 -1.14169,2.25011 l 0,0" />
    <path
       inkscape:connector-curvature="0"
       id="path51040"
       style="fill:#0e0f0e;fill-opacity:1;fill-rule:nonzero;stroke:none"
       d="m 294.30234,586.20275 -0.019,-0.12521 c 1.5418,-0.22506 1.7522,-1.77514 1.75393,-1.78721 l 0.119,0.0121 c -0.003,0.0248 -0.22593,1.65045 -1.85396,1.90035 l 0,0" />
    <path
       inkscape:connector-curvature="0"
       id="path51042"
       style="fill:#0e0f0e;fill-opacity:1;fill-rule:nonzero;stroke:none"
       d="m 272.0169,581.23983 -0.0621,-0.0997 c 0.031,-0.025 3.06636,-1.84999 3.22847,-3.17501 l 0.119,0.0248 c -0.17073,1.36297 -3.15949,3.17502 -3.28538,3.24986 l 0,0" />
    <path
       inkscape:connector-curvature="0"
       id="path51044"
       style="fill:#0e0f0e;fill-opacity:1;fill-rule:nonzero;stroke:none"
       d="m 272.15487,579.6149 -0.12418,-0.0371 0.0862,-0.0754 c 0.72262,-0.2499 2.02815,-0.90008 2.65246,-2.56209 l 0.1121,0.0371 c -0.64156,1.71254 -1.98331,2.38756 -2.72661,2.63745 l 0,0" />
    <path
       inkscape:connector-curvature="0"
       id="path51046"
       style="fill:#0e0f0e;fill-opacity:1;fill-rule:nonzero;stroke:none"
       d="m 272.15831,578.46493 c -0.019,0 -0.0293,0 -0.0362,0 l 0.0397,-0.11244 0,0 c 0.18454,0 2.20923,-1.42488 2.2627,-2.52501 l 0.12072,0.0128 c -0.0466,0.93716 -1.43833,2.09989 -2.06609,2.48724 -0.19315,0.11262 -0.27766,0.13745 -0.32078,0.13745 l 0,0" />
    <path
       inkscape:connector-curvature="0"
       id="path51048"
       style="fill:#0e0f0e;fill-opacity:1;fill-rule:nonzero;stroke:none"
       d="m 272.29283,577.10283 -0.0328,-0.11261 c 0.60016,-0.16229 1.71426,-1.52508 1.93156,-2.2251 l 0.11383,0.025 c -0.22765,0.74969 -1.36762,2.13748 -2.01263,2.3127 l 0,0" />
    <path
       inkscape:connector-curvature="0"
       id="path51050"
       style="fill:#0e0f0e;fill-opacity:1;fill-rule:nonzero;stroke:none"
       d="m 272.58947,575.61536 -0.069,-0.10038 c 0.009,0 0.87783,-0.61241 1.53491,-1.52455 l 0.0983,0.0619 c -0.67087,0.93784 -1.5556,1.56302 -1.56422,1.56302 l 0,0" />
    <path
       inkscape:connector-curvature="0"
       id="path51052"
       style="fill:#0e0f0e;fill-opacity:1;fill-rule:nonzero;stroke:none"
       d="m 273.03269,574.05234 c -0.0207,0 -0.0414,0 -0.0604,0 -0.0586,-0.0248 -0.13107,-0.0747 -0.13624,-0.22489 l 0.12072,-0.0122 c 0.002,0.11262 0.0397,0.11262 0.0517,0.12469 0.16729,0.0626 0.70192,-0.39942 0.97268,-0.76193 l 0.0966,0.0748 c -0.22248,0.29974 -0.75021,0.79953 -1.04512,0.79953 l 0,0" />
    <path
       inkscape:connector-curvature="0"
       id="path51054"
       style="fill:#0e0f0e;fill-opacity:1;fill-rule:nonzero;stroke:none"
       d="m 274.95219,579.67751 -0.37252,-0.47479 0.0931,-0.0748 0.37252,0.47496 -0.0931,0.0747 0,0" />
    <path
       inkscape:connector-curvature="0"
       id="path51056"
       style="fill:#0e0f0e;fill-opacity:1;fill-rule:nonzero;stroke:none"
       d="m 274.03469,580.31492 -0.24662,-0.38734 0.10003,-0.0628 0.24834,0.38804 -0.10175,0.0621 0,0" />
    <path
       inkscape:connector-curvature="0"
       id="path51058"
       style="fill:#0e0f0e;fill-opacity:1;fill-rule:nonzero;stroke:none"
       d="m 273.2362,581.0653 c -0.31043,-0.42511 -0.31043,-0.43788 -0.31043,-0.46271 l 0.11727,0 -0.0586,0 0.0552,-0.0122 c 0.0242,0.0498 0.29319,0.41236 0.29319,0.41236 l -0.0966,0.0626 0,0" />
    <path
       inkscape:connector-curvature="0"
       id="path51060"
       style="fill:#0e0f0e;fill-opacity:1;fill-rule:nonzero;stroke:none"
       d="m 272.77228,581.60304 c -0.34493,-0.0505 -0.36907,-0.67519 -0.3708,-0.70071 l 0.12073,0 c 0.005,0.15021 0.0621,0.55032 0.26559,0.57533 l -0.0155,0.12538 0,0" />
    <path
       inkscape:connector-curvature="0"
       id="path51062"
       style="fill:#0e0f0e;fill-opacity:1;fill-rule:nonzero;stroke:none"
       d="m 273.15859,580.42737 c -0.0224,0 -0.0466,-0.0121 -0.069,-0.0121 -0.28457,-0.11262 -0.52774,-0.91284 -0.55361,-0.99976 l 0.11383,-0.0378 c 0.0949,0.32474 0.31043,0.86231 0.48289,0.92491 l 0.12762,0.0876 c -0.0328,0.025 -0.0673,0.0371 -0.10175,0.0371 l 0,0" />
    <path
       inkscape:connector-curvature="0"
       id="path51064"
       style="fill:#0e0f0e;fill-opacity:1;fill-rule:nonzero;stroke:none"
       d="m 273.76738,579.94034 c 0,0 -0.34492,-1.01252 -0.37079,-1.06236 l 0.10865,-0.0505 c 0.0172,0.0378 0.29146,0.82522 0.37424,1.06305 l -0.1121,0.0498 0,0" />
    <path
       inkscape:connector-curvature="0"
       id="path51066"
       style="fill:#0e0f0e;fill-opacity:1;fill-rule:nonzero;stroke:none"
       d="m 274.59174,579.0901 -0.44667,-0.90007 0.1052,-0.0498 0.4484,0.88731 -0.10693,0.0626 0,0" />
    <path
       inkscape:connector-curvature="0"
       id="path51068"
       style="fill:#0e0f0e;fill-opacity:1;fill-rule:nonzero;stroke:none"
       d="m 274.28131,577.96514 c -0.12072,0 -0.3018,-0.17522 -0.60706,-0.5874 l 0.0604,-0.11262 0.0362,0.0378 c 0.38114,0.51204 0.48806,0.54963 0.50876,0.54963 l 0,0 0.0638,0.10037 c -0.019,0.0122 -0.0397,0.0122 -0.0621,0.0122 l 0,0" />
    <path
       inkscape:connector-curvature="0"
       id="path51070"
       style="fill:#0e0f0e;fill-opacity:1;fill-rule:nonzero;stroke:none"
       d="m 273.51386,578.90281 -0.1121,0 c -0.20695,-0.10037 -0.40011,-0.82523 -0.43805,-0.96268 l 0.11555,-0.0378 c 0.0862,0.33768 0.25869,0.83748 0.37424,0.90008 l 0.0604,0.10037 0,0" />
    <path
       inkscape:connector-curvature="0"
       id="path51072"
       style="fill:#0e0f0e;fill-opacity:1;fill-rule:nonzero;stroke:none"
       d="m 272.56187,579.44037 -0.48116,-0.72554 0.10002,-0.0619 0.48117,0.72485 -0.10003,0.0626 0,0" />
    <path
       inkscape:connector-curvature="0"
       id="path51074"
       style="fill:#0e0f0e;fill-opacity:1;fill-rule:nonzero;stroke:none"
       d="m 273.16721,577.81493 c -0.22937,-0.12469 -0.35527,-0.87456 -0.38976,-1.09944 l 0.11727,-0.0129 c 0.069,0.43736 0.18799,0.94992 0.26215,0.98769 l 0.0103,0.12469 0,0" />
    <path
       inkscape:connector-curvature="0"
       id="path51076"
       style="fill:#0e0f0e;fill-opacity:1;fill-rule:nonzero;stroke:none"
       d="m 273.97261,577.06506 c -0.1052,0 -0.57257,-0.96267 -0.57257,-0.97475 l 0.11899,0 -0.0586,0 0.0552,-0.0129 c 0.0276,0.0628 0.43633,0.8254 0.49324,0.888 l -0.0362,0.0997 0,0" />
    <path
       inkscape:connector-curvature="0"
       id="path51078"
       style="fill:#0e0f0e;fill-opacity:1;fill-rule:nonzero;stroke:none"
       d="m 272.97751,576.57803 c -0.22248,-0.25058 -0.47772,-0.53756 -0.51049,-0.56325 l 0.0328,-0.11245 c 0.0345,0 0.0466,0 0.56567,0.60017 l -0.0879,0.0755 0,0" />
    <path
       inkscape:connector-curvature="0"
       id="path51080"
       style="fill:#0e0f0e;fill-opacity:1;fill-rule:nonzero;stroke:none"
       d="m 273.62424,575.80265 c 0,0 -0.39149,-0.65018 -0.42426,-0.70002 l 0.0897,-0.0747 c 0.005,0 0.0224,0.0248 0.43805,0.71192 l -0.10347,0.0628 0,0" />
    <path
       inkscape:connector-curvature="0"
       id="path51082"
       style="fill:#0e0f0e;fill-opacity:1;fill-rule:nonzero;stroke:none"
       d="m 273.61216,574.70252 c -0.19315,-0.025 -0.22075,-0.56257 -0.22075,-0.88732 l 0.119,0 c 0,0.37459 0.0552,0.73779 0.11727,0.76263 l -0.0155,0.12469 0,0" />
    <path
       inkscape:connector-curvature="0"
       id="path51084"
       style="fill:#0e0f0e;fill-opacity:1;fill-rule:nonzero;stroke:none"
       d="m 273.42073,573.82745 -0.40873,-0.59965 0.0983,-0.0626 0.40873,0.60016 -0.0983,0.0621 0,0" />
  </g>
</svg>
