<?xml version="1.0" encoding="UTF-8" standalone="no"?>
<!-- Created with Inkscape (http://www.inkscape.org/) -->

<svg
   xmlns:dc="http://purl.org/dc/elements/1.1/"
   xmlns:cc="http://creativecommons.org/ns#"
   xmlns:rdf="http://www.w3.org/1999/02/22-rdf-syntax-ns#"
   xmlns:svg="http://www.w3.org/2000/svg"
   xmlns="http://www.w3.org/2000/svg"
   xmlns:sodipodi="http://sodipodi.sourceforge.net/DTD/sodipodi-0.dtd"
   xmlns:inkscape="http://www.inkscape.org/namespaces/inkscape"
   width="6.062633mm"
   height="6.0606856mm"
   viewBox="0 0 21.481771 21.47487"
   id="svg81758"
   version="1.1"
   inkscape:version="0.91 r13725"
   sodipodi:docname="moon-star-circle.svg">
  <defs
     id="defs81760">
    <clipPath
       clipPathUnits="userSpaceOnUse"
       id="clipPath46470">
      <path
         d="m 2577.9,1336.54 427.074,0 0,249.117 -427.074,0 0,-249.117 z"
         id="path46472"
         inkscape:connector-curvature="0" />
    </clipPath>
  </defs>
  <sodipodi:namedview
     id="base"
     pagecolor="#ffffff"
     bordercolor="#666666"
     borderopacity="1.0"
     inkscape:pageopacity="0.0"
     inkscape:pageshadow="2"
     inkscape:zoom="22.627417"
     inkscape:cx="11.124625"
     inkscape:cy="13.074308"
     inkscape:document-units="px"
     inkscape:current-layer="layer1"
     showgrid="false"
     fit-margin-top="0"
     fit-margin-left="0"
     fit-margin-right="0"
     fit-margin-bottom="0"
     inkscape:window-width="1920"
     inkscape:window-height="1029"
     inkscape:window-x="0"
     inkscape:window-y="25"
     inkscape:window-maximized="1" />
  <metadata
     id="metadata81763">
    <rdf:RDF>
      <cc:Work
         rdf:about="">
        <dc:format>image/svg+xml</dc:format>
        <dc:type
           rdf:resource="http://purl.org/dc/dcmitype/StillImage" />
        <dc:title></dc:title>
      </cc:Work>
    </rdf:RDF>
  </metadata>
  <g
     inkscape:label="Layer 1"
     inkscape:groupmode="layer"
     id="layer1"
     transform="translate(-366.40076,-433.04791)">
    <path
       inkscape:connector-curvature="0"
       id="path46476"
       style="fill:#ff0000;fill-opacity:1;fill-rule:nonzero;stroke:none"
       d="m 377.14337,433.04791 c 5.93094,0 10.73916,4.81339 10.73916,10.73743 0,5.93784 -4.80822,10.73744 -10.73916,10.73744 -5.93439,0 -10.74261,-4.7996 -10.74261,-10.73744 0,-5.92404 4.80822,-10.73743 10.74261,-10.73743" />
    <path
       inkscape:connector-curvature="0"
       id="path46478"
       style="fill:#00ff00;fill-opacity:1;fill-rule:nonzero;stroke:none"
       d="m 377.14337,435.73485 c 4.44778,0 8.05567,3.60099 8.05567,8.05049 0,4.4495 -3.60789,8.06257 -8.05567,8.06257 -4.4495,0 -8.05739,-3.61307 -8.05739,-8.06257 0,-4.4495 3.60789,-8.05049 8.05739,-8.05049" />
    <path
       inkscape:connector-curvature="0"
       id="path46480"
       style="fill:#ff0000;fill-opacity:1;fill-rule:nonzero;stroke:none"
       d="m 379.29224,437.33529 c 3.5596,0 6.44143,2.9008 6.44143,6.45005 0,3.56305 -2.88183,6.45005 -6.44143,6.45005 -3.5596,0 -6.4466,-2.887 -6.4466,-6.45005 0,-3.54925 2.887,-6.45005 6.4466,-6.45005" />
    <path
       inkscape:connector-curvature="0"
       id="path46482"
       style="fill:#0000ff;fill-opacity:1;fill-rule:nonzero;stroke:none"
       d="m 374.45815,443.78534 4.59782,1.50042 0.74675,-2.30064" />
    <path
       inkscape:connector-curvature="0"
       id="path46484"
       style="fill:#0000ff;fill-opacity:1;fill-rule:nonzero;stroke:none"
       d="m 374.45815,443.78534 4.59782,-1.48661 0.74675,2.29891" />
    <path
       inkscape:connector-curvature="0"
       id="path46486"
       style="fill:#0000ff;fill-opacity:1;fill-rule:nonzero;stroke:none"
       d="m 377.79872,439.1858 0,4.83754 2.41446,0" />
    <path
       inkscape:connector-curvature="0"
       id="path46488"
       style="fill:#0000ff;fill-opacity:1;fill-rule:nonzero;stroke:none"
       d="m 377.79872,439.1858 2.83872,3.91142 -1.95399,1.42453" />
    <path
       inkscape:connector-curvature="0"
       id="path46490"
       style="fill:#0000ff;fill-opacity:1;fill-rule:nonzero;stroke:none"
       d="m 377.79872,448.38489 2.83872,-3.91143 -1.95399,-1.41418" />
    <path
       inkscape:connector-curvature="0"
       id="path46492"
       style="fill:#0000ff;fill-opacity:1;fill-rule:nonzero;stroke:none"
       d="m 377.79872,448.38489 0,-4.83754 2.41446,0" />
    <path
       inkscape:connector-curvature="0"
       id="path46494"
       style="fill:#0000ff;fill-opacity:1;fill-rule:nonzero;stroke:none"
       d="m 383.20194,440.94836 -4.59782,1.48661 0.74676,2.30064" />
    <path
       inkscape:connector-curvature="0"
       id="path46496"
       style="fill:#0000ff;fill-opacity:1;fill-rule:nonzero;stroke:none"
       d="m 383.20194,440.94836 -2.84217,3.91142 -1.95571,-1.42453" />
    <path
       inkscape:connector-curvature="0"
       id="path46498"
       style="fill:#0000ff;fill-opacity:1;fill-rule:nonzero;stroke:none"
       d="m 383.20194,446.6344 -2.84217,-3.91142 -1.95571,1.41246" />
    <path
       inkscape:connector-curvature="0"
       id="path46500"
       style="fill:#0000ff;fill-opacity:1;fill-rule:nonzero;stroke:none"
       d="m 383.20194,446.6344 -4.59782,-1.49868 0.74676,-2.30064" />
  </g>
</svg>
