<?xml version="1.0" encoding="UTF-8" standalone="no"?>
<!-- Created with Inkscape (http://www.inkscape.org/) -->

<svg
   xmlns:dc="http://purl.org/dc/elements/1.1/"
   xmlns:cc="http://creativecommons.org/ns#"
   xmlns:rdf="http://www.w3.org/1999/02/22-rdf-syntax-ns#"
   xmlns:svg="http://www.w3.org/2000/svg"
   xmlns="http://www.w3.org/2000/svg"
   xmlns:sodipodi="http://sodipodi.sourceforge.net/DTD/sodipodi-0.dtd"
   xmlns:inkscape="http://www.inkscape.org/namespaces/inkscape"
   width="15.72897mm"
   height="8.775629mm"
   viewBox="0 0 55.732569 31.094748"
   id="svg79895"
   version="1.1"
   inkscape:version="0.91 r13725"
   sodipodi:docname="southern-cross.svg">
  <defs
     id="defs79897" />
  <sodipodi:namedview
     id="base"
     pagecolor="#ffffff"
     bordercolor="#666666"
     borderopacity="1.0"
     inkscape:pageopacity="0.0"
     inkscape:pageshadow="2"
     inkscape:zoom="15.839192"
     inkscape:cx="17.490359"
     inkscape:cy="14.526209"
     inkscape:document-units="px"
     inkscape:current-layer="layer1"
     showgrid="false"
     fit-margin-top="0"
     fit-margin-left="0"
     fit-margin-right="0"
     fit-margin-bottom="0"
     inkscape:window-width="1920"
     inkscape:window-height="1029"
     inkscape:window-x="0"
     inkscape:window-y="25"
     inkscape:window-maximized="1" />
  <metadata
     id="metadata79900">
    <rdf:RDF>
      <cc:Work
         rdf:about="">
        <dc:format>image/svg+xml</dc:format>
        <dc:type
           rdf:resource="http://purl.org/dc/dcmitype/StillImage" />
        <dc:title></dc:title>
      </cc:Work>
    </rdf:RDF>
  </metadata>
  <g
     inkscape:label="Layer 1"
     inkscape:groupmode="layer"
     id="layer1"
     transform="translate(-105.47385,-616.59137)">
    <path
       inkscape:connector-curvature="0"
       id="path4072"
       style="fill:#ffffff;fill-opacity:1;fill-rule:nonzero;stroke:none"
       d="m 577.79907,304.94339 1.12272,3.48362 3.42335,-1.29337 -2.02641,3.0525 3.14741,1.86262 -3.64582,0.31038 0.50186,3.639 -2.52311,-2.65588 -2.52139,2.65588 0.50359,-3.639 -3.64756,-0.31038 3.14915,-1.86262 -2.02642,-3.0525 3.42335,1.29337 1.11928,-3.48362" />
    <path
       inkscape:connector-curvature="0"
       id="path4074"
       style="fill:#ffffff;fill-opacity:1;fill-rule:nonzero;stroke:none"
       d="m 616.55456,311.22089 0.53463,1.65562 1.62803,-0.62075 -0.96233,1.44863 1.49869,0.89675 -1.73669,0.15525 0.23973,1.72462 -1.20206,-1.27625 -1.20033,1.27625 0.238,-1.72462 -1.73669,-0.15525 1.50042,-0.89675 -0.96579,-1.44863 1.63149,0.62075 0.5329,-1.65562" />
    <path
       inkscape:connector-curvature="0"
       id="path4076"
       style="fill:#ffffff;fill-opacity:1;fill-rule:nonzero;stroke:none"
       d="m 606.86741,295.87189 0.53291,1.67287 1.62975,-0.62087 -0.96405,1.44875 1.49869,0.8795 -1.73497,0.15525 0.238,1.72462 -1.20033,-1.259 -1.20378,1.259 0.23973,-1.72462 -1.73497,-0.15525 1.49869,-0.8795 -0.96406,-1.44875 1.62804,0.62087 0.53635,-1.67287" />
    <path
       inkscape:connector-curvature="0"
       id="path4078"
       style="fill:#ffffff;fill-opacity:1;fill-rule:nonzero;stroke:none"
       d="m 616.55456,285.38626 0.53463,1.65563 1.62803,-0.62088 -0.96233,1.44863 1.49869,0.89687 -1.73669,0.15513 0.23973,1.72462 -1.20206,-1.25887 -1.20033,1.25887 0.238,-1.72462 -1.73669,-0.15513 1.50042,-0.89687 -0.96579,-1.44863 1.63149,0.62088 0.5329,-1.65563" />
    <path
       inkscape:connector-curvature="0"
       id="path4080"
       style="fill:#ffffff;fill-opacity:1;fill-rule:nonzero;stroke:none"
       d="m 625.16899,293.28501 0.53119,1.67288 1.63149,-0.62088 -0.96406,1.44863 1.49868,0.89687 -1.73668,0.13788 0.238,1.74187 -1.19862,-1.27625 -1.20377,1.27625 0.24145,-1.74187 -1.73841,-0.13788 1.50041,-0.89687 -0.96751,-1.44863 1.63148,0.62088 0.53635,-1.67288" />
    <path
       inkscape:connector-curvature="0"
       id="path4082"
       style="fill:#ffffff;fill-opacity:1;fill-rule:nonzero;stroke:none"
       d="m 620.43149,301.06301 0.4208,1.03475 1.1141,0.0862 -0.85196,0.72425 0.2656,1.0865 -0.94854,-0.60362 -0.95026,0.60362 0.26731,-1.0865 -0.85368,-0.72425 1.1141,-0.0862 0.42253,-1.03475" />
    <path
       inkscape:connector-curvature="0"
       id="path4072-3"
       style="fill:#ff0000;fill-opacity:1;fill-rule:nonzero;stroke:none"
       d="m 111.1392,636.1485 1.12272,3.48362 3.42335,-1.29337 -2.02641,3.0525 3.14741,1.86262 -3.64582,0.31038 0.50186,3.639 -2.52311,-2.65588 -2.52139,2.65588 0.50359,-3.639 -3.64755,-0.31038 3.14914,-1.86262 -2.02642,-3.0525 3.42335,1.29337 1.11928,-3.48362" />
    <path
       inkscape:connector-curvature="0"
       id="path4074-8"
       style="fill:#ff0000;fill-opacity:1;fill-rule:nonzero;stroke:none"
       d="m 149.89469,642.426 0.53463,1.65562 1.62803,-0.62075 -0.96233,1.44863 1.49869,0.89675 -1.73669,0.15525 0.23973,1.72462 -1.20206,-1.27625 -1.20033,1.27625 0.238,-1.72462 -1.73669,-0.15525 1.50042,-0.89675 -0.96579,-1.44863 1.63149,0.62075 0.5329,-1.65562" />
    <path
       inkscape:connector-curvature="0"
       id="path4076-1"
       style="fill:#ff0000;fill-opacity:1;fill-rule:nonzero;stroke:none"
       d="m 140.20754,627.077 0.53291,1.67287 1.62975,-0.62087 -0.96405,1.44875 1.49869,0.8795 -1.73497,0.15525 0.238,1.72462 -1.20033,-1.259 -1.20378,1.259 0.23973,-1.72462 -1.73497,-0.15525 1.49869,-0.8795 -0.96406,-1.44875 1.62804,0.62087 0.53635,-1.67287" />
    <path
       inkscape:connector-curvature="0"
       id="path4078-0"
       style="fill:#ff0000;fill-opacity:1;fill-rule:nonzero;stroke:none"
       d="m 149.89469,616.59137 0.53463,1.65563 1.62803,-0.62088 -0.96233,1.44863 1.49869,0.89687 -1.73669,0.15513 0.23973,1.72462 -1.20206,-1.25887 -1.20033,1.25887 0.238,-1.72462 -1.73669,-0.15513 1.50042,-0.89687 -0.96579,-1.44863 1.63149,0.62088 0.5329,-1.65563" />
    <path
       inkscape:connector-curvature="0"
       id="path4080-4"
       style="fill:#ff0000;fill-opacity:1;fill-rule:nonzero;stroke:none"
       d="m 158.50912,624.49012 0.53119,1.67288 1.63149,-0.62088 -0.96406,1.44863 1.49868,0.89687 -1.73668,0.13788 0.238,1.74187 -1.19862,-1.27625 -1.20377,1.27625 0.24145,-1.74187 -1.73841,-0.13788 1.50041,-0.89687 -0.96751,-1.44863 1.63148,0.62088 0.53635,-1.67288" />
    <path
       inkscape:connector-curvature="0"
       id="path4082-6"
       style="fill:#ff0000;fill-opacity:1;fill-rule:nonzero;stroke:none"
       d="m 153.77162,632.26812 0.4208,1.03475 1.1141,0.0862 -0.85196,0.72425 0.2656,1.0865 -0.94854,-0.60362 -0.95026,0.60362 0.26731,-1.0865 -0.85368,-0.72425 1.1141,-0.0862 0.42253,-1.03475" />
  </g>
</svg>
