<?xml version="1.0" encoding="UTF-8" standalone="no"?>
<!-- Created with Inkscape (http://www.inkscape.org/) -->

<svg
   xmlns:dc="http://purl.org/dc/elements/1.1/"
   xmlns:cc="http://creativecommons.org/ns#"
   xmlns:rdf="http://www.w3.org/1999/02/22-rdf-syntax-ns#"
   xmlns:svg="http://www.w3.org/2000/svg"
   xmlns="http://www.w3.org/2000/svg"
   xmlns:sodipodi="http://sodipodi.sourceforge.net/DTD/sodipodi-0.dtd"
   xmlns:inkscape="http://www.inkscape.org/namespaces/inkscape"
   width="8.3184042mm"
   height="5.0058603mm"
   viewBox="0 0 29.474661 17.7373"
   id="svg78661"
   version="1.1"
   inkscape:version="0.91 r13725"
   sodipodi:docname="star-us.svg">
  <defs
     id="defs78663" />
  <sodipodi:namedview
     id="base"
     pagecolor="#ffffff"
     bordercolor="#666666"
     borderopacity="1.0"
     inkscape:pageopacity="0.0"
     inkscape:pageshadow="2"
     inkscape:zoom="22.4"
     inkscape:cx="18.676721"
     inkscape:cy="7.5905655"
     inkscape:document-units="px"
     inkscape:current-layer="layer1"
     showgrid="false"
     fit-margin-top="0"
     fit-margin-left="0"
     fit-margin-right="0"
     fit-margin-bottom="0"
     inkscape:window-width="1920"
     inkscape:window-height="1029"
     inkscape:window-x="0"
     inkscape:window-y="25"
     inkscape:window-maximized="1" />
  <metadata
     id="metadata78666">
    <rdf:RDF>
      <cc:Work
         rdf:about="">
        <dc:format>image/svg+xml</dc:format>
        <dc:type
           rdf:resource="http://purl.org/dc/dcmitype/StillImage" />
        <dc:title></dc:title>
      </cc:Work>
    </rdf:RDF>
  </metadata>
  <g
     inkscape:label="Layer 1"
     inkscape:groupmode="layer"
     id="layer1"
     transform="translate(-142.40553,-466.3507)">
    <path
       inkscape:connector-curvature="0"
       id="path47746"
       style="fill:#ff0000;fill-opacity:1;fill-rule:nonzero;stroke:none"
       d="m 143.60862,466.3507 0.28439,0.87507 0.91818,0 -0.74296,0.54981 0.28352,0.87506 -0.74313,-0.55032 -0.74434,0.55032 0.28421,-0.87506 -0.74296,-0.54981 0.91818,0 0.28491,-0.87507" />
    <path
       inkscape:connector-curvature="0"
       id="path47748"
       style="fill:#ff0000;fill-opacity:1;fill-rule:nonzero;stroke:none"
       d="m 143.60862,470.21297 0.28439,0.87507 0.91818,0 -0.74296,0.53756 0.28352,0.88731 -0.74313,-0.5498 -0.74434,0.5498 0.28421,-0.88731 -0.74296,-0.53756 0.91818,0 0.28491,-0.87507" />
    <path
       inkscape:connector-curvature="0"
       id="path47750"
       style="fill:#ff0000;fill-opacity:1;fill-rule:nonzero;stroke:none"
       d="m 143.60862,474.07576 0.28439,0.87507 0.91818,0 -0.74296,0.53704 0.28352,0.88783 -0.74313,-0.55032 -0.74434,0.55032 0.28421,-0.88783 -0.74296,-0.53704 0.91818,0 0.28491,-0.87507" />
    <path
       inkscape:connector-curvature="0"
       id="path47752"
       style="fill:#ff0000;fill-opacity:1;fill-rule:nonzero;stroke:none"
       d="m 143.60862,477.93803 0.28439,0.87507 0.91818,0 -0.74296,0.54963 0.28352,0.863 -0.74313,-0.53757 -0.74434,0.53757 0.28421,-0.863 -0.74296,-0.54963 0.91818,0 0.28491,-0.87507" />
    <path
       inkscape:connector-curvature="0"
       id="path47754"
       style="fill:#ff0000;fill-opacity:1;fill-rule:nonzero;stroke:none"
       d="m 143.60862,481.80081 0.28439,0.87438 0.91818,0 -0.74296,0.53774 0.28352,0.87507 -0.74313,-0.53757 -0.74434,0.53757 0.28421,-0.87507 -0.74296,-0.53774 0.91818,0 0.28491,-0.87438" />
    <path
       inkscape:connector-curvature="0"
       id="path47756"
       style="fill:#00ff00;fill-opacity:1;fill-rule:nonzero;stroke:none"
       d="m 146.29798,468.38799 0.28439,0.87506 0.91887,0 -0.74382,0.53757 0.28439,0.87506 -0.74383,-0.53756 -0.74434,0.53756 0.28421,-0.87506 -0.74296,-0.53757 0.91887,0 0.28422,-0.87506" />
    <path
       inkscape:connector-curvature="0"
       id="path47758"
       style="fill:#00ff00;fill-opacity:1;fill-rule:nonzero;stroke:none"
       d="m 146.29798,472.25077 0.28439,0.87438 0.91887,0 -0.74382,0.53774 0.28439,0.87506 -0.74383,-0.53756 -0.74434,0.53756 0.28421,-0.87506 -0.74296,-0.53774 0.91887,0 0.28422,-0.87438" />
    <path
       inkscape:connector-curvature="0"
       id="path47760"
       style="fill:#00ff00;fill-opacity:1;fill-rule:nonzero;stroke:none"
       d="m 146.29798,476.11304 0.28439,0.87507 0.91887,0 -0.74382,0.53756 0.28439,0.87507 -0.74383,-0.53756 -0.74434,0.53756 0.28421,-0.87507 -0.74296,-0.53756 0.91887,0 0.28422,-0.87507" />
    <path
       inkscape:connector-curvature="0"
       id="path47762"
       style="fill:#00ff00;fill-opacity:1;fill-rule:nonzero;stroke:none"
       d="m 146.29798,479.97583 0.28439,0.87438 0.91887,0 -0.74382,0.53773 0.28439,0.87507 -0.74383,-0.53756 -0.74434,0.53756 0.28421,-0.87507 -0.74296,-0.53773 0.91887,0 0.28422,-0.87438" />
    <path
       inkscape:connector-curvature="0"
       id="path47764"
       style="fill:#ff0000;fill-opacity:1;fill-rule:nonzero;stroke:none"
       d="m 149.02235,466.3507 0.2837,0.87507 0.91956,0 -0.74451,0.54981 0.28508,0.87506 -0.74383,-0.55032 -0.74434,0.55032 0.28421,-0.87506 -0.74365,-0.54981 0.91956,0 0.28422,-0.87507" />
    <path
       inkscape:connector-curvature="0"
       id="path47766"
       style="fill:#ff0000;fill-opacity:1;fill-rule:nonzero;stroke:none"
       d="m 149.02235,470.21297 0.2837,0.87507 0.91956,0 -0.74451,0.53756 0.28508,0.88731 -0.74383,-0.5498 -0.74434,0.5498 0.28421,-0.88731 -0.74365,-0.53756 0.91956,0 0.28422,-0.87507" />
    <path
       inkscape:connector-curvature="0"
       id="path47768"
       style="fill:#ff0000;fill-opacity:1;fill-rule:nonzero;stroke:none"
       d="m 149.02235,474.07576 0.2837,0.87507 0.91956,0 -0.74451,0.53704 0.28508,0.88783 -0.74383,-0.55032 -0.74434,0.55032 0.28421,-0.88783 -0.74365,-0.53704 0.91956,0 0.28422,-0.87507" />
    <path
       inkscape:connector-curvature="0"
       id="path47770"
       style="fill:#ff0000;fill-opacity:1;fill-rule:nonzero;stroke:none"
       d="m 149.02235,477.93803 0.2837,0.87507 0.91956,0 -0.74451,0.54963 0.28508,0.863 -0.74383,-0.53757 -0.74434,0.53757 0.28421,-0.863 -0.74365,-0.54963 0.91956,0 0.28422,-0.87507" />
    <path
       inkscape:connector-curvature="0"
       id="path47772"
       style="fill:#ff0000;fill-opacity:1;fill-rule:nonzero;stroke:none"
       d="m 149.02235,481.80081 0.2837,0.87438 0.91956,0 -0.74451,0.53774 0.28508,0.87507 -0.74383,-0.53757 -0.74434,0.53757 0.28421,-0.87507 -0.74365,-0.53774 0.91956,0 0.28422,-0.87438" />
    <path
       inkscape:connector-curvature="0"
       id="path47774"
       style="fill:#00ff00;fill-opacity:1;fill-rule:nonzero;stroke:none"
       d="m 151.71171,468.38799 0.28422,0.87506 0.91956,0 -0.74365,0.53757 0.28283,0.87506 -0.74296,-0.53756 -0.74451,0.53756 0.28438,-0.87506 -0.74313,-0.53757 0.91956,0 0.2837,-0.87506" />
    <path
       inkscape:connector-curvature="0"
       id="path47776"
       style="fill:#00ff00;fill-opacity:1;fill-rule:nonzero;stroke:none"
       d="m 151.71171,472.25077 0.28422,0.87438 0.91956,0 -0.74365,0.53774 0.28283,0.87506 -0.74296,-0.53756 -0.74451,0.53756 0.28438,-0.87506 -0.74313,-0.53774 0.91956,0 0.2837,-0.87438" />
    <path
       inkscape:connector-curvature="0"
       id="path47778"
       style="fill:#00ff00;fill-opacity:1;fill-rule:nonzero;stroke:none"
       d="m 151.71171,476.11304 0.28422,0.87507 0.91956,0 -0.74365,0.53756 0.28283,0.87507 -0.74296,-0.53756 -0.74451,0.53756 0.28438,-0.87507 -0.74313,-0.53756 0.91956,0 0.2837,-0.87507" />
    <path
       inkscape:connector-curvature="0"
       id="path47780"
       style="fill:#00ff00;fill-opacity:1;fill-rule:nonzero;stroke:none"
       d="m 151.71171,479.97583 0.28422,0.87438 0.91956,0 -0.74365,0.53773 0.28283,0.87507 -0.74296,-0.53756 -0.74451,0.53756 0.28438,-0.87507 -0.74313,-0.53773 0.91956,0 0.2837,-0.87438" />
    <path
       inkscape:connector-curvature="0"
       id="path47782"
       style="fill:#ff0000;fill-opacity:1;fill-rule:nonzero;stroke:none"
       d="m 154.43539,466.3507 0.28422,0.87507 0.91956,0 -0.74365,0.54981 0.28352,0.87506 -0.74365,-0.55032 -0.74382,0.55032 0.28438,-0.87506 -0.74313,-0.54981 0.91887,0 0.2837,-0.87507" />
    <path
       inkscape:connector-curvature="0"
       id="path47784"
       style="fill:#ff0000;fill-opacity:1;fill-rule:nonzero;stroke:none"
       d="m 154.43539,470.21297 0.28422,0.87507 0.91956,0 -0.74365,0.53756 0.28352,0.88731 -0.74365,-0.5498 -0.74382,0.5498 0.28438,-0.88731 -0.74313,-0.53756 0.91887,0 0.2837,-0.87507" />
    <path
       inkscape:connector-curvature="0"
       id="path47786"
       style="fill:#ff0000;fill-opacity:1;fill-rule:nonzero;stroke:none"
       d="m 154.43539,474.07576 0.28422,0.87507 0.91956,0 -0.74365,0.53704 0.28352,0.88783 -0.74365,-0.55032 -0.74382,0.55032 0.28438,-0.88783 -0.74313,-0.53704 0.91887,0 0.2837,-0.87507" />
    <path
       inkscape:connector-curvature="0"
       id="path47788"
       style="fill:#ff0000;fill-opacity:1;fill-rule:nonzero;stroke:none"
       d="m 154.43539,477.93803 0.28422,0.87507 0.91956,0 -0.74365,0.54963 0.28352,0.863 -0.74365,-0.53757 -0.74382,0.53757 0.28438,-0.863 -0.74313,-0.54963 0.91887,0 0.2837,-0.87507" />
    <path
       inkscape:connector-curvature="0"
       id="path47790"
       style="fill:#ff0000;fill-opacity:1;fill-rule:nonzero;stroke:none"
       d="m 154.43539,481.80081 0.28422,0.87438 0.91956,0 -0.74365,0.53774 0.28352,0.87507 -0.74365,-0.53757 -0.74382,0.53757 0.28438,-0.87507 -0.74313,-0.53774 0.91887,0 0.2837,-0.87438" />
    <path
       inkscape:connector-curvature="0"
       id="path47792"
       style="fill:#00ff00;fill-opacity:1;fill-rule:nonzero;stroke:none"
       d="m 157.12527,468.38799 0.28439,0.87506 0.91887,0 -0.74434,0.53757 0.2849,0.87506 -0.74382,-0.53756 -0.74296,0.53756 0.28283,-0.87506 -0.74296,-0.53757 0.91887,0 0.28422,-0.87506" />
    <path
       inkscape:connector-curvature="0"
       id="path47794"
       style="fill:#00ff00;fill-opacity:1;fill-rule:nonzero;stroke:none"
       d="m 157.12527,472.25077 0.28439,0.87438 0.91887,0 -0.74434,0.53774 0.2849,0.87506 -0.74382,-0.53756 -0.74296,0.53756 0.28283,-0.87506 -0.74296,-0.53774 0.91887,0 0.28422,-0.87438" />
    <path
       inkscape:connector-curvature="0"
       id="path47796"
       style="fill:#00ff00;fill-opacity:1;fill-rule:nonzero;stroke:none"
       d="m 157.12527,476.11304 0.28439,0.87507 0.91887,0 -0.74434,0.53756 0.2849,0.87507 -0.74382,-0.53756 -0.74296,0.53756 0.28283,-0.87507 -0.74296,-0.53756 0.91887,0 0.28422,-0.87507" />
    <path
       inkscape:connector-curvature="0"
       id="path47798"
       style="fill:#00ff00;fill-opacity:1;fill-rule:nonzero;stroke:none"
       d="m 157.12527,479.97583 0.28439,0.87438 0.91887,0 -0.74434,0.53773 0.2849,0.87507 -0.74382,-0.53756 -0.74296,0.53756 0.28283,-0.87507 -0.74296,-0.53773 0.91887,0 0.28422,-0.87438" />
    <path
       inkscape:connector-curvature="0"
       id="path47800"
       style="fill:#ff0000;fill-opacity:1;fill-rule:nonzero;stroke:none"
       d="m 159.84964,466.3507 0.28439,0.87507 0.91887,0 -0.74313,0.54981 0.28301,0.87506 -0.74314,-0.55032 -0.74434,0.55032 0.2849,-0.87506 -0.74365,-0.54981 0.91887,0 0.28422,-0.87507" />
    <path
       inkscape:connector-curvature="0"
       id="path47802"
       style="fill:#ff0000;fill-opacity:1;fill-rule:nonzero;stroke:none"
       d="m 159.84964,470.21297 0.28439,0.87507 0.91887,0 -0.74313,0.53756 0.28301,0.88731 -0.74314,-0.5498 -0.74434,0.5498 0.2849,-0.88731 -0.74365,-0.53756 0.91887,0 0.28422,-0.87507" />
    <path
       inkscape:connector-curvature="0"
       id="path47804"
       style="fill:#ff0000;fill-opacity:1;fill-rule:nonzero;stroke:none"
       d="m 159.84964,474.07576 0.28439,0.87507 0.91887,0 -0.74313,0.53704 0.28301,0.88783 -0.74314,-0.55032 -0.74434,0.55032 0.2849,-0.88783 -0.74365,-0.53704 0.91887,0 0.28422,-0.87507" />
    <path
       inkscape:connector-curvature="0"
       id="path47806"
       style="fill:#ff0000;fill-opacity:1;fill-rule:nonzero;stroke:none"
       d="m 159.84964,477.93803 0.28439,0.87507 0.91887,0 -0.74313,0.54963 0.28301,0.863 -0.74314,-0.53757 -0.74434,0.53757 0.2849,-0.863 -0.74365,-0.54963 0.91887,0 0.28422,-0.87507" />
    <path
       inkscape:connector-curvature="0"
       id="path47808"
       style="fill:#ff0000;fill-opacity:1;fill-rule:nonzero;stroke:none"
       d="m 159.84964,481.80081 0.28439,0.87438 0.91887,0 -0.74313,0.53774 0.28301,0.87507 -0.74314,-0.53757 -0.74434,0.53757 0.2849,-0.87507 -0.74365,-0.53774 0.91887,0 0.28422,-0.87438" />
    <path
       inkscape:connector-curvature="0"
       id="path47810"
       style="fill:#00ff00;fill-opacity:1;fill-rule:nonzero;stroke:none"
       d="m 162.539,468.38799 0.28439,0.87506 0.91887,0 -0.74313,0.53757 0.28421,0.87506 -0.74434,-0.53756 -0.74434,0.53756 0.2849,-0.87506 -0.74365,-0.53757 0.91887,0 0.28422,-0.87506" />
    <path
       inkscape:connector-curvature="0"
       id="path47812"
       style="fill:#00ff00;fill-opacity:1;fill-rule:nonzero;stroke:none"
       d="m 162.539,472.25077 0.28439,0.87438 0.91887,0 -0.74313,0.53774 0.28421,0.87506 -0.74434,-0.53756 -0.74434,0.53756 0.2849,-0.87506 -0.74365,-0.53774 0.91887,0 0.28422,-0.87438" />
    <path
       inkscape:connector-curvature="0"
       id="path47814"
       style="fill:#00ff00;fill-opacity:1;fill-rule:nonzero;stroke:none"
       d="m 162.539,476.11304 0.28439,0.87507 0.91887,0 -0.74313,0.53756 0.28421,0.87507 -0.74434,-0.53756 -0.74434,0.53756 0.2849,-0.87507 -0.74365,-0.53756 0.91887,0 0.28422,-0.87507" />
    <path
       inkscape:connector-curvature="0"
       id="path47816"
       style="fill:#00ff00;fill-opacity:1;fill-rule:nonzero;stroke:none"
       d="m 162.539,479.97583 0.28439,0.87438 0.91887,0 -0.74313,0.53773 0.28421,0.87507 -0.74434,-0.53756 -0.74434,0.53756 0.2849,-0.87507 -0.74365,-0.53773 0.91887,0 0.28422,-0.87438" />
    <path
       inkscape:connector-curvature="0"
       id="path47818"
       style="fill:#ff0000;fill-opacity:1;fill-rule:nonzero;stroke:none"
       d="m 165.26337,466.3507 0.28422,0.87507 0.91904,0 -0.74313,0.54981 0.28301,0.87506 -0.74314,-0.55032 -0.74382,0.55032 0.28369,-0.87506 -0.74382,-0.54981 0.91973,0 0.28422,-0.87507" />
    <path
       inkscape:connector-curvature="0"
       id="path47820"
       style="fill:#ff0000;fill-opacity:1;fill-rule:nonzero;stroke:none"
       d="m 165.26337,470.21297 0.28422,0.87507 0.91904,0 -0.74313,0.53756 0.28301,0.88731 -0.74314,-0.5498 -0.74382,0.5498 0.28369,-0.88731 -0.74382,-0.53756 0.91973,0 0.28422,-0.87507" />
    <path
       inkscape:connector-curvature="0"
       id="path47822"
       style="fill:#ff0000;fill-opacity:1;fill-rule:nonzero;stroke:none"
       d="m 165.26337,474.07576 0.28422,0.87507 0.91904,0 -0.74313,0.53704 0.28301,0.88783 -0.74314,-0.55032 -0.74382,0.55032 0.28369,-0.88783 -0.74382,-0.53704 0.91973,0 0.28422,-0.87507" />
    <path
       inkscape:connector-curvature="0"
       id="path47824"
       style="fill:#ff0000;fill-opacity:1;fill-rule:nonzero;stroke:none"
       d="m 165.26337,477.93803 0.28422,0.87507 0.91904,0 -0.74313,0.54963 0.28301,0.863 -0.74314,-0.53757 -0.74382,0.53757 0.28369,-0.863 -0.74382,-0.54963 0.91973,0 0.28422,-0.87507" />
    <path
       inkscape:connector-curvature="0"
       id="path47826"
       style="fill:#ff0000;fill-opacity:1;fill-rule:nonzero;stroke:none"
       d="m 165.26337,481.80081 0.28422,0.87438 0.91904,0 -0.74313,0.53774 0.28301,0.87507 -0.74314,-0.53757 -0.74382,0.53757 0.28369,-0.87507 -0.74382,-0.53774 0.91973,0 0.28422,-0.87438" />
    <path
       inkscape:connector-curvature="0"
       id="path47828"
       style="fill:#00ff00;fill-opacity:1;fill-rule:nonzero;stroke:none"
       d="m 167.95273,468.38799 0.28422,0.87506 0.91887,0 -0.74296,0.53757 0.28283,0.87506 -0.74296,-0.53756 -0.74382,0.53756 0.28439,-0.87506 -0.74383,-0.53757 0.91887,0 0.28439,-0.87506" />
    <path
       inkscape:connector-curvature="0"
       id="path47830"
       style="fill:#00ff00;fill-opacity:1;fill-rule:nonzero;stroke:none"
       d="m 167.95273,472.25077 0.28422,0.87438 0.91887,0 -0.74296,0.53774 0.28283,0.87506 -0.74296,-0.53756 -0.74382,0.53756 0.28439,-0.87506 -0.74383,-0.53774 0.91887,0 0.28439,-0.87438" />
    <path
       inkscape:connector-curvature="0"
       id="path47832"
       style="fill:#00ff00;fill-opacity:1;fill-rule:nonzero;stroke:none"
       d="m 167.95273,476.11304 0.28422,0.87507 0.91887,0 -0.74296,0.53756 0.28283,0.87507 -0.74296,-0.53756 -0.74382,0.53756 0.28439,-0.87507 -0.74383,-0.53756 0.91887,0 0.28439,-0.87507" />
    <path
       inkscape:connector-curvature="0"
       id="path47834"
       style="fill:#00ff00;fill-opacity:1;fill-rule:nonzero;stroke:none"
       d="m 167.95273,479.97583 0.28422,0.87438 0.91887,0 -0.74296,0.53773 0.28283,0.87507 -0.74296,-0.53756 -0.74382,0.53756 0.28439,-0.87507 -0.74383,-0.53773 0.91887,0 0.28439,-0.87438" />
    <path
       inkscape:connector-curvature="0"
       id="path47836"
       style="fill:#ff0000;fill-opacity:1;fill-rule:nonzero;stroke:none"
       d="m 170.67641,466.3507 0.28422,0.87507 0.91956,0 -0.74365,0.54981 0.2849,0.87506 -0.74503,-0.55032 -0.74382,0.55032 0.28508,-0.87506 -0.74383,-0.54981 0.91887,0 0.2837,-0.87507" />
    <path
       inkscape:connector-curvature="0"
       id="path47838"
       style="fill:#ff0000;fill-opacity:1;fill-rule:nonzero;stroke:none"
       d="m 170.67641,470.21297 0.28422,0.87507 0.91956,0 -0.74365,0.53756 0.2849,0.88731 -0.74503,-0.5498 -0.74382,0.5498 0.28508,-0.88731 -0.74383,-0.53756 0.91887,0 0.2837,-0.87507" />
    <path
       inkscape:connector-curvature="0"
       id="path47840"
       style="fill:#ff0000;fill-opacity:1;fill-rule:nonzero;stroke:none"
       d="m 170.67641,474.07576 0.28422,0.87507 0.91956,0 -0.74365,0.53704 0.2849,0.88783 -0.74503,-0.55032 -0.74382,0.55032 0.28508,-0.88783 -0.74383,-0.53704 0.91887,0 0.2837,-0.87507" />
    <path
       inkscape:connector-curvature="0"
       id="path47842"
       style="fill:#ff0000;fill-opacity:1;fill-rule:nonzero;stroke:none"
       d="m 170.67641,477.93803 0.28422,0.87507 0.91956,0 -0.74365,0.54963 0.2849,0.863 -0.74503,-0.53757 -0.74382,0.53757 0.28508,-0.863 -0.74383,-0.54963 0.91887,0 0.2837,-0.87507" />
    <path
       inkscape:connector-curvature="0"
       id="path47844"
       style="fill:#ff0000;fill-opacity:1;fill-rule:nonzero;stroke:none"
       d="m 170.67641,481.80081 0.28422,0.87438 0.91956,0 -0.74365,0.53774 0.2849,0.87507 -0.74503,-0.53757 -0.74382,0.53757 0.28508,-0.87507 -0.74383,-0.53774 0.91887,0 0.2837,-0.87438" />
  </g>
</svg>
